<svg width="51" height="39" viewBox="0 0 51 39" fill="none" xmlns="http://www.w3.org/2000/svg">
<path fill-rule="evenodd" clip-rule="evenodd" d="M7.0652 27.8978C7.06885 27.8287 7.07223 27.7651 7.06814 27.715H10.3481C10.496 28.0809 10.3866 28.4252 10.0146 28.7533C9.71796 29.0148 9.44864 29.3072 9.15982 29.6207C9.02898 29.7628 8.89414 29.9092 8.75095 30.059C8.59058 29.8955 8.43191 29.7377 8.27599 29.5826L8.27589 29.5825C7.87302 29.1817 7.48862 28.7993 7.14109 28.3859C7.04537 28.2719 7.05616 28.0683 7.0652 27.8978ZM45.4563 14.0224C43.8706 13.4211 42.2825 13.4091 40.6639 14.0285C40.6038 12.7942 41.7263 11.8263 43.1027 11.8611C44.5032 11.8965 45.5625 12.8543 45.4563 14.0224ZM41.3899 28.1028C41.4243 27.9711 41.4579 27.8426 41.477 27.7231H44.6829C44.6924 27.8178 44.7047 27.9144 44.7172 28.012C44.8061 28.7063 44.9017 29.4524 43.9909 29.9316C43.3975 30.2438 42.8114 30.3432 42.2523 29.974C41.8795 29.7276 41.4348 29.4028 41.3108 29.0196C41.2221 28.7456 41.3084 28.415 41.3899 28.1028ZM12.6995 26.1333C12.796 26.0498 12.8915 25.9673 12.9847 25.885C13.9279 26.7992 15.1045 27.2896 16.349 27.8085C16.5377 27.8871 16.728 27.9665 16.9193 28.048C16.7548 28.1205 16.5943 28.1914 16.4369 28.261C15.9066 28.4953 15.4108 28.7144 14.9123 28.927C14.8463 28.9552 14.7491 28.9326 14.6727 28.9107C14.4982 28.8606 14.3234 28.8111 14.1487 28.7615C13.544 28.59 12.9391 28.4184 12.3403 28.228C11.826 28.0646 11.6389 27.1071 12.0381 26.7251C12.2534 26.5192 12.479 26.3241 12.6992 26.1336L12.6993 26.1335L12.6994 26.1334L12.6995 26.1333ZM34.742 28.324C34.5477 28.2461 34.351 28.1673 34.1548 28.0805C34.4485 27.9346 34.7371 27.7904 35.0224 27.6478L35.0235 27.6473L35.0246 27.6467C35.6784 27.32 36.3147 27.002 36.9549 26.6919C37.6727 26.3442 38.1624 25.8434 38.1545 25.0779C38.2981 25.2255 38.4453 25.3735 38.5937 25.5227L38.5938 25.5229L38.594 25.523L38.5941 25.5232C38.9874 25.9187 39.3898 26.3235 39.7613 26.7548C39.8604 26.8699 39.8783 27.0551 39.8962 27.24C39.9043 27.3237 39.9123 27.4073 39.9279 27.4844C40.0686 28.178 39.7145 28.4758 39.1354 28.8387C38.0296 29.5318 37.0441 29.5783 35.9454 28.8899C35.576 28.6584 35.1647 28.4935 34.742 28.324ZM25.5642 31.925C23.2338 31.9908 20.7777 30.5058 19.8121 28.4108C19.964 28.3407 20.1209 28.2756 20.2779 28.2106L20.278 28.2105C21.0113 27.9065 21.7454 27.6021 21.9822 26.7809C22.1519 26.192 22.2107 25.5711 22.2711 24.9331C22.2983 24.646 22.3258 24.3553 22.3639 24.0626C24.4258 24.8111 26.5487 24.8257 28.7505 24.0132C28.7505 24.1804 28.7524 24.3397 28.7541 24.4937V24.4938C28.7578 24.8132 28.7613 25.1095 28.7474 25.405C28.6852 26.7276 29.2578 27.6273 30.497 28.1028C30.6486 28.161 30.7957 28.231 30.9427 28.3009L30.9428 28.3009L30.9428 28.3009L30.9428 28.3009L30.9429 28.3009C30.9905 28.3235 31.038 28.3461 31.0857 28.3684C31.1047 28.3773 31.1202 28.3938 31.1357 28.4102C31.1428 28.4178 31.15 28.4254 31.1574 28.4322C30.4421 30.3334 28.0034 31.8564 25.5642 31.925ZM47.6671 18.4552C47.9686 19.4074 47.9659 20.3447 47.6804 21.2848C47.4219 21.1179 47.1693 20.9441 46.9181 20.7712L46.918 20.7711L46.918 20.7711C46.3558 20.3842 45.8006 20.002 45.2003 19.7132C44.1559 19.2107 43.0461 18.8357 41.9443 18.4635L41.8664 18.4372C41.212 18.2159 40.9158 18.4586 40.7038 19.1297C40.6017 19.4528 40.425 19.7644 40.228 20.0428C39.8644 20.5565 39.841 20.9761 40.2158 21.2676C40.5833 21.5537 41.0042 21.4472 41.4052 20.9621C41.5211 20.8216 41.6346 20.6778 41.7346 20.5258C41.8018 20.4238 41.8603 20.3159 41.9251 20.1964L41.9252 20.1962C41.9554 20.1404 41.9871 20.082 42.0217 20.0204C43.7858 20.6262 45.5178 21.2416 46.776 22.6959C46.9073 22.8477 46.9766 23.149 46.9286 23.3451C46.4952 25.1141 44.7828 26.4011 43.0041 26.3302C41.063 26.2528 39.5125 24.9666 39.1253 23.1414C39.0472 22.7736 38.916 22.4067 38.7479 22.0702C37.495 19.5648 38.6518 16.44 41.2228 15.4206C43.8812 14.3665 46.8123 15.755 47.6671 18.4552ZM11.4149 15.0943L11.415 15.0943C12.1442 15.1048 12.8822 15.1155 13.6323 15.1155C13.6106 15.5231 13.6088 15.9344 13.607 16.3446C13.6029 17.2813 13.5988 18.2117 13.3581 19.0762C13.041 20.2155 12.7778 21.3061 12.7322 22.4939C12.6122 25.6236 9.15432 27.3658 6.55036 25.6314C5.31834 24.8109 4.71715 23.582 4.7047 22.121C4.69623 21.128 4.54497 20.2247 4.12716 19.2977C3.34645 17.5657 4.63785 15.2748 6.54177 15.1512C8.14539 15.047 9.75723 15.0703 11.4149 15.0943ZM30.2447 24.922C30.245 24.8287 30.2452 24.7353 30.2452 24.6419C30.0386 23.6958 30.4142 23.1008 31.1738 22.4741C33.2788 20.7374 34.2247 18.3961 34.2304 15.6797C34.2316 15.0197 34.2181 14.3476 34.0979 13.7023C33.9083 12.6842 33.1391 12.0719 32.3491 11.5007C29.7355 9.61113 26.7769 8.61989 23.6194 8.14618L23.6034 8.14377C23.2316 8.08792 22.8596 8.03204 22.4861 7.99019C22.0112 7.93678 21.6611 8.17419 21.5916 8.57992C21.5154 9.025 21.7574 9.3462 22.2592 9.45526C22.7711 9.56656 23.2854 9.6697 23.7996 9.77284C24.9413 10.0018 26.083 10.2308 27.1992 10.5491C28.9638 11.0522 30.5797 11.9244 31.9786 13.129C32.3044 13.4098 32.6314 13.8632 32.6754 14.2678C32.917 16.4905 32.5971 18.5965 31.1494 20.4209C29.3436 22.6964 26.2259 23.6757 23.4028 22.8244C20.5837 21.9743 18.5263 19.4346 18.3019 16.5279C18.2988 16.4874 18.2965 16.4469 18.2943 16.4063V16.4063V16.4062V16.4062C18.2891 16.3139 18.2839 16.2216 18.2688 16.131C18.129 15.2916 18.3766 14.6958 19.1597 14.2318C20.1959 13.6178 20.9206 12.6837 21.3386 11.5358C21.533 11.0024 21.4097 10.6097 20.9965 10.4388C20.5798 10.2665 20.1773 10.4456 19.9757 10.9538C19.5932 11.9174 18.9511 12.6547 18.0771 13.1859C17.1318 13.7606 16.7366 14.5942 16.7554 15.6818C16.808 18.7117 17.9765 21.1687 20.4231 22.9996C20.5889 23.1237 20.7248 23.3909 20.7363 23.599C20.7613 24.0494 20.7575 24.5012 20.7537 24.9531V24.9532V24.9532V24.9533V24.9533C20.7517 25.1987 20.7496 25.4441 20.7521 25.6893C20.7567 26.1399 20.5437 26.4159 20.1523 26.6306C19.433 27.0252 18.7383 27.1729 17.9482 26.7917C17.3577 26.5068 16.7562 26.2446 16.1546 25.9825L16.1545 25.9825L16.1545 25.9824L16.1544 25.9824L16.1544 25.9824C15.6498 25.7625 15.1452 25.5426 14.647 25.3092C14.5145 25.2471 14.3876 24.9786 14.4043 24.8212C14.5971 23.0006 14.7971 21.1809 14.9972 19.3611L14.9972 19.3611L14.9972 19.361L14.9972 19.3609L14.9972 19.3608C15.25 17.0606 15.5028 14.7604 15.741 12.4587L15.7683 12.1939C15.9542 10.3837 16.1389 8.58547 16.9078 6.89375C18.6971 2.9568 22.4201 1.13779 26.467 1.53917C31.0791 1.99656 34.1786 5.00153 34.9367 9.79463C35.1332 11.0371 35.2336 12.2943 35.334 13.5519C35.3974 14.3462 35.4609 15.1406 35.5485 15.9316C35.8752 18.8811 36.2375 21.8268 36.6026 24.7719C36.6365 25.0439 36.6182 25.2164 36.3549 25.3254C35.9313 25.5008 35.5093 25.6805 35.0873 25.8602C34.1255 26.2697 33.1636 26.6792 32.1834 27.0385C31.441 27.3106 30.2532 26.3262 30.2457 25.5382C30.2437 25.3328 30.2442 25.1274 30.2447 24.922ZM49.9911 38.9388C50.4618 39.1245 50.7306 38.8263 50.9949 38.5183V32.2438C50.687 30.9164 49.82 30.1041 48.5987 29.5936C48.3647 29.4958 48.1398 29.3743 47.9151 29.253C47.6271 29.0973 47.3395 28.942 47.0338 28.8371C46.3334 28.5966 46.1156 28.1736 46.1929 27.4631C46.2359 27.068 46.2815 26.7757 46.6313 26.4984C47.6131 25.7202 48.1933 24.6703 48.4788 23.452C48.5423 23.1808 48.625 22.9073 48.746 22.6578C50.0101 20.0535 49.3865 17.0015 47.1787 15.108C46.946 14.9084 46.8828 14.7246 46.943 14.425C47.0927 13.6807 46.9399 12.9709 46.5631 12.3189C45.7362 10.8882 44.1534 10.16 42.3403 10.4415C40.248 10.7666 38.7872 12.6099 39.194 14.5872C39.2214 14.7207 39.1077 14.9106 39.0113 15.0374C38.6042 15.5728 38.1885 16.1018 37.7728 16.6307C37.6394 16.8004 37.506 16.9702 37.3729 17.1402C37.3371 17.1859 37.3001 17.2307 37.2528 17.2879L37.2527 17.2882L37.1794 17.3771C37.1139 16.6506 37.0513 15.9303 36.9891 15.2143L36.9891 15.2142V15.2142C36.8489 13.6008 36.7105 12.0098 36.5459 10.4216C36.2817 7.87316 35.4335 5.54296 33.7311 3.58713C31.5933 1.13094 28.8247 -0.00371655 25.6204 1.83336e-05C21.0676 0.00524717 17.6598 1.97913 15.6254 6.1322C14.8025 7.81216 14.4767 9.6166 14.3421 11.4655C14.308 11.9331 14.2676 12.4002 14.2263 12.8766L14.2263 12.8768L14.2263 12.8772L14.2262 12.8777L14.2262 12.8783C14.2069 13.1009 14.1875 13.3256 14.1684 13.5533C14.0722 13.5533 13.9841 13.5531 13.9014 13.5529C13.7391 13.5525 13.5975 13.5522 13.456 13.5535C12.7545 13.5599 12.0526 13.5595 11.3508 13.559C9.76199 13.558 8.17321 13.5569 6.58833 13.6351C3.60054 13.7826 1.53167 17.2525 2.77625 19.9683C3.085 20.6422 3.20402 21.2961 3.20091 22.0204C3.19357 23.7127 3.79414 25.183 5.04906 26.3221C5.46313 26.6981 5.62535 27.0512 5.60107 27.5906C5.58265 28.0018 5.43338 28.175 5.05105 28.2735C4.18493 28.4966 3.32665 28.7513 2.46925 29.0069C0.838222 29.4929 0.00546635 30.6103 0.00210495 32.3111C-0.00150544 34.1868 0.000362003 36.0627 0.00272743 37.9384L0.00273733 37.9785C0.00267907 38.1309 0.00261933 38.2873 0.0395783 38.4321C0.133697 38.7999 0.4173 39.0479 0.762777 38.9731C1.02111 38.917 1.2635 38.6557 1.44489 38.431C1.51571 38.3433 1.5071 38.1868 1.49887 38.0371C1.49623 37.9892 1.49363 37.942 1.49369 37.8979C1.49474 37.1476 1.49443 36.3974 1.49412 35.6471C1.49366 34.5216 1.4932 33.3962 1.4973 32.2708C1.50091 31.2951 1.93155 30.7264 2.869 30.4474C3.8534 30.1545 4.83878 29.8634 5.83177 29.602C5.97917 29.5633 6.21521 29.6431 6.33411 29.7516C6.79935 30.1764 7.25575 30.616 7.66958 31.0901C7.83391 31.2786 7.96202 31.5705 7.96488 31.8169C7.98082 33.2028 7.98031 34.5888 7.97979 35.9749V35.975C7.97956 36.614 7.97932 37.253 7.98069 37.8921C7.98076 37.929 7.97969 37.9679 7.9786 38.0077C7.97386 38.18 7.96869 38.3676 8.05427 38.4695C8.23765 38.6877 8.49997 38.9311 8.75929 38.9717C9.10838 39.0262 9.37729 38.7648 9.45 38.3905C9.47522 38.2607 9.47368 38.125 9.47214 37.9904C9.47178 37.9582 9.47141 37.9261 9.47141 37.8942C9.47174 37.3631 9.47159 36.8321 9.47145 36.301V36.2978C9.47106 34.7882 9.47066 33.2786 9.48087 31.769C9.48224 31.576 9.55296 31.3368 9.67907 31.1994C10.1611 30.6741 10.6733 30.1757 11.189 29.6825C11.2777 29.5976 11.4539 29.5264 11.5625 29.5543C11.8481 29.6282 12.1277 29.7254 12.4144 29.825C12.5243 29.8632 12.6352 29.9017 12.7479 29.9395C12.7314 29.9654 12.7187 29.9882 12.7076 30.0081L12.7076 30.0081C12.6879 30.0435 12.6734 30.0697 12.6519 30.0875C11.5758 30.9809 11.1494 32.1476 11.1659 33.5205C11.1766 34.4099 11.1748 35.2995 11.173 36.1891C11.1718 36.7603 11.1706 37.3315 11.1728 37.9026C11.1729 37.9368 11.1722 37.9727 11.1715 38.0095C11.1679 38.1842 11.1641 38.3768 11.2523 38.4789C11.4386 38.6944 11.7046 38.9345 11.9641 38.9704C12.3129 39.0189 12.5795 38.7566 12.6427 38.3777C12.6653 38.2428 12.6644 38.1033 12.6636 37.9649V37.9648C12.6634 37.9369 12.6632 37.9089 12.6632 37.8811C12.6638 37.2733 12.6637 36.6655 12.6635 36.0577C12.6632 35.1384 12.663 34.219 12.6654 33.2996C12.668 32.3334 13.0125 31.4984 13.8917 31.0633C14.9219 30.5534 15.9751 30.09 17.0357 29.6234L17.0357 29.6234L17.0358 29.6234L17.0358 29.6234L17.0359 29.6233L17.0362 29.6232C17.4846 29.4259 17.9344 29.228 18.3843 29.0258C19.9565 31.8347 22.3179 33.3924 25.5017 33.3918C28.6852 33.391 31.0478 31.8359 32.6072 29.0359C32.9952 29.2069 33.3794 29.3807 33.7619 29.5538L33.762 29.5539L33.762 29.5539L33.7621 29.5539L33.7622 29.554L33.7623 29.554C34.6274 29.9456 35.4842 30.3333 36.3589 30.6754C37.7674 31.2263 38.3979 32.1947 38.3437 33.7041C38.3076 34.7081 38.3161 35.7136 38.3246 36.7192C38.3285 37.1914 38.3325 37.6637 38.3319 38.1357C38.3315 38.4974 38.433 38.833 38.8048 38.9187C39.0319 38.9709 39.3727 38.9363 39.5265 38.7939C39.7043 38.6292 39.8095 38.3045 39.8135 38.0471C39.8384 36.4539 39.8379 34.8602 39.8211 33.2668C39.8119 32.3875 39.5915 31.5614 39.0526 30.8421C38.9988 30.7704 38.9295 30.6149 38.9363 30.6108L38.9386 30.6093C39.9572 29.9818 39.9617 29.979 40.7988 30.7522C41.7417 31.6234 42.8486 31.9759 44.0491 31.5099C44.5664 31.3092 45.021 30.9309 45.4671 30.5597L45.4672 30.5596L45.4673 30.5595L45.4673 30.5595C45.5718 30.4725 45.6758 30.386 45.7801 30.3022C46.0178 30.1112 46.1753 30.0335 46.4633 30.1926C47.072 30.5292 47.6966 30.8398 48.3279 31.1322C49.1415 31.5093 49.5205 32.1177 49.5077 33.0219C49.4927 34.0744 49.4952 35.1271 49.4978 36.18C49.4993 36.7706 49.5007 37.3612 49.4991 37.9518C49.4979 38.3689 49.5311 38.7576 49.9911 38.9388ZM4.68651 36.5621C4.68581 36.3409 4.68512 36.1197 4.68508 35.8986C4.68504 35.6646 4.6858 35.4307 4.68657 35.1967C4.68834 34.653 4.69011 34.1092 4.68184 33.5656C4.674 33.0546 4.3843 32.742 3.9523 32.7361C3.51843 32.7303 3.20183 33.0389 3.19747 33.5436C3.18415 35.0822 3.1854 36.6214 3.19673 38.16C3.20046 38.666 3.50984 38.9929 3.93038 38.9999C4.37122 39.0074 4.67562 38.6695 4.68271 38.1324C4.6898 37.609 4.68816 37.0856 4.68651 36.5621ZM46.311 36.3776C46.311 36.1972 46.3103 36.0168 46.3096 35.8364V35.8359C46.3081 35.4202 46.3065 35.0045 46.3132 34.5889C46.3217 34.0433 46.607 33.7228 47.0586 33.7247C47.5081 33.7267 47.7968 34.0471 47.8013 34.5962C47.811 35.772 47.8115 36.948 47.8012 38.1238C47.7964 38.6651 47.4906 39.0027 47.0512 38.9997C46.6115 38.997 46.321 38.6592 46.3128 38.1167C46.3066 37.7109 46.3081 37.305 46.3096 36.8991C46.3103 36.7253 46.3109 36.5514 46.311 36.3776ZM18.254 37.1167C18.253 36.9645 18.2521 36.8123 18.2521 36.6601C18.2521 36.5077 18.253 36.3552 18.254 36.2027V36.2026C18.2562 35.8572 18.2584 35.5119 18.2493 35.1668C18.2354 34.6402 17.9631 34.3389 17.5258 34.3327C17.107 34.3264 16.7871 34.6052 16.7745 35.0936C16.7477 36.1381 16.7493 37.1842 16.7752 38.229C16.7866 38.6964 17.133 39.006 17.5271 38.9975C17.9504 38.9886 18.236 38.6676 18.2493 38.1535C18.2582 37.808 18.2561 37.4624 18.254 37.1167ZM32.7447 36.6771C32.7447 36.5201 32.7436 36.363 32.7425 36.206C32.7399 35.8485 32.7373 35.491 32.7481 35.134C32.7632 34.6406 33.0347 34.3486 33.4534 34.333C33.8736 34.3173 34.2066 34.5929 34.2195 35.0766C34.2477 36.1376 34.2464 37.2004 34.2158 38.2615C34.2026 38.7232 33.8285 39.0429 33.4371 38.9915C33.0013 38.9343 32.7536 38.6724 32.7482 38.2204C32.744 37.8624 32.745 37.5044 32.746 37.1463C32.7464 36.9899 32.7469 36.8335 32.7469 36.6771H32.7447ZM11.1378 18.2988C9.84315 17.7804 8.47767 17.662 7.10485 17.5559C7.03758 17.5559 6.9703 17.5554 6.90302 17.555C6.75539 17.554 6.60777 17.553 6.46033 17.5567C5.95002 17.5695 5.62036 17.8408 5.59658 18.2615C5.5733 18.6738 5.87881 19.0057 6.3885 19.0347C7.92565 19.1223 9.45522 19.2222 10.9166 19.7831C11.3049 19.932 11.6369 19.7632 11.8062 19.367C11.9627 19.001 11.7992 18.6205 11.4118 18.4139C11.3474 18.3795 11.2787 18.3532 11.2101 18.327C11.1859 18.3177 11.1617 18.3084 11.1378 18.2988Z" fill="url(#paint0_linear_0_601)"/>
<defs>
<linearGradient id="paint0_linear_0_601" x1="-13.2872" y1="10.6277" x2="4.67631" y2="53.7247" gradientUnits="userSpaceOnUse">
<stop stop-color="#AC6C44"/>
<stop offset="1" stop-color="#301103"/>
</linearGradient>
</defs>
</svg>
