<svg width="46" height="37" viewBox="0 0 46 37" fill="none" xmlns="http://www.w3.org/2000/svg">
<path fill-rule="evenodd" clip-rule="evenodd" d="M8.39073 7.10477C7.51035 7.51544 6.59351 6.91663 6.58452 5.9897C6.58925 5.46791 6.82126 5.07192 7.28639 4.84685L7.50992 4.7387C9.56011 3.74676 11.6104 2.75475 13.673 1.78905C14.337 1.47812 15.0335 1.75827 15.3289 2.36939C15.637 3.00671 15.4063 3.72626 14.72 4.06275C12.6182 5.09322 10.5121 6.11549 8.39073 7.10477ZM15.9083 35.3382C13.8865 35.3308 12.4481 34.0681 12.2214 32.1218H32.9691C32.9139 33.7495 31.4816 35.2134 29.813 35.3148C29.1904 35.3526 28.5652 35.3485 27.9401 35.3444C27.7363 35.3431 27.5325 35.3417 27.3288 35.3418C26.4709 35.3423 25.6131 35.343 24.7553 35.3438C21.8063 35.3464 18.8572 35.349 15.9083 35.3382ZM9.8858 8.4482C9.86536 8.39126 9.84413 8.33215 9.8213 8.27003C11.4709 7.47756 13.095 6.69757 14.7619 5.89705L20.6145 16.3464C20.5409 16.3516 20.4755 16.3574 20.4154 16.3627C20.3014 16.3728 20.2066 16.3811 20.1118 16.3812C19.4692 16.3818 18.8265 16.3813 18.1838 16.3807C16.6594 16.3793 15.135 16.3779 13.6108 16.3924C13.2123 16.3962 13.0328 16.276 12.8845 15.9008C12.1956 14.1593 11.4903 12.4245 10.785 10.6896C10.5274 10.0561 10.2698 9.42252 10.0131 8.78866C9.96889 8.67963 9.9291 8.56879 9.8858 8.4482ZM6.58718 18.2884C6.59111 18.2199 6.59517 18.1489 6.59857 18.0744H38.6078C38.6123 18.14 38.6179 18.2042 38.6234 18.2675C38.6349 18.3991 38.6461 18.5268 38.6463 18.6545C38.6467 19.1151 38.6471 19.5758 38.6476 20.0364C38.6499 22.3758 38.6522 24.7153 38.6461 27.0547C38.6406 29.1882 37.3977 30.4272 35.254 30.4284C26.8144 30.4327 18.3747 30.4332 9.93509 30.4278C7.8257 30.4265 6.57899 29.1828 6.57268 27.0853C6.56635 24.9239 6.56829 22.7625 6.57023 20.6011C6.5708 19.9625 6.57137 19.3239 6.57173 18.6852C6.57184 18.5562 6.57923 18.4272 6.58718 18.2884ZM10.5113 32.3926C10.7399 33.443 11.1292 34.4113 11.9091 35.3428H11.1531C10.2334 35.3428 9.3138 35.3427 8.39419 35.3426C5.97988 35.3423 3.56563 35.3421 1.15137 35.3436C0.395527 35.3442 0.0159451 35.6172 0.000477736 36.154C-0.0154631 36.7153 0.367433 36.9938 1.16305 36.9998C1.20251 37 1.24197 37 1.28143 37C15.5049 37 29.7281 37 43.9514 36.9994C43.978 36.9994 44.0046 36.9995 44.0312 36.9996C44.1823 37.0001 44.334 37.0006 44.4835 36.9837C44.9144 36.9351 45.1685 36.6774 45.2092 36.2565C45.2531 35.8013 45.0176 35.4968 44.5788 35.3871C44.3989 35.3423 44.2055 35.3431 44.0158 35.344C43.988 35.3441 43.9602 35.3442 43.9326 35.3442C42.1127 35.343 40.2927 35.3428 38.4727 35.3426C36.9982 35.3424 35.5238 35.3422 34.0493 35.3415C33.9156 35.3414 33.7818 35.3339 33.6183 35.3247C33.5305 35.3198 33.4342 35.3143 33.3247 35.3093C34.1009 34.4056 34.4821 33.4308 34.7053 32.3776C34.7315 32.2536 35.0015 32.1262 35.1743 32.0984C35.3886 32.0641 35.6068 32.0494 35.8247 32.0347C36.1195 32.0147 36.4138 31.9949 36.6971 31.9267C38.9148 31.3929 40.2883 29.5705 40.3019 27.1358C40.315 24.7995 40.3118 22.4632 40.3087 20.1269C40.3076 19.3069 40.3064 18.4868 40.306 17.6668C40.3056 16.6025 40.0846 16.3828 39.0276 16.3828C38.0401 16.3827 37.0526 16.3825 36.0651 16.3822C31.746 16.381 27.4268 16.3799 23.1078 16.3934C22.6732 16.3948 22.4518 16.2589 22.2425 15.8814C20.8211 13.3163 19.3868 10.7583 17.9525 8.20042C17.4594 7.32098 16.9663 6.44155 16.4737 5.56182C16.4098 5.44773 16.3512 5.33056 16.2929 5.21405C16.2657 5.15956 16.2385 5.10522 16.2109 5.0514C16.2421 5.01288 16.2713 4.9773 16.2989 4.94359C16.3553 4.8748 16.4053 4.8138 16.4536 4.75152C17.3078 3.64987 17.3264 2.2174 16.5011 1.13563C15.6904 0.0728052 14.2481 -0.311353 12.9942 0.272934C10.8161 1.28794 8.64767 2.32488 6.49456 3.39166C5.26174 4.00246 4.67856 5.36595 4.99848 6.68699C5.30499 7.95279 6.45999 8.88967 7.80676 8.88935C8.21364 8.88935 8.3388 9.05965 8.46775 9.38226C9.05995 10.8641 9.66033 12.3425 10.2607 13.821C10.5347 14.4955 10.8086 15.1701 11.0817 15.8449C11.1242 15.9501 11.1591 16.0584 11.1989 16.1823C11.219 16.2447 11.2403 16.311 11.2645 16.3828C10.7342 16.3828 10.2093 16.3824 9.68822 16.382C8.42346 16.381 7.18107 16.38 5.93868 16.385C5.22071 16.3879 4.91894 16.671 4.91736 17.3853C4.90947 20.7192 4.90915 24.053 4.92099 27.3869C4.92572 28.6666 5.38911 29.7719 6.29443 30.6835C7.2998 31.6958 8.54208 32.0849 9.94125 32.1008C10.14 32.1032 10.4817 32.2559 10.5113 32.3926ZM34.57 5.62735C34.6272 5.59291 34.6901 5.55506 34.7614 5.51127C33.7854 10.4438 30.7099 12.2067 25.5602 10.6371C26.1636 4.85233 29.3239 3.16323 33.8162 4.11005C33.5362 4.29892 33.2613 4.4845 32.9899 4.66773C32.3447 5.10324 31.7193 5.52541 31.0931 5.94656C30.7544 6.17451 30.4151 6.40146 30.0757 6.62842C29.7271 6.86158 29.3784 7.09474 29.0305 7.329C28.3778 7.76824 28.2091 8.22405 28.5254 8.68192C28.8417 9.13947 29.2939 9.14467 29.973 8.69091C30.7501 8.17166 31.5267 7.65159 32.3033 7.13151C32.9676 6.68665 33.6318 6.24178 34.2965 5.79741C34.3795 5.7419 34.4652 5.69034 34.57 5.62735ZM27.5242 12.7406C27.9247 12.8221 28.3252 12.9036 28.7255 12.9858L28.7584 12.8248C32.045 12.8439 34.3132 11.3879 35.6169 8.37068C35.9194 7.67007 36.2302 6.93221 36.3134 6.18662C36.4665 4.81539 36.8842 3.71816 38.2462 3.11935C38.7009 2.91954 38.7548 2.43642 38.5066 1.99466C38.2746 1.58209 37.7896 1.4956 37.3235 1.77922C37.1594 1.87907 37.0009 1.98916 36.8426 2.09917C36.6118 2.25956 36.3812 2.41978 36.1336 2.54785C35.8986 2.66938 35.5867 2.73362 35.326 2.69858C34.9318 2.64563 34.5395 2.57081 34.1474 2.49604C33.552 2.38249 32.9571 2.26905 32.3572 2.23251C29.4702 2.05684 27.0208 2.89066 25.4491 5.51569C24.4258 7.22483 23.9717 9.10648 23.7963 11.0699C23.7469 11.6237 23.9752 12.0005 24.5224 12.1182C25.5213 12.3332 26.5228 12.5369 27.5242 12.7406Z" fill="url(#paint0_linear_0_618)"/>
<defs>
<linearGradient id="paint0_linear_0_618" x1="-11.781" y1="10.0827" x2="6.07142" y2="50.111" gradientUnits="userSpaceOnUse">
<stop stop-color="#AC6C44"/>
<stop offset="1" stop-color="#301103"/>
</linearGradient>
</defs>
</svg>
