<svg width="51" height="40" viewBox="0 0 51 40" fill="none" xmlns="http://www.w3.org/2000/svg">
<path fill-rule="evenodd" clip-rule="evenodd" d="M48.5668 21.2284C48.298 21.074 48.0337 20.9241 47.7733 20.7764C47.1303 20.4117 46.5109 20.0603 45.9041 19.6882C45.5711 19.4843 45.3264 19.4724 44.9791 19.6774C43.6027 20.4902 42.2176 21.2884 40.8325 22.0865L40.8324 22.0866C40.2067 22.4471 39.5812 22.8076 38.9564 23.1694C38.8117 23.2532 38.6511 23.3287 38.4901 23.4045C38.0979 23.589 37.7033 23.7746 37.5305 24.0828C37.3495 24.4056 37.3799 24.8488 37.4102 25.2898C37.4226 25.4708 37.4351 25.6515 37.4328 25.8233C37.4276 26.2201 37.4287 26.6169 37.43 27.0434V27.0443V27.0444C37.4306 27.2418 37.4312 27.4455 37.4312 27.6585L48.5668 21.2284ZM37.4096 22.4792L48.5651 16.0358C48.3161 15.8923 48.0728 15.7513 47.8336 15.6127L47.8327 15.6122L47.8324 15.612C47.0975 15.1862 46.4009 14.7825 45.6949 14.3959C45.558 14.3209 45.3052 14.3231 45.1692 14.4006C42.6703 15.8257 40.18 17.2654 37.6936 18.7123C37.5716 18.7833 37.4244 18.9451 37.422 19.0671C37.4057 19.9111 37.4072 20.7554 37.4087 21.6554V21.6556C37.4091 21.9247 37.4096 22.1987 37.4096 22.4792ZM10.4184 17.8349C10.4279 17.9297 10.4341 18.0221 10.4402 18.1123C10.4539 18.3165 10.4669 18.5095 10.5154 18.6931C10.5659 18.8844 10.6709 19.1246 10.8262 19.2156C12.7997 20.372 14.7848 21.5089 16.7749 22.6368C16.9279 22.7236 17.1536 22.7621 17.3242 22.7249C18.2958 22.5131 19.2595 22.5476 20.208 22.8106C20.5394 22.9025 20.7921 22.8774 21.0869 22.7039C22.1937 22.0526 23.3067 21.4121 24.4199 20.7716L24.4204 20.7713C24.8475 20.5255 25.2747 20.2797 25.7015 20.0333C25.938 19.8967 26.1738 19.7589 26.4157 19.6175L26.4163 19.6171L26.4168 19.6169C26.536 19.5472 26.6566 19.4767 26.7796 19.405C26.757 19.3854 26.74 19.3697 26.7261 19.3569C26.7033 19.3359 26.6892 19.3229 26.6731 19.3135L25.5452 18.6643C22.855 17.1155 20.1646 15.5666 17.4667 14.0314C17.3396 13.959 17.0897 13.9981 16.9466 14.0763C16.3416 14.4067 15.7454 14.7532 15.1491 15.0997L15.149 15.0998L15.1487 15.0999C14.9625 15.2082 14.7762 15.3164 14.5896 15.4241C13.5796 16.0076 12.5697 16.5914 11.5647 17.1723L10.4184 17.8349ZM40.2173 11.8257C40.2064 11.7176 40.1994 11.6167 40.1929 11.5215C40.1788 11.3164 40.1664 11.1373 40.1202 10.9674C40.0678 10.7757 39.9683 10.5332 39.8139 10.4428C37.8419 9.28666 35.8581 8.15028 33.8698 7.02221C33.7165 6.93534 33.4937 6.8892 33.3247 6.92505C32.3199 7.13822 31.3337 7.0698 30.3409 6.84029C30.1152 6.78808 29.8143 6.82025 29.615 6.93244C28.1451 7.76054 26.6849 8.60586 25.2246 9.45118L25.2245 9.45123L25.2205 9.45359C24.8886 9.64568 24.5568 9.83777 24.2249 10.0297C24.1445 10.0762 24.0676 10.1286 23.9826 10.1867C23.9406 10.2153 23.8967 10.2454 23.8493 10.2767C23.9068 10.311 23.9603 10.343 24.011 10.3733L24.0114 10.3736C24.1195 10.4384 24.2151 10.4957 24.3117 10.5512L25.4088 11.1822L25.4101 11.183C27.6101 12.4485 29.8101 13.714 32.0113 14.9775C32.1433 15.0533 32.2759 15.1449 32.4088 15.2367L32.4088 15.2367C32.7342 15.4614 33.0615 15.6874 33.3868 15.6868C33.7127 15.6861 34.0397 15.4596 34.3647 15.2343L34.3648 15.2343C34.4979 15.142 34.6308 15.05 34.7631 14.9738C36.1254 14.1894 37.4865 13.4031 38.8427 12.6197L38.8459 12.6178L40.2173 11.8257ZM30.9975 22.5932C30.9147 22.637 30.8434 22.6741 30.7798 22.7072L30.7797 22.7072C30.6584 22.7703 30.5652 22.8187 30.4743 22.8712C29.6968 23.3199 28.9191 23.7684 28.1415 24.2168L28.1357 24.2201C25.139 25.9482 22.1424 27.6763 19.1537 29.4182C18.669 29.7007 18.2863 29.7112 17.7934 29.425C14.9237 27.7584 12.0445 26.1083 9.16525 24.4582C8.40527 24.0227 7.6453 23.5871 6.88549 23.1512C6.71976 23.0562 6.55337 22.9394 6.38676 22.8225C5.99437 22.5471 5.60077 22.2708 5.21164 22.2756C4.8071 22.2807 4.40535 22.5574 4.00442 22.8334C3.83375 22.9509 3.66323 23.0684 3.49271 23.1647C3.16817 23.3479 2.84552 23.5345 2.51437 23.726C2.37431 23.807 2.23273 23.8889 2.08885 23.9718C2.12071 23.9998 2.14111 24.0185 2.1551 24.0313L2.15518 24.0314L2.15522 24.0314C2.17441 24.049 2.18148 24.0555 2.18957 24.0601L3.80784 24.99C8.60231 27.7451 13.3968 30.5002 18.1982 33.2432C18.3427 33.3258 18.6128 33.3098 18.7681 33.2301C19.1994 33.0086 19.6181 32.7627 20.0368 32.5168L20.0368 32.5168C20.1857 32.4294 20.3346 32.3419 20.484 32.2556L21.9836 31.3899C24.8601 29.7295 27.7366 28.0691 30.6081 26.3999C30.7693 26.3063 30.9757 26.1098 30.9804 25.9558C31.0046 25.1383 31.002 24.3199 30.9993 23.4549V23.4548C30.9984 23.1731 30.9975 22.8864 30.9975 22.5932ZM31.0171 27.7704C30.9269 27.8197 30.8488 27.8616 30.7788 27.8993L30.7788 27.8993C30.6533 27.9667 30.5536 28.0204 30.4557 28.0769C29.6757 28.5272 28.8955 28.9773 28.1154 29.4274L28.108 29.4317L28.1073 29.432C25.1144 31.1588 22.1214 32.8856 19.1346 34.6228C18.6681 34.8944 18.2755 34.92 17.8103 34.6257C17.3088 34.3086 16.7909 34.0172 16.273 33.7259C16.0595 33.6058 15.846 33.4857 15.6336 33.3637L14.1382 32.505C11.2845 30.8662 8.43082 29.2274 5.57352 27.5952C5.4198 27.5074 5.16761 27.4092 5.04751 27.4745C4.29092 27.8852 3.54636 28.3181 2.79179 28.7569L2.79174 28.7569C2.56301 28.8899 2.33335 29.0234 2.10216 29.157C2.13339 29.1846 2.15741 29.2073 2.17741 29.2262C2.21086 29.2579 2.23304 29.2789 2.25878 29.2937L2.94797 29.6897L2.94978 29.6908C8.03918 32.6151 13.1287 35.5394 18.2251 38.4513C18.3556 38.5259 18.6035 38.5084 18.7435 38.4341C19.2261 38.1773 19.6985 37.9013 20.1709 37.6254L20.171 37.6253C20.3378 37.5279 20.5046 37.4304 20.6719 37.3338L22.254 36.4207L22.2584 36.4182C25.0492 34.8077 27.84 33.1973 30.626 31.5786C30.787 31.485 30.9954 31.2919 30.9999 31.1398C31.0242 30.322 31.0217 29.5034 31.0189 28.6351V28.6346C31.018 28.3524 31.0171 28.0649 31.0171 27.7704ZM30.2944 21.388C30.1056 21.2794 29.9228 21.1762 29.7447 21.0758L29.7447 21.0758C29.3326 20.8433 28.9464 20.6254 28.5722 20.3885C28.2996 20.2156 28.1001 20.2182 27.8164 20.3845C26.6255 21.0823 25.4299 21.7722 24.2343 22.4622L24.2336 22.4625C23.2635 23.0224 22.2933 23.5823 21.3256 24.1463C20.9718 24.3525 20.6478 24.4085 20.2535 24.262C19.286 23.9027 18.3023 23.8622 17.2978 24.1477C17.0711 24.2122 16.7542 24.1899 16.5526 24.0764C14.6002 22.9764 12.6573 21.8598 10.7144 20.7431L10.7114 20.7414C10.2875 20.4978 9.86365 20.2542 9.4397 20.0108C9.0599 19.7927 8.96195 19.4969 9.06385 19.0533C9.13201 18.7562 9.09272 18.3923 8.98159 18.1047C8.71556 17.4162 8.74786 17.2195 9.37313 16.8581C10.423 16.251 11.4733 15.6447 12.5236 15.0385C13.3114 14.5838 14.0991 14.1291 14.8867 13.6741C15.0905 13.5563 15.2929 13.436 15.5145 13.3043L15.5146 13.3043C15.6244 13.239 15.739 13.1709 15.8609 13.0989C15.6832 12.9969 15.5112 12.9005 15.344 12.8069L15.3439 12.8069C14.9611 12.5924 14.6034 12.3921 14.2601 12.1698C13.9814 11.9893 13.7794 12.0192 13.5035 12.1795C10.6928 13.8124 7.87764 15.4375 5.06242 17.0626L5.06238 17.0626C4.18731 17.5678 3.31223 18.0729 2.43728 18.5783C2.36679 18.619 2.29852 18.6636 2.22114 18.7141C2.18232 18.7394 2.1412 18.7662 2.09636 18.7948C2.13298 18.8194 2.16458 18.8413 2.19312 18.8611L2.19327 18.8612L2.19331 18.8613C2.24709 18.8986 2.29 18.9284 2.33511 18.9543C3.43103 19.5839 4.52705 20.2133 5.62306 20.8428C9.80553 23.2448 13.988 25.6468 18.1655 28.0573C18.4317 28.2109 18.6056 28.1517 18.8312 28.0208C21.3276 26.5744 23.8258 25.1311 26.324 23.6878L26.3566 23.669C27.2237 23.168 28.0908 22.667 28.9578 22.1659C29.2399 22.003 29.5213 21.8388 29.8241 21.6622L29.8244 21.662C29.9749 21.5742 30.1307 21.4834 30.2944 21.388ZM20.8802 8.56882L20.8804 8.56893C21.2991 8.8044 21.6887 9.02356 22.0644 9.26438C22.3407 9.44143 22.5414 9.43075 22.8215 9.26688C23.9489 8.60703 25.0801 7.95365 26.2113 7.30028C27.2458 6.70274 28.2804 6.1052 29.3119 5.50274C29.6673 5.29524 29.9906 5.24198 30.3836 5.38844C31.3516 5.74913 32.3353 5.78459 33.3397 5.50181C33.5674 5.43774 33.885 5.4624 34.0876 5.57656C36.0165 6.66491 37.9362 7.76929 39.8559 8.87368C40.3036 9.13124 40.7514 9.3888 41.1992 9.64616C41.5579 9.85234 41.6674 10.1375 41.5872 10.56C41.5289 10.8659 41.503 11.2542 41.6428 11.5059C41.9861 12.1247 41.8041 12.5106 41.1795 12.8639C39.6673 13.7191 38.1638 14.5897 36.6602 15.4604C36.1703 15.7441 35.6803 16.0278 35.1901 16.311C35.1101 16.3571 35.0336 16.4095 34.9442 16.4707C34.8981 16.5023 34.8485 16.5362 34.7932 16.5729C34.9623 16.6703 35.1275 16.7635 35.2892 16.8548C35.6668 17.0678 36.0259 17.2704 36.3733 17.4915C36.6359 17.6585 36.8319 17.6287 37.0879 17.4777C37.9985 16.9401 38.9152 16.4132 39.8319 15.8862C40.1848 15.6834 40.5377 15.4805 40.8903 15.277C42.4163 14.3962 43.9422 13.5152 45.4765 12.6293L48.5358 10.8631C48.489 10.8313 48.4464 10.8013 48.4064 10.773C48.3277 10.7175 48.2585 10.6687 48.1855 10.6267C46.9726 9.92983 45.7596 9.23315 44.5466 8.53646L44.5456 8.53589C40.5228 6.22537 36.4998 3.91482 32.4812 1.59687C32.2248 1.44896 32.0519 1.47585 31.8172 1.61216C29.9771 2.68085 28.1339 3.744 26.2906 4.8072L26.2867 4.80943C25.6655 5.16772 25.0443 5.52601 24.4233 5.88452C23.4896 6.42337 22.5562 6.9628 21.5927 7.51967L21.5876 7.5226L20.3233 8.25324C20.5151 8.36345 20.7004 8.46764 20.8802 8.56882ZM15.4813 11.2972L15.4818 11.2975C15.6115 11.3742 15.7226 11.4399 15.8345 11.5042C16.9605 12.1507 18.0863 12.7974 19.2121 13.4442L19.2134 13.4449L19.214 13.4453C23.3529 15.823 27.4918 18.2008 31.6389 20.5642C32.1663 20.8648 32.3652 21.2165 32.3605 21.8211C32.3448 23.876 32.3547 25.931 32.3645 27.9861V27.9871C32.3677 28.65 32.3708 29.3129 32.3731 29.9758C32.3736 30.0889 32.3803 30.202 32.3883 30.3367L32.3884 30.3368C32.3924 30.4055 32.3969 30.4798 32.401 30.5626C32.7196 30.3785 33.0317 30.1971 33.3394 30.0183L33.3395 30.0183C34.1536 29.5453 34.937 29.0902 35.7277 28.6484C35.997 28.4981 36.08 28.3214 36.0782 28.023C36.0614 25.1072 36.0524 22.1911 36.0602 19.2752C36.0611 18.9414 35.9349 18.778 35.6603 18.6267C34.8345 18.1715 34.0169 17.7011 33.1994 17.2308L33.1989 17.2305L32.7419 16.9677C31.796 16.4244 30.8502 15.8808 29.9045 15.3373L29.9004 15.335L29.8998 15.3346C26.367 13.3043 22.8342 11.274 19.2969 9.25159C19.1423 9.16327 18.8711 9.11106 18.7337 9.1866C17.8623 9.66531 17.0018 10.164 16.1034 10.6848C15.828 10.8443 15.5491 11.006 15.2653 11.1697C15.3439 11.216 15.415 11.258 15.4813 11.2972ZM0 18.5295C0.0737974 18.4739 0.146053 18.4156 0.218316 18.3572L0.218321 18.3572C0.373639 18.2319 0.528991 18.1065 0.699755 18.0078C4.50107 15.811 8.30298 13.6152 12.1049 11.4194L12.1056 11.4189L12.1094 11.4168C18.58 7.6797 25.0505 3.94262 31.5182 0.200526C31.9723 -0.0622113 32.3329 -0.0695938 32.7913 0.195121C36.1695 2.14546 39.5513 4.08947 42.9331 6.03348C45.2861 7.3861 47.6391 8.73871 49.9909 10.0935C50.1505 10.1854 50.2887 10.3142 50.427 10.443L50.427 10.4431C50.4915 10.5032 50.5561 10.5633 50.6228 10.6197V11.1141C50.5455 11.1718 50.4696 11.2319 50.3937 11.292L50.3936 11.2921C50.2283 11.423 50.0631 11.5539 49.8832 11.6603C49.1602 12.0884 48.4321 12.5079 47.6827 12.9395L47.6823 12.9398C47.3947 13.1054 47.1041 13.2728 46.8093 13.4433C47.0618 13.5885 47.31 13.73 47.5548 13.8695L47.555 13.8696C48.1177 14.1903 48.6625 14.5009 49.1998 14.8239C49.5358 15.026 49.8608 15.2465 50.1857 15.4669C50.3311 15.5655 50.4764 15.6641 50.6228 15.7611V16.2555C50.5577 16.3113 50.4945 16.3702 50.4313 16.4291C50.2926 16.5582 50.154 16.6874 49.9956 16.784C49.5432 17.06 49.0829 17.3228 48.6225 17.5856L48.6225 17.5857C48.3992 17.7132 48.1759 17.8407 47.9535 17.9697C47.7075 18.1124 47.4629 18.2577 47.2008 18.4135L47.2006 18.4136C47.0774 18.4868 46.9503 18.5624 46.8173 18.6411C47.1139 18.8118 47.4055 18.979 47.6933 19.144C48.4814 19.5958 49.2403 20.0309 49.9928 20.4772C50.1518 20.5715 50.2906 20.6997 50.4295 20.8279L50.4295 20.828C50.4933 20.8869 50.5571 20.9458 50.6228 21.0014V21.4957C50.5446 21.5545 50.4681 21.616 50.3916 21.6776C50.2274 21.8098 50.0631 21.942 49.8827 22.0462C46.5594 23.967 43.2354 25.8867 39.9115 27.8065C33.0187 31.7874 26.126 35.7683 19.2384 39.7583C18.6813 40.081 18.2568 40.08 17.7022 39.7588C14.1117 37.6809 10.5152 35.6133 6.91876 33.5457L6.91596 33.5441C4.8214 32.3399 2.72683 31.1358 0.633444 29.9296C0.473817 29.8375 0.335086 29.7094 0.196361 29.5813L0.196342 29.5812C0.131602 29.5214 0.0668618 29.4617 0 29.4055V28.9112C0.0776744 28.8534 0.153956 28.7932 0.230238 28.7331C0.395542 28.6027 0.560852 28.4724 0.740358 28.3662C1.46707 27.9361 2.199 27.5148 2.95334 27.0807L2.95346 27.0807L2.9535 27.0806C3.23815 26.9168 3.52598 26.7512 3.81793 26.5825C3.55468 26.4307 3.29576 26.2824 3.04025 26.1361L3.04018 26.1361C2.43009 25.7867 1.83942 25.4485 1.25555 25.0992C0.958942 24.9217 0.673644 24.7254 0.388341 24.529L0.388295 24.5289C0.259214 24.4401 0.130131 24.3512 0 24.2642V23.7698C0.0607285 23.7168 0.119649 23.6609 0.178577 23.605L0.17861 23.6049C0.307971 23.4821 0.437365 23.3593 0.585985 23.2676C1.00194 23.0109 1.42666 22.7681 1.85143 22.5254L1.85153 22.5254C2.02487 22.4263 2.19821 22.3273 2.37097 22.2272C2.6537 22.0636 2.93629 21.8997 3.23343 21.7273L3.81609 21.3893C3.51296 21.2148 3.21567 21.0444 2.92288 20.8766L2.92259 20.8764L2.92253 20.8764C2.13453 20.4247 1.37915 19.9917 0.63028 19.5478C0.471408 19.4536 0.332562 19.3255 0.193724 19.1975L0.193715 19.1975C0.129793 19.1385 0.0658728 19.0796 0 19.0239V18.5295ZM34.0763 9.31705C34.1171 9.35686 34.1701 9.39813 34.2263 9.44182C34.3658 9.55031 34.5246 9.67376 34.5627 9.82723C34.6172 10.0454 34.5153 10.4435 34.3463 10.5526C33.4514 11.1297 32.5237 11.659 31.5855 12.1644C31.2703 12.3341 30.9295 12.2344 30.7342 11.8962C30.5576 11.5895 30.5742 11.2414 30.8721 11.0583C31.5986 10.6117 32.3412 10.1914 33.0836 9.77123L33.0837 9.77118C33.3114 9.64233 33.539 9.51348 33.7662 9.38388C33.7995 9.36491 33.8398 9.35841 33.9091 9.34724C33.952 9.34032 34.006 9.33161 34.0763 9.31705ZM16.7839 20.3635C16.8388 20.4067 16.8904 20.4473 16.9296 20.486C17.0074 20.4707 17.0689 20.4616 17.1189 20.4543C17.2012 20.4422 17.2525 20.4347 17.2943 20.4108C17.5271 20.2772 17.7603 20.1442 17.9935 20.0112C18.8427 19.5268 19.692 19.0424 20.5232 18.5289C20.8146 18.3489 20.8347 17.9906 20.6349 17.6899C20.442 17.3996 20.1441 17.2533 19.8256 17.4286C18.7626 18.0142 17.7032 18.6093 16.6759 19.254C16.5057 19.3607 16.4006 19.7586 16.4522 19.978C16.4882 20.1311 16.6464 20.2554 16.7839 20.3635Z" fill="url(#paint0_linear_0_634)"/>
<defs>
<linearGradient id="paint0_linear_0_634" x1="-13.1902" y1="10.9002" x2="5.65697" y2="54.6653" gradientUnits="userSpaceOnUse">
<stop stop-color="#AC6C44"/>
<stop offset="1" stop-color="#301103"/>
</linearGradient>
</defs>
</svg>
