<svg width="51" height="52" viewBox="0 0 51 52" fill="none" xmlns="http://www.w3.org/2000/svg">
<path fill-rule="evenodd" clip-rule="evenodd" d="M41.5177 4.1694H43.0769V0.991699H41.5177V4.1694ZM50.7942 5.54128L49.8806 4.53327L47.6739 6.73525C47.9898 7.07813 48.3385 7.45654 48.6052 7.74582L50.7942 5.54128ZM47.1014 12.1376C46.8108 12.0936 46.5325 12.0493 46.2624 12.0063C45.6582 11.9102 45.0954 11.8206 44.5297 11.7561C43.9631 11.6914 43.6223 11.4261 43.4021 10.8985C43.1803 10.3666 42.9286 9.84718 42.661 9.2951L42.6609 9.29486L42.6607 9.29445C42.5429 9.0514 42.4221 8.80201 42.2993 8.54243C42.1728 8.81196 42.0501 9.07068 41.9307 9.32224L41.9307 9.3223C41.6584 9.89617 41.4038 10.4327 41.1626 10.9753C40.9676 11.414 40.6856 11.6698 40.1869 11.7309C39.5865 11.8046 38.9891 11.9029 38.3574 12.0069L38.3574 12.0069L38.3572 12.007L38.357 12.007C38.0831 12.0521 37.8027 12.0982 37.5128 12.1439C37.72 12.3573 37.9205 12.5656 38.117 12.7697L38.1177 12.7705C38.58 13.2508 39.02 13.7079 39.4718 14.153C39.8043 14.4807 39.9138 14.8277 39.824 15.2915C39.7039 15.9131 39.6068 16.5392 39.5045 17.1981L39.5045 17.1983C39.4605 17.4823 39.4155 17.7723 39.3673 18.0707C39.6164 17.9329 39.8594 17.8004 40.0975 17.6706C40.6459 17.3716 41.1685 17.0867 41.6805 16.7841C42.1053 16.533 42.4849 16.5258 42.911 16.7742C43.427 17.0751 43.9516 17.3615 44.5007 17.6613L44.5008 17.6614L44.5014 17.6617L44.5014 17.6617L44.5014 17.6617L44.5015 17.6617C44.7395 17.7917 44.9821 17.9241 45.2306 18.0613C45.1849 17.7742 45.1432 17.4937 45.1023 17.2184L45.1018 17.2151L45.1018 17.2147C45.0063 16.5728 44.915 15.9587 44.7881 15.3521C44.6778 14.8236 44.8191 14.4497 45.1933 14.0877C45.6293 13.6662 46.0498 13.2288 46.4962 12.7645L46.4965 12.7641L46.4967 12.7639L46.4967 12.7639L46.4972 12.7634C46.6925 12.5602 46.8927 12.3519 47.1014 12.1376ZM42.2924 5.60444C42.4075 5.71917 42.5193 5.81716 42.6224 5.90744C42.8227 6.08293 42.9898 6.22933 43.0827 6.41311C43.6284 7.49249 44.1306 8.59416 44.6326 9.69523L44.6775 9.79379C44.7937 10.0488 44.938 10.1708 45.228 10.2108C45.8979 10.303 46.5659 10.4083 47.234 10.5136L47.2341 10.5136C47.7143 10.5894 48.1945 10.6651 48.6754 10.7359C49.0668 10.7936 49.4026 10.9128 49.5439 11.3185C49.6957 11.7543 49.4562 12.0553 49.1725 12.3432C48.8967 12.6229 48.6232 12.9049 48.3496 13.1868C47.8245 13.7281 47.2995 14.2693 46.7586 14.7942C46.4796 15.0652 46.4183 15.327 46.4819 15.6898C46.6071 16.4034 46.7224 17.1189 46.8377 17.8343L46.8379 17.8354L46.838 17.8364L46.8382 17.8374L46.8383 17.8384L46.8385 17.8393L46.8387 17.8403L46.8388 17.8413L46.839 17.8423L46.8391 17.8431L46.8392 17.844L46.8394 17.8448L46.8395 17.8457L46.8397 17.8465C46.9194 18.3411 46.999 18.8357 47.0821 19.3297C47.1465 19.7133 47.0992 20.1023 46.7339 20.2423C46.4619 20.3464 46.0585 20.3375 45.8001 20.2074C45.2148 19.9129 44.6416 19.5945 44.0683 19.2762L44.0682 19.2761C43.5959 19.0138 43.1236 18.7515 42.6444 18.5024C42.4631 18.4083 42.1493 18.4076 41.9681 18.5016C40.9863 19.0112 40.0211 19.5531 39.0562 20.0949L39.0562 20.0949L39.0561 20.095L39.0561 20.095L39.056 20.095L39.056 20.095L39.056 20.0951L39.0559 20.0951L39.0559 20.0951L39.0558 20.0952L39.0558 20.0952L39.0557 20.0952L39.0557 20.0952L39.0555 20.0953L38.8663 20.2016C38.5199 20.3961 38.1813 20.4976 37.8284 20.2408C37.4989 20.0009 37.4611 19.6696 37.5252 19.2919C37.6144 18.7662 37.6992 18.2397 37.784 17.7132L37.784 17.7129L37.7841 17.7126L37.7841 17.7123L37.7842 17.712L37.7842 17.7117L37.7843 17.7114L37.7843 17.7111L37.7844 17.7108L37.7844 17.7106L37.7845 17.7103L37.7845 17.71L37.7846 17.7097L37.7846 17.7094C37.8925 17.0397 38.0003 16.37 38.1173 15.7019C38.1799 15.3434 38.137 15.0774 37.8545 14.803C37.291 14.2556 36.7438 13.6915 36.1966 13.1273L36.1963 13.127C35.9216 12.8438 35.6469 12.5606 35.3701 12.2795C35.1066 12.012 34.922 11.7185 35.0541 11.3319C35.1831 10.9543 35.4787 10.8068 35.8645 10.7526C36.4082 10.6762 36.9507 10.592 37.4933 10.5077C38.0828 10.4162 38.6724 10.3246 39.2633 10.2431C39.6146 10.1946 39.8188 10.0539 39.9673 9.7187C40.4585 8.61049 40.9676 7.50917 41.514 6.42756C41.6075 6.24251 41.7715 6.093 41.9683 5.91353C42.0694 5.82136 42.1791 5.72129 42.2924 5.60444ZM20.4063 18.7526C21.7391 18.7696 22.836 17.708 22.8526 16.3849C22.8696 15.0394 21.78 13.9258 20.4382 13.9168C19.1146 13.9078 18.0147 14.9811 17.9937 16.302C17.9719 17.6623 19.0279 18.7349 20.4063 18.7526ZM7.26361 38.0006L7.26547 38.0005L7.26652 38.0004L7.26703 38.0004L7.26766 38.0004C8.42559 37.9291 9.56268 37.8592 10.6985 37.7718C10.849 37.7602 11.0188 37.6024 11.1249 37.469C11.8433 36.5666 12.5545 35.6586 13.2658 34.7505L13.2659 34.7503L13.2661 34.7501L13.2663 34.7499L13.2665 34.7496L13.2666 34.7494L13.2668 34.7492L13.267 34.7489L13.2672 34.7487L13.2674 34.7485L13.2675 34.7483L13.2677 34.748L13.2679 34.7478L13.2682 34.7473C13.5028 34.4479 13.7374 34.1484 13.9722 33.8492C14.1553 33.6158 14.3368 33.381 14.5183 33.1462C15.0179 32.4998 15.5176 31.8533 16.0517 31.2366C16.2352 31.0247 16.6476 30.8628 16.9108 30.9124C17.1434 30.9561 17.362 31.3023 17.4942 31.562C17.5578 31.6867 17.5011 31.8842 17.451 32.0589L17.451 32.059C17.4422 32.0897 17.4336 32.1196 17.4259 32.1483C16.7039 34.849 15.9788 37.5489 15.2537 40.2488L15.2529 40.2518L14.5062 43.033C14.4697 43.1688 14.4358 43.3054 14.4002 43.449C14.3832 43.5174 14.3658 43.5874 14.3476 43.6596C14.5516 43.6753 14.7491 43.6873 14.9417 43.6991C15.373 43.7253 15.7801 43.7501 16.1818 43.8112C16.6374 43.8803 16.7788 43.6979 16.8865 43.2893C17.8021 39.8173 18.723 36.3467 19.6438 32.8761L19.6443 32.8745L19.6457 32.8693L19.6463 32.8669L19.6464 32.8666L19.6464 32.8663L19.6465 32.8661L19.6466 32.8658L19.6467 32.8655L19.6467 32.8652L19.6468 32.8649L19.6469 32.8647L19.647 32.8644L19.647 32.8641L19.6471 32.8638L19.6472 32.8635L19.6473 32.8633C20.4534 29.8252 21.2594 26.7871 22.062 23.7482C22.1894 23.2663 22.443 22.9712 22.8919 22.7525C25.3467 21.5559 27.7948 20.346 30.2431 19.1361L30.2434 19.1359L30.2445 19.1354L30.2449 19.1352L30.2452 19.1351L30.2453 19.135L30.2454 19.1349L30.2456 19.1349L30.2457 19.1348L30.2458 19.1347L30.246 19.1346L30.2461 19.1346C30.9086 18.8072 31.571 18.4798 32.2336 18.1527C32.3531 18.0936 32.4703 18.0298 32.5822 17.9689L32.5824 17.9688L32.5825 17.9688C32.6334 17.941 32.6832 17.9139 32.7317 17.8881C32.5119 17.3262 32.1818 17.3143 31.7042 17.4777C28.9789 18.41 26.2447 19.3172 23.5078 20.2154C23.1636 20.3283 22.7852 20.3878 22.423 20.3863C21.517 20.3825 20.6112 20.3675 19.7053 20.3524H19.7053H19.7053H19.7052H19.7052H19.7051H19.7051H19.705H19.705H19.7049H19.7049H19.7048H19.7048H19.7048C18.9744 20.3402 18.244 20.3281 17.5136 20.3218C17.251 20.3197 16.9727 20.3601 16.7273 20.4506C14.9941 21.0894 13.2647 21.7384 11.5353 22.3875L11.5345 22.3878L10.3372 22.837C9.53214 23.1388 8.72746 23.4416 7.91012 23.7491L7.90314 23.7517L6.80945 24.1632L7.05348 25.0826C7.11793 25.0718 7.17741 25.0627 7.23346 25.0541L7.2342 25.054L7.23447 25.054C7.34492 25.0371 7.44209 25.0222 7.53777 25.0009C8.61349 24.7609 9.68907 24.5202 10.7646 24.2795L10.7669 24.279L10.7693 24.2785L10.7708 24.2781L10.7724 24.2778L10.7739 24.2774L10.7755 24.2771C11.9817 24.0072 13.1878 23.7373 14.3942 23.4684C15.3633 23.2524 15.8142 23.6921 15.5845 24.6311C15.523 24.8828 15.4617 25.1345 15.4004 25.3863L15.4001 25.3875L15.4001 25.3875C15.1268 26.5104 14.8535 27.6333 14.5569 28.75C14.4604 29.1139 14.3012 29.4852 14.0816 29.7885C13.4495 30.6612 12.8088 31.5277 12.1681 32.3942C11.4551 33.3586 10.742 34.323 10.0408 35.2959C9.71246 35.7513 9.32474 35.9536 8.7817 36.0024C8.13817 36.0603 7.49689 36.1434 6.84048 36.2285C6.56032 36.2648 6.27741 36.3015 5.99038 36.3368L6.19617 37.5987L6.27169 38.062C6.60358 38.0412 6.93335 38.0209 7.26145 38.0007L7.26191 38.0007L7.26239 38.0007L7.26361 38.0006ZM17.0707 18.6772C15.9971 16.2616 16.2683 14.4883 17.8949 13.1867C19.3479 12.024 21.3831 11.9978 22.8709 13.1228C24.4382 14.3079 24.8558 16.2049 23.9733 18.3222C24.03 18.3083 24.0826 18.2964 24.1324 18.2852L24.1333 18.285L24.1333 18.2849C24.2334 18.2624 24.3217 18.2425 24.4073 18.214C26.0837 17.656 27.7599 17.0969 29.436 16.5377L29.4507 16.5328L29.4508 16.5328L29.4508 16.5328L29.4508 16.5328L29.4508 16.5328L29.4509 16.5328L29.4509 16.5328L29.4509 16.5328L29.4509 16.5327C30.3108 16.2459 31.1707 15.9591 32.0306 15.6724C32.7337 15.4381 32.9225 15.4918 33.3884 16.0558C33.6129 16.3274 33.8369 16.5995 34.0608 16.8716L34.4186 17.3061C35.1337 18.1739 35.0445 18.574 34.0196 19.0794C33.3073 19.4307 32.5951 19.7824 31.8829 20.134L31.8739 20.1384L31.8693 20.1407L31.8646 20.143L31.86 20.1453C29.3308 21.3942 26.8018 22.643 24.2649 23.8758C23.8002 24.1015 23.5689 24.3868 23.435 24.8957C22.064 30.1105 20.6751 35.3206 19.2862 40.5308C18.9261 41.8818 18.5659 43.2328 18.2061 44.5839C17.9851 45.4128 17.7689 45.5657 16.9138 45.4964C16.5612 45.4678 16.2086 45.4386 15.8561 45.4093L15.8505 45.4088L15.8501 45.4088L15.8497 45.4087L15.8493 45.4087L15.8489 45.4087L15.8485 45.4086L15.8481 45.4086L15.8477 45.4086L15.8473 45.4085L15.8469 45.4085L15.8465 45.4085L15.8461 45.4084L15.8457 45.4084L15.8453 45.4084C15.0749 45.3444 14.3046 45.2804 13.5337 45.2234C12.6344 45.1568 12.3591 44.7927 12.5898 43.9292C13.0802 42.0934 13.5719 40.2578 14.0636 38.4223L14.064 38.4206L14.0645 38.419L14.0649 38.4173L14.0653 38.4157L14.0658 38.4141L14.0662 38.4124L14.0667 38.4108L14.0671 38.4091L14.0675 38.4075L14.068 38.4058L14.0684 38.4042L14.0689 38.4025L14.0693 38.4009C14.3081 37.5094 14.5469 36.6179 14.7856 35.7263C14.8062 35.6488 14.8228 35.5702 14.7764 35.4565C14.5334 35.7659 14.2894 36.0746 14.0454 36.3833L14.0453 36.3835L14.0451 36.3837L14.045 36.3839L14.0448 36.3841L14.0447 36.3843L14.0445 36.3844L14.0444 36.3846L14.0442 36.3848L14.0441 36.385L14.044 36.3852L14.0438 36.3854L14.0432 36.3861L14.0422 36.3874C13.4214 37.1729 12.8005 37.9584 12.1955 38.7557C11.8976 39.1483 11.5665 39.3577 11.0605 39.3848C9.98054 39.443 8.90148 39.5173 7.82239 39.5917C7.15081 39.638 6.47922 39.6842 5.80739 39.7266C5.19103 39.7655 4.8896 39.5371 4.77778 38.9321C4.58506 37.8878 4.40545 36.8408 4.24271 35.7914C4.15358 35.2162 4.49944 34.8689 5.17644 34.7899C5.41314 34.7623 5.64995 34.7354 5.88677 34.7085C6.68902 34.6175 7.49131 34.5265 8.28918 34.4068C8.52133 34.3719 8.79426 34.2142 8.93512 34.0275C10.1954 32.3581 11.4362 30.6736 12.666 28.9813C12.8379 28.7447 12.9576 28.4525 13.0347 28.1679C13.2142 27.5051 13.3779 26.838 13.5496 26.1381L13.5497 26.1376L13.5501 26.1362L13.5504 26.1348C13.6182 25.8584 13.6873 25.5769 13.7591 25.2885C13.4979 25.3449 13.2426 25.3996 12.9914 25.4534L12.986 25.4545L12.9851 25.4547L12.9836 25.4551L12.974 25.4571L12.9735 25.4572L12.973 25.4573C12.4421 25.5711 11.9292 25.6809 11.4169 25.794C10.5568 25.9839 9.69712 26.1752 8.83743 26.3665L8.83166 26.3678L8.83165 26.3678L8.83164 26.3678L8.83162 26.3678L8.83161 26.3678L8.83159 26.3678L8.83158 26.3678L8.83156 26.3678L8.83155 26.3678L8.83154 26.3679L8.83152 26.3679L8.83151 26.3679L8.83149 26.3679C8.16345 26.5165 7.49543 26.6651 6.82728 26.8131C6.1361 26.9661 5.80874 26.7729 5.63048 26.0976C5.44559 25.3971 5.26652 24.6949 5.0919 23.9918C4.94794 23.4124 5.10703 23.0651 5.64452 22.8631C9.20873 21.5235 12.7752 20.1902 16.3432 18.8609C16.5006 18.8022 16.6666 18.7665 16.8342 18.7306L16.8342 18.7306L16.8343 18.7306C16.913 18.7137 16.9921 18.6967 17.0707 18.6772ZM1.69117 49.5604L1.88766 51.0817C5.4882 50.8752 9.11791 47.7934 9.79761 44.072C9.31373 43.9548 8.82769 43.8369 8.31734 43.7131C7.30096 47.016 5.12654 48.9983 1.69117 49.5604ZM1.07092 47.1383L0.890625 45.582C2.98132 45.2481 4.34734 44.0651 5.07619 42.0555L5.20213 42.0924L5.21261 42.0955C5.6646 42.228 6.11012 42.3586 6.55363 42.4884C6.04611 44.8494 3.63077 46.9658 1.07092 47.1383ZM34.3871 4.51037C34.074 4.8484 33.732 5.21722 33.403 5.57199L35.527 7.69347L36.6437 6.76231L36.2132 6.3328L34.3871 4.51037ZM37.4478 40.6625L37.4478 40.6485H39.0528V40.6625H39.0677V42.2685H39.0538L39.0537 42.2685V42.2833H37.4469V42.2685H37.4469H37.4328V40.6625H37.4477L37.4478 40.6625L37.4478 40.6625ZM37.4328 40.6625H35.8548V42.2685H37.4328V42.2833H37.4329H37.4469V43.8613H39.0537V42.2833H39.0676H39.0677H39.0678L39.0677 42.2832V42.2685H40.6454V40.6625H39.0677V40.6485H39.0528V39.0706H37.4478V40.6485H37.4329L37.4432 40.6582L37.4328 40.6486V40.6625ZM47.1713 47.1448V47.1308H48.7764V47.1449H48.7912V48.7509H48.7773L48.7772 48.7508V48.7657H47.1704V48.7508H47.1704H47.1563V47.1448H47.1712H47.1713ZM47.1563 47.1448H45.5783V48.7508H47.1563V48.7657H47.1564H47.1704V50.3436H48.7772V48.7657H48.7911L48.7912 48.7657V48.7657H48.7913L48.7912 48.7656V48.7509H50.369V47.1449H48.7912L48.7912 47.1308H48.7764V45.5529H47.1713V47.1308H47.1564L47.1665 47.1403L47.1563 47.1309V47.1448Z" fill="url(#paint0_linear_0_646)"/>
<defs>
<linearGradient id="paint0_linear_0_646" x1="-12.1122" y1="14.6415" x2="15.2425" y2="64.6458" gradientUnits="userSpaceOnUse">
<stop stop-color="#AC6C44"/>
<stop offset="1" stop-color="#301103"/>
</linearGradient>
</defs>
</svg>
