<svg width="31" height="31" viewBox="0 0 31 31" fill="none" xmlns="http://www.w3.org/2000/svg">
<path fill-rule="evenodd" clip-rule="evenodd" d="M5.67499 4.15637H5.675H5.67501H5.67502H5.67503C5.81548 4.15733 5.95708 4.15829 6.10029 4.15829C5.90276 5.12454 5.13376 5.88423 4.23528 6.015C4.23528 5.87493 4.23402 5.73508 4.23276 5.59541L4.23275 5.59534C4.22975 5.26275 4.22676 4.93123 4.24084 4.60034C4.25205 4.33679 4.42958 4.17111 4.6946 4.16249C5.01899 4.1519 5.34379 4.15411 5.67498 4.15637H5.67499ZM14.1095 24.031L14.1095 24.031C14.0738 23.9993 14.0384 23.968 14.0032 23.9378C14.0224 23.895 14.0385 23.8581 14.0529 23.8253L14.0532 23.8247L14.0533 23.8246L14.0533 23.8246C14.0798 23.7642 14.1003 23.7174 14.1231 23.6717C14.3344 23.2482 14.5463 22.8251 14.752 22.4141L14.7527 22.4127L14.9707 21.9772L16.403 23.4088L16.0426 23.589L16.0425 23.5891L16.0419 23.5894L16.0412 23.5897L16.0402 23.5902C15.5737 23.8237 15.0842 24.0688 14.5914 24.3069C14.5412 24.3312 14.4413 24.3011 14.3889 24.2629C14.2904 24.1913 14.1989 24.1102 14.1096 24.0311L14.1096 24.0311L14.1095 24.031L14.1095 24.031ZM28.307 11.803C28.1926 11.9148 28.0783 12.0264 27.9653 12.1391L26.2294 10.4035C26.3533 10.285 26.4767 10.1611 26.6014 10.0357L26.6015 10.0357C26.8899 9.74589 27.1859 9.44849 27.5144 9.19284C27.9938 8.81956 28.6956 8.96057 29.0924 9.42777C29.4905 9.89674 29.4946 10.5703 29.0727 11.0283C28.8267 11.2952 28.5667 11.5493 28.307 11.803L28.307 11.803L28.307 11.803ZM27.1678 12.8388L21.1223 18.8849L20.6957 18.4759L26.7457 12.4253L27.1678 12.8388ZM19.5413 17.2334L25.5637 11.2115L25.9904 11.6095L19.915 17.6814L19.5413 17.2334ZM20.353 19.6407L17.2697 22.7264L15.6395 21.0955L18.7215 18.0118L20.353 19.6407ZM3.87222 1.25666C4.94623 1.30141 5.88664 2.10238 6.09892 3.18842L5.69245 3.18825C5.40461 3.18806 5.12315 3.18787 4.84174 3.18858C3.85876 3.19108 3.26463 3.78607 3.26455 4.77319C3.264 10.4263 3.26406 16.0794 3.26411 21.7325V21.739L3.26415 26.9595V27.3594H1.32915V27.073L1.32903 21.1227V21.1221C1.32884 15.3374 1.32866 9.55277 1.33004 3.76809C1.33044 2.29022 2.44266 1.19716 3.87222 1.25666ZM6.15818 6.09078C7.46165 4.47755 7.46511 2.89004 6.15665 1.25352H6.45754L10.9024 1.25326C14.9431 1.25291 18.9838 1.25257 23.0245 1.25481C24.4576 1.25561 25.5403 2.339 25.5149 3.72939C25.4921 4.97128 24.4827 6.01806 23.2417 6.08594C23.1713 6.08981 23.1007 6.09054 23.0302 6.09054L6.40272 6.09078H6.15818ZM13.117 23.5215C12.8663 24.0232 12.868 24.0447 13.2138 24.5115L12.1512 25.5452L12.8393 26.1853L13.8846 25.1136C14.2211 25.5967 14.5584 25.4219 14.9041 25.2427L14.9696 25.2089C15.2979 25.0413 15.6278 24.8771 15.9578 24.7128L15.9579 24.7127L15.9583 24.7126C16.3938 24.4958 16.8292 24.279 17.2607 24.0545C17.4708 23.9453 17.6738 23.8015 17.8417 23.6349C18.9559 22.5298 20.0653 21.4199 21.1747 20.31C21.5614 19.9232 21.948 19.5363 22.3349 19.1497C22.384 19.1006 22.4352 19.0535 22.4948 18.9986L22.4949 18.9985L22.4951 18.9983L22.4953 18.9981L22.4954 18.998C22.5269 18.9691 22.5607 18.938 22.5978 18.9032V29.2891H4.24866V7.0825H22.5971C22.5988 7.10651 22.6009 7.13132 22.6031 7.15669C22.6081 7.21393 22.6133 7.27401 22.6133 7.33412L22.6139 8.10832C22.6152 9.54321 22.6164 10.9781 22.6067 12.4129C22.6058 12.5531 22.5342 12.7259 22.4368 12.8271C22.1231 13.1531 21.8031 13.4729 21.483 13.7927C21.2114 14.0641 20.9398 14.3355 20.6721 14.6107C20.5328 14.7539 20.3904 14.8016 20.1961 14.8013C16.3713 14.7975 12.5464 14.7977 8.72157 14.7978L6.56123 14.7979H6.18535V15.7591H19.5175C19.4219 15.8541 19.3311 15.9454 19.2434 16.0337L19.2433 16.0338L19.2432 16.0339L19.2432 16.034C19.0085 16.2701 18.7959 16.4841 18.5721 16.6857C18.5165 16.7357 18.4064 16.7336 18.3088 16.7317C18.2907 16.7313 18.2731 16.731 18.2563 16.731C14.815 16.7328 11.3736 16.7328 7.93222 16.7328L6.55623 16.7328H6.18358V17.6874H17.5629C17.5217 17.7327 17.4867 17.7719 17.4555 17.807L17.4554 17.807C17.3972 17.8723 17.352 17.9229 17.3042 17.9709C17.0494 18.2261 16.7942 18.4809 16.539 18.7357C15.9314 19.3425 15.3238 19.9493 14.7214 20.5612C14.5691 20.7159 14.4351 20.9004 14.3356 21.0933C14.0303 21.685 13.734 22.2813 13.4376 22.8775C13.3309 23.0923 13.2241 23.307 13.117 23.5215ZM23.5916 11.671V7.02542C23.642 7.01382 23.6898 7.00323 23.7357 6.99305L23.7357 6.99304C23.8286 6.97246 23.9139 6.95353 23.9983 6.93126C25.3891 6.56387 26.4337 5.25144 26.4803 3.81493C26.5428 1.88518 25.0526 0.294934 23.1204 0.291306C17.1152 0.280005 11.1101 0.284892 5.10497 0.289778L3.71323 0.290903C3.46426 0.291145 3.20957 0.326779 2.96721 0.385552C1.39035 0.767696 0.363184 2.09947 0.3627 3.76664C0.361026 9.67533 0.361258 15.584 0.36149 21.4927L0.361652 27.6762L0.361486 27.7116C0.361286 27.7401 0.361085 27.7686 0.362055 27.797C0.374149 28.1546 0.548298 28.3371 0.905386 28.3403C1.34462 28.3441 1.78392 28.3436 2.22325 28.343H2.22504C2.47033 28.3427 2.71562 28.3424 2.96092 28.3428C3.02561 28.3429 3.09027 28.3467 3.15909 28.3508C3.19293 28.3528 3.22779 28.3548 3.26415 28.3565L3.26408 28.7353V28.7357C3.264 29.0276 3.26392 29.3096 3.26431 29.5917C3.26496 30.13 3.40871 30.2769 3.93955 30.2769C10.2575 30.2772 16.5753 30.2772 22.8932 30.2769C23.4418 30.2769 23.5815 30.1339 23.5816 29.5739L23.5817 27.9095C23.582 24.6657 23.5822 21.4219 23.5777 18.1781C23.5774 17.9817 23.6336 17.8435 23.7734 17.7044C24.9308 16.5539 26.0848 15.3999 27.2388 14.2458L27.2392 14.2454C27.6525 13.8321 28.0658 13.4187 28.4793 13.0056C28.5242 12.9607 28.5715 12.9181 28.6296 12.8658L28.6298 12.8656C28.6604 12.838 28.694 12.8078 28.7318 12.7731C28.7259 12.8177 28.7218 12.8553 28.7183 12.8883V12.8883C28.7119 12.9474 28.7071 12.9915 28.6962 13.034C28.469 13.913 28.1151 14.7446 27.5085 15.4183C26.9304 16.0604 26.3221 16.6751 25.7138 17.2898C25.4504 17.5559 25.1871 17.822 24.9262 18.0903C24.8746 18.1434 24.824 18.1974 24.7788 18.2457L24.7788 18.2457L24.7788 18.2457L24.7787 18.2457L24.7234 18.3046L25.3757 18.9928C25.4009 18.9698 25.4251 18.9481 25.4487 18.9271C25.4964 18.8844 25.5411 18.8446 25.5833 18.8024C25.9211 18.4652 26.2585 18.1277 26.5959 17.7902L26.5988 17.7873C26.9372 17.4488 27.2756 17.1103 27.6143 16.7722C28.9757 15.4132 29.7151 13.7724 29.8591 11.8559C29.8711 11.6954 29.9293 11.5245 30.0118 11.3856C30.3493 10.8175 30.4497 10.2229 30.2571 9.5878C29.7749 7.99674 27.8153 7.50092 26.6064 8.67573C25.971 9.29319 25.3465 9.92174 24.7219 10.5503L24.7218 10.5504L24.7217 10.5505L24.7216 10.5505L24.7216 10.5506L24.7212 10.551L24.7208 10.5514L24.7204 10.5517L24.7201 10.5521C24.429 10.845 24.138 11.1379 23.8458 11.4297C23.798 11.4775 23.7487 11.5237 23.6899 11.5787C23.6599 11.6067 23.6275 11.637 23.5916 11.671ZM20.6548 9.94001H6.18085V9.00835H20.6548V9.94001ZM6.18166 11.8757H20.6556V10.9425H6.18166V11.8757ZM20.6551 13.8101H6.19206V12.8684H20.6551V13.8101ZM6.19206 27.3545H20.6551V26.4127H6.19206V27.3545ZM11.4702 25.4255H6.1898V24.4919H11.4702V25.4255Z" fill="url(#paint0_linear_0_10995)"/>
<defs>
<linearGradient id="paint0_linear_0_10995" x1="-7.45357" y1="8.45759" x2="8.89277" y2="38.4503" gradientUnits="userSpaceOnUse">
<stop stop-color="#AC6C44"/>
<stop offset="1" stop-color="#301103"/>
</linearGradient>
</defs>
</svg>
