<svg width="38" height="39" viewBox="0 0 38 39" fill="none" xmlns="http://www.w3.org/2000/svg">
<path fill-rule="evenodd" clip-rule="evenodd" d="M26.8791 3.60314C24.4986 2.44705 21.8856 1.84989 19.2392 1.85721C9.57984 1.85648 1.70816 9.71389 1.69135 19.3721C1.69002 19.6943 1.42868 19.955 1.10642 19.9555H1.10569C0.950487 19.9555 0.801661 19.8938 0.692056 19.7839C0.582452 19.674 0.52108 19.525 0.521488 19.3699C0.523501 18.1047 0.652837 16.843 0.907541 15.6038C1.15594 14.4016 1.52257 13.2268 2.00209 12.0966C5.5616 3.72318 14.6213 -0.884161 23.4851 1.17142C24.8336 1.48419 26.1429 1.94669 27.3887 2.55032C27.6794 2.69093 27.8011 3.04042 27.6607 3.33116C27.5623 3.53278 27.3579 3.66094 27.1335 3.66163C27.0454 3.66166 26.9584 3.64166 26.8791 3.60314ZM29.2855 4.80094C29.1337 4.83248 28.9756 4.80242 28.8459 4.71737C28.648 4.58771 28.5476 4.35154 28.5918 4.11905C28.6359 3.88656 28.8157 3.70356 29.0474 3.65542C29.2791 3.60729 29.517 3.7035 29.6501 3.89917C29.7832 4.09485 29.7852 4.35143 29.6553 4.54922C29.5703 4.67885 29.4373 4.76941 29.2855 4.80094ZM13.0112 18.2384C12.9886 18.2357 12.9659 18.2344 12.9431 18.2344C11.9923 18.2356 11.0546 18.4569 10.2037 18.8811C9.91745 19.027 9.8025 19.3765 9.94619 19.6638C10.0899 19.9511 10.4384 20.0688 10.7269 19.9273C11.4051 19.5893 12.1514 19.4104 12.9092 19.4042C13.8019 19.5134 15.3732 19.8749 15.9009 20.4026C16.1294 20.6311 16.4997 20.6311 16.7282 20.4026C16.9566 20.1742 16.9566 19.8039 16.7282 19.5754C15.7357 18.5832 13.2871 18.271 13.0112 18.2384ZM29.3658 30.8618C29.2378 30.7741 29.0803 30.7408 28.9278 30.7692C28.7753 30.7977 28.6403 30.8855 28.5526 31.0135C27.4834 32.5718 25.7496 34.1488 23.3988 35.701C20.8769 37.3704 17.6013 37.3704 15.0795 35.701C12.174 33.7822 8.71049 30.8177 8.71049 27.5884V19.9891C8.71049 19.6661 8.44861 19.4042 8.12556 19.4042C7.80251 19.4042 7.54063 19.6661 7.54063 19.9891V27.5884C7.54063 31.3379 11.2897 34.5999 14.4348 36.6767C17.3475 38.6048 21.1308 38.6048 24.0435 36.6767C26.5208 35.0413 28.3623 33.3585 29.517 31.6749C29.6997 31.4086 29.632 31.0446 29.3658 30.8618ZM10.0517 23.9121C10.1614 24.0218 10.3101 24.0834 10.4653 24.0834C10.6204 24.0834 10.7692 24.0218 10.8789 23.9121L11.675 23.1161C11.9261 23.2968 12.1924 23.4555 12.4708 23.5905L11.8064 24.2547C11.6587 24.4025 11.601 24.6179 11.655 24.8197C11.7091 25.0216 11.8668 25.1792 12.0687 25.2333C12.2705 25.2874 12.4859 25.2297 12.6337 25.0819L13.7128 24.0028C13.992 24.056 14.2756 24.083 14.5598 24.0834C15.9323 24.0834 16.6509 23.4046 16.7282 23.3272L15.9009 22.5L15.9077 22.4934C15.8893 22.5106 15.4481 22.9136 14.5598 22.9136C13.0821 22.9136 12.0571 21.9234 12.0487 21.9151C11.9391 21.8054 11.7903 21.7438 11.6351 21.7438C11.48 21.7438 11.3312 21.8054 11.2215 21.9151L10.0517 23.0849C9.94196 23.1946 9.88033 23.3434 9.88033 23.4985C9.88033 23.6537 9.94196 23.8024 10.0517 23.9121ZM15.7296 31.6871C15.7296 32.8178 16.6824 34.6116 19.2392 34.6116C21.796 34.6116 22.7488 32.8178 22.7488 31.6871C22.7488 31.5043 22.6633 31.332 22.5177 31.2214C22.0076 30.8339 20.7448 29.9324 20.0368 29.9324C19.7419 29.9412 19.4594 30.0537 19.2392 30.2502C19.019 30.0537 18.7366 29.9412 18.4416 29.9324C17.7336 29.9324 16.4708 30.8338 15.9607 31.2214C15.8151 31.332 15.7296 31.5043 15.7296 31.6871ZM18.4261 31.1041C18.4961 31.1375 18.6162 31.2596 18.7826 31.4678C18.8936 31.6064 19.0616 31.6871 19.2392 31.6871C19.4168 31.6871 19.5848 31.6064 19.6958 31.4678C19.8614 31.2609 19.981 31.1388 20.051 31.1048C20.2796 31.1438 20.9198 31.5119 21.5375 31.9524C21.4189 32.4429 20.9651 33.4418 19.2392 33.4418C17.5133 33.4418 17.0595 32.4429 16.9409 31.9524C17.5631 31.5086 18.2074 31.1388 18.4261 31.1041ZM1.10642 21.126C0.78337 21.126 0.521488 21.3879 0.521488 21.7109V37.5361C0.521488 37.8592 0.78337 38.121 1.10642 38.121C1.42946 38.121 1.69135 37.8592 1.69135 37.5361V21.7109C1.69135 21.3879 1.42946 21.126 1.10642 21.126ZM37.4978 15.2668C36.9062 12.6489 35.7562 10.1896 34.1264 8.05715C33.3257 7.00847 32.417 6.04687 31.4152 5.18822C31.1697 4.97855 30.8009 5.007 30.5905 5.25183C30.3803 5.49713 30.4088 5.86636 30.6541 6.07654C34.5475 9.40979 36.7881 14.279 36.7871 19.4042V37.5361C36.7871 37.8592 37.0489 38.121 37.372 38.121C37.695 38.121 37.9569 37.8592 37.9569 37.5361V19.4042C37.9575 18.0123 37.8035 16.6247 37.4978 15.2668ZM21.5789 16.4797C21.5789 16.8027 21.317 17.0646 20.994 17.0646C20.6709 17.0646 20.4091 16.8027 20.4091 16.4797V11.8005C20.4091 11.4775 20.6709 11.2156 20.994 11.2156C21.317 11.2156 21.5789 11.4775 21.5789 11.8005V16.4797ZM34.8647 34.0267C34.898 34.0267 34.9312 34.0239 34.9641 34.0183C35.117 33.9922 35.2533 33.9063 35.3429 33.7797C35.4325 33.6531 35.4682 33.496 35.442 33.3431C35.2598 32.2779 34.9364 31.2418 34.4804 30.2621C34.3954 30.0675 34.2116 29.9343 34.0003 29.914C33.789 29.8937 33.5832 29.9895 33.4627 30.1644C33.3423 30.3392 33.326 30.5656 33.4202 30.7558C33.8324 31.6413 34.1247 32.5777 34.2893 33.5404C34.3372 33.8209 34.5801 34.0262 34.8647 34.0267ZM21.7042 18.6946C22.1958 21.0876 24.0137 22.9882 26.3826 23.5858C29.1231 24.2719 31.5413 25.886 33.226 28.1536C33.352 28.3214 33.3784 28.5439 33.2952 28.7365C33.212 28.9292 33.032 29.0625 32.8234 29.0859C32.6149 29.1093 32.4098 29.0192 32.286 28.8498C30.7628 26.7997 28.5765 25.3405 26.0989 24.7204C23.2928 24.0121 21.1396 21.7605 20.5575 18.9258C20.5145 18.7202 20.5849 18.5074 20.7421 18.3682C20.8993 18.2289 21.1191 18.1846 21.318 18.2521C21.5168 18.3195 21.6643 18.4884 21.7042 18.6946ZM13.3899 11.8005C13.3899 12.1235 13.6518 12.3854 13.9748 12.3854C14.2979 12.3854 14.5598 12.1235 14.5598 11.8005C14.5616 10.1861 15.8699 8.87783 17.4844 8.87601C17.8075 8.87601 18.0693 8.61415 18.0693 8.29111C18.0693 7.96808 17.8075 7.70621 17.4844 7.70621C15.2242 7.70879 13.3925 9.54036 13.3899 11.8005ZM19.2392 17.4335C19.2347 21.4186 21.9479 24.8934 25.8153 25.8556C30.2038 26.9474 33.2826 30.8905 33.2775 35.4126V37.5361C33.2775 37.8592 33.0156 38.121 32.6926 38.121C32.3695 38.121 32.1076 37.8592 32.1076 37.5361V35.4126C32.1121 31.4275 29.399 27.9526 25.5316 26.9904C21.143 25.8986 18.0642 21.9556 18.0693 17.4335V11.8005C18.0693 11.4775 17.8075 11.2156 17.4844 11.2156C17.1614 11.2156 16.8995 11.4775 16.8995 11.8005V12.9703C16.8995 13.7705 16.4823 14.354 15.6596 14.7046C15.0412 14.9682 14.2535 15.0861 13.3414 15.2226L13.3411 15.2227C10.2356 15.6875 6.37077 16.2661 6.37077 22.9136V27.5563C6.3694 30.7481 5.53645 33.8845 3.954 36.6565C3.79349 36.9365 3.43655 37.0336 3.15634 36.8735C2.87612 36.7134 2.77854 36.3566 2.93827 36.0761C4.41982 33.4809 5.19965 30.5445 5.20092 27.5563V22.9136C5.20092 19.5518 6.11721 17.2265 8.00221 15.8047C9.59973 14.5999 11.578 14.3037 13.1678 14.0658C14.9882 13.7933 15.7296 13.6179 15.7296 12.9703V11.8005C15.7296 10.8314 16.5153 10.0458 17.4844 10.0458C18.4536 10.0458 19.2392 10.8314 19.2392 11.8005V17.4335ZM35.6172 36.3663C35.6172 36.6894 35.3553 36.9512 35.0323 36.9512C34.7092 36.9512 34.4473 36.6894 34.4473 36.3663C34.4473 36.0433 34.7092 35.7814 35.0323 35.7814C35.3553 35.7814 35.6172 36.0433 35.6172 36.3663ZM19.8241 8.87601C20.1472 8.87601 20.4091 8.61415 20.4091 8.29111C20.4091 7.96808 20.1472 7.70621 19.8241 7.70621C19.5011 7.70621 19.2392 7.96808 19.2392 8.29111C19.2392 8.61415 19.5011 8.87601 19.8241 8.87601Z" fill="url(#paint0_linear_0_11002)"/>
<defs>
<linearGradient id="paint0_linear_0_11002" x1="-9.23266" y1="10.8867" x2="11.1724" y2="48.3236" gradientUnits="userSpaceOnUse">
<stop stop-color="#AC6C44"/>
<stop offset="1" stop-color="#301103"/>
</linearGradient>
</defs>
</svg>
