<svg width="43" height="37" viewBox="0 0 43 37" fill="none" xmlns="http://www.w3.org/2000/svg">
<path fill-rule="evenodd" clip-rule="evenodd" d="M6.99725 19.9018L6.99726 21.9306V21.9368C6.99728 25.6601 6.99731 29.3835 6.99648 33.1068C6.99648 33.1357 6.99667 33.1647 6.99686 33.1937L6.99687 33.1938C6.99784 33.3396 6.99881 33.4864 6.97536 33.6288C6.91771 33.9789 6.69321 34.1749 6.33283 34.1908C5.97343 34.2068 5.73022 34.0328 5.63745 33.6906C5.59959 33.5506 5.5962 33.3988 5.59598 33.2523L5.58936 28.2094L5.58936 28.2083C5.57979 21.0325 5.57022 13.8567 5.56863 6.68099C5.56797 3.56135 7.98343 1.11504 11.1601 0.972661C13.1417 0.883863 14.8046 1.52864 16.1115 3.01052C16.2094 3.12143 16.3105 3.23783 16.3732 3.36872C16.5248 3.68568 16.4585 3.97484 16.1854 4.20076C15.9226 4.41819 15.5441 4.40509 15.2866 4.16855C15.1906 4.08048 15.1065 3.98004 15.0224 3.87961L15.0224 3.87959C14.9846 3.83455 14.9469 3.78951 14.9081 3.7456C13.0231 1.61164 8.72935 1.78334 7.3666 4.90868C7.10643 5.50546 6.98554 6.20458 6.98051 6.85773C6.95556 10.1406 6.95849 13.4237 6.96143 16.7068C6.96238 17.7718 6.96333 18.8368 6.96333 19.9018H6.99725ZM42.4921 34.3408C42.4694 34.4081 42.4481 34.4761 42.4268 34.544L42.4267 34.5441L42.4267 34.5442L42.4267 34.5442C42.3803 34.6922 42.3339 34.8402 42.2726 34.9821C41.7705 36.1454 40.8872 36.8536 39.5947 36.923C38.6147 36.9755 37.6309 36.9647 36.6478 36.954C36.3998 36.9513 36.1519 36.9486 35.9041 36.9469C35.3759 36.9434 35.1399 36.6759 35.1369 36.1131C35.1321 35.2263 35.133 34.3395 35.1338 33.4527C35.1342 33.0914 35.1346 32.7302 35.1345 32.3689V31.8897H34.5656L32.3236 31.8897C28.4083 31.8898 24.493 31.8899 20.5776 31.8883L20.5292 31.8884C20.354 31.8886 20.1752 31.8888 20.0071 31.8511C19.6544 31.7717 19.4766 31.5256 19.4867 31.1765C19.4962 30.8462 19.6765 30.6184 20.0128 30.5462C20.1709 30.5122 20.3384 30.5118 20.5017 30.5118C25.5062 30.5101 30.5107 30.5101 35.5153 30.5107C36.3444 30.5108 36.5314 30.6895 36.5351 31.5033C36.539 32.3376 36.5386 33.1718 36.5382 34.0061V34.0084C36.538 34.3677 36.5378 34.727 36.538 35.0863V35.534C36.8712 35.534 37.201 35.5397 37.5281 35.5454C38.2843 35.5585 39.0259 35.5713 39.7615 35.5127C40.5062 35.4535 41.0803 34.6992 41.0864 33.9321C41.1028 31.9059 41.1077 29.8792 41.084 27.8532C41.0733 26.9432 40.3237 26.2539 39.3857 26.2174C39.0307 26.2035 38.6745 26.2079 38.3192 26.2149C37.3258 26.2345 36.6177 26.8927 36.5466 27.8633C36.5385 27.9745 36.5379 28.0863 36.5374 28.1981C36.5368 28.3281 36.5361 28.458 36.5235 28.5869C36.4864 28.9668 36.2173 29.2071 35.8519 29.2122C35.5 29.2173 35.2077 29.0051 35.162 28.65C34.9024 26.6321 36.031 25.2916 37.5795 24.9328C37.8681 24.8659 37.9528 24.7703 37.9496 24.488C37.9417 23.7514 37.9426 23.0148 37.9436 22.2781V22.2772C37.9443 21.699 37.9451 21.1209 37.9415 20.5427C37.932 18.9997 36.9724 18.0656 35.4021 18.0642C33.4824 18.0625 31.5627 18.0628 29.643 18.0632L27.2801 18.0635H26.8227V18.52L26.8227 20.8282L26.8227 25.4445C26.8227 25.475 26.823 25.5056 26.8233 25.5362V25.5363C26.8241 25.6131 26.825 25.6899 26.8206 25.7665C26.7968 26.1905 26.5283 26.4603 26.131 26.4636C25.7331 26.4667 25.4449 26.1992 25.4299 25.7791C25.4187 25.4648 25.421 25.1501 25.4232 24.8354C25.4241 24.7071 25.425 24.5789 25.425 24.4506C25.4248 22.969 25.4249 21.4872 25.4249 20.0056L25.4249 18.5326V18.0635H24.9827L22.5831 18.0633C20.6209 18.063 18.6587 18.0628 16.6965 18.064C15.0822 18.0651 14.1352 19.0022 14.1288 20.5993C14.1282 20.7451 14.1289 20.891 14.1296 21.0368V21.0369C14.1312 21.3608 14.1328 21.6847 14.1203 22.0082C14.1044 22.42 13.8399 22.6719 13.4562 22.6827C13.0742 22.6934 12.7484 22.4513 12.7466 22.054C12.7458 21.8966 12.7433 21.7385 12.7408 21.58C12.7301 20.9038 12.7193 20.2222 12.8463 19.5694C13.1881 17.8133 14.7165 16.6938 16.6229 16.6917C19.8266 16.688 23.0301 16.6887 26.2338 16.6894C27.5151 16.6897 28.7964 16.6899 30.0777 16.6899C30.6259 16.6899 31.1741 16.6897 31.7223 16.6895H31.7223H31.7223H31.7223C32.938 16.6889 34.1537 16.6884 35.3694 16.6905C37.7696 16.6946 39.339 18.2395 39.3461 20.6048C39.3486 21.4645 39.348 22.3243 39.3473 23.184C39.347 23.5723 39.3467 23.9606 39.3467 24.3488V24.8024C39.4393 24.8191 39.5299 24.8331 39.6188 24.8469L39.6189 24.8469C39.808 24.8763 39.9892 24.9044 40.1641 24.9539C41.2542 25.2627 41.9821 25.9501 42.3439 27.0081C42.3759 27.1018 42.4104 27.1947 42.445 27.2875C42.4608 27.33 42.4766 27.3725 42.4921 27.4151V34.3408ZM0.480469 36.0319C0.705078 35.6792 1.03089 35.5673 1.44882 35.5699C2.75071 35.5781 4.05265 35.5776 5.35461 35.5771C6.06275 35.5768 6.77088 35.5766 7.47902 35.5777C7.64149 35.5779 7.81249 35.5819 7.96467 35.6296C8.28808 35.731 8.45393 35.9717 8.4349 36.3033C8.41608 36.6333 8.23053 36.8536 7.89498 36.9244C7.76646 36.9514 7.63056 36.9515 7.49771 36.9515L7.48712 36.9516C6.87058 36.952 6.25403 36.9517 5.63749 36.9513C4.24394 36.9504 2.8504 36.9495 1.45691 36.9589C1.04237 36.9616 0.712518 36.8618 0.480469 36.5151V36.0319ZM19.6553 36.9536C20.5614 36.9532 21.4674 36.9528 22.3735 36.9528L23.2321 36.9528H23.269C26.129 36.9529 28.9891 36.953 31.8491 36.9522L31.9189 36.9523C32.0599 36.9528 32.2016 36.9532 32.3404 36.9349C32.6949 36.8883 32.9417 36.6175 32.9517 36.2846C32.9613 35.959 32.7245 35.6665 32.3746 35.6039C32.2183 35.5761 32.0557 35.5763 31.8951 35.5765L31.844 35.5765C27.1431 35.5756 22.4423 35.5756 17.7414 35.5755L13.4259 35.5754C13.3815 35.5754 13.337 35.5756 13.2926 35.5758H13.2924C13.1454 35.5765 12.9984 35.5772 12.8517 35.5703C11.8903 35.5252 11.1685 34.8344 11.1604 33.8907C11.1433 31.8912 11.1419 29.8915 11.1615 27.8922C11.1708 26.9562 11.9112 26.2556 12.8648 26.2168C13.0714 26.2084 13.2783 26.2102 13.4852 26.2119L13.486 26.212C13.566 26.2126 13.6461 26.2133 13.7261 26.2134C15.0135 26.2152 15.7105 26.8899 15.7144 28.1453C15.7161 28.6677 15.7157 29.1901 15.7153 29.7125V29.713C15.7148 30.3713 15.7142 31.0297 15.7178 31.688C15.7205 32.1813 15.9789 32.474 16.3919 32.4851C16.8138 32.4964 17.1107 32.1831 17.1137 31.6836C17.115 31.4831 17.1165 31.2827 17.1179 31.0822V31.082V31.0819V31.0817C17.1256 30.0343 17.1332 28.9866 17.1099 27.9398C17.0737 26.3153 15.9774 25.0967 14.3619 24.8754C14.0139 24.8276 13.6574 24.8334 13.3022 24.8391H13.3022H13.3022C13.2049 24.8406 13.1076 24.8422 13.0107 24.8427C11.1096 24.8516 9.76269 26.1749 9.75689 28.0449C9.75098 29.9505 9.74989 31.856 9.76126 33.7616C9.76323 34.0796 9.80185 34.4077 9.88828 34.7136C10.28 36.0995 11.4822 36.947 13.0619 36.9506C15.2597 36.9557 17.4575 36.9547 19.6553 36.9536ZM20.2477 11.2418H13.2837C13.1657 9.81681 13.639 8.66673 14.8463 7.89396C16.0496 7.12387 17.3307 7.0981 18.5641 7.82696C19.8495 8.58641 20.3413 9.76624 20.2477 11.2418ZM15.5716 12.6515C15.9608 12.6514 16.35 12.6512 16.7391 12.6512C17.1289 12.6512 17.5186 12.6513 17.9084 12.6514C18.8299 12.6516 19.7513 12.6519 20.6728 12.6507C21.4424 12.6498 21.6552 12.4435 21.6565 11.7042C21.6566 11.6368 21.6568 11.5693 21.657 11.5018C21.6578 11.2207 21.6587 10.9396 21.6542 10.6586C21.6184 8.42943 20.0346 6.55844 17.7564 6.05152C15.6415 5.5808 13.3724 6.67215 12.3752 8.60563C11.8592 9.60593 11.8452 10.6669 11.8643 11.7428C11.8765 12.4337 12.0894 12.6488 12.8056 12.6504C13.7276 12.6524 14.6496 12.652 15.5716 12.6515Z" fill="url(#paint0_linear_0_11021)"/>
<defs>
<linearGradient id="paint0_linear_0_11021" x1="-10.4661" y1="10.7743" x2="7.43471" y2="49.1057" gradientUnits="userSpaceOnUse">
<stop stop-color="#AC6C44"/>
<stop offset="1" stop-color="#301103"/>
</linearGradient>
</defs>
</svg>
