<svg width="37" height="29" viewBox="0 0 37 29" fill="none" xmlns="http://www.w3.org/2000/svg">
<path fill-rule="evenodd" clip-rule="evenodd" d="M35.0481 15.4479C34.8546 15.3368 34.6644 15.229 34.477 15.1226C34.014 14.86 33.5679 14.607 33.131 14.3391C32.8912 14.1922 32.7151 14.1837 32.465 14.3313C31.4739 14.9166 30.4766 15.4912 29.4792 16.0659C29.0288 16.3254 28.5784 16.585 28.1286 16.8454C28.0245 16.9057 27.9089 16.9601 27.793 17.0147L27.7929 17.0147C27.5105 17.1475 27.2264 17.2811 27.102 17.503C26.9717 17.7355 26.9936 18.0546 27.0154 18.372C27.0244 18.5024 27.0333 18.6324 27.0317 18.7561C27.0279 19.042 27.0288 19.3279 27.0297 19.6352C27.0301 19.7773 27.0305 19.924 27.0305 20.0774L35.0481 15.4479ZM27.015 16.3485L35.0469 11.7095C34.8674 11.6061 34.692 11.5044 34.5196 11.4045C33.9904 11.0979 33.4888 10.8072 32.9804 10.5288C32.8818 10.4748 32.6998 10.4764 32.6019 10.5322C30.8027 11.5582 29.0097 12.5948 27.2194 13.6364C27.1316 13.6876 27.0256 13.804 27.0239 13.8919C27.0122 14.4996 27.0132 15.1075 27.0143 15.7555V15.7556C27.0146 15.9493 27.015 16.1466 27.015 16.3485ZM7.58133 13.0048C7.58817 13.073 7.59264 13.1395 7.59701 13.2045C7.60689 13.3515 7.61624 13.4904 7.65119 13.6227C7.68754 13.7604 7.7631 13.9333 7.87491 13.9988C9.29583 14.8314 10.7251 15.6499 12.158 16.462C12.2682 16.5244 12.4307 16.5522 12.5535 16.5254C13.253 16.3729 13.9469 16.3977 14.6298 16.5871C14.8684 16.6532 15.0504 16.6352 15.2626 16.5103C16.0594 16.0414 16.8608 15.5803 17.6622 15.1192L17.6625 15.119C17.9701 14.942 18.2778 14.765 18.5851 14.5876C18.7555 14.4892 18.9253 14.3899 19.0995 14.2881L19.0997 14.288L19.3614 14.1352C19.3451 14.1211 19.3328 14.1098 19.3229 14.1006C19.3065 14.0854 19.2963 14.0761 19.2847 14.0693L18.4721 13.6016C16.5353 12.4866 14.5984 11.3716 12.6561 10.2664C12.5646 10.2142 12.3846 10.2424 12.2817 10.2987C11.846 10.5366 11.4167 10.7861 10.9874 11.0356L10.9874 11.0356L10.9868 11.0359C10.8528 11.1138 10.7188 11.1916 10.5846 11.2691C9.85789 11.6889 9.13126 12.1089 8.40818 12.5269L7.58133 13.0048ZM29.0365 8.67836C29.0287 8.60052 29.0237 8.52791 29.0189 8.45932C29.0088 8.31171 28.9999 8.18273 28.9666 8.06038C28.9289 7.92238 28.8572 7.74783 28.7461 7.68272C27.3262 6.85034 25.8979 6.03218 24.4663 5.22001C24.3559 5.15747 24.1955 5.12425 24.0738 5.15006C23.3504 5.30354 22.6403 5.25428 21.9255 5.08903C21.763 5.05145 21.5464 5.07461 21.4029 5.15538C20.3446 5.75157 19.2932 6.36016 18.2419 6.96874L18.2416 6.96887C18.0018 7.10772 17.7619 7.24656 17.522 7.38527C17.4641 7.41874 17.4088 7.45652 17.3476 7.4983C17.3173 7.51894 17.2857 7.54057 17.2515 7.56313L17.3683 7.63288C17.4461 7.67953 17.515 7.72077 17.5845 7.76074L18.3721 8.21375C19.9572 9.12553 21.5422 10.0373 23.1282 10.9475C23.2232 11.0021 23.3187 11.068 23.4144 11.1341C23.6487 11.2959 23.8843 11.4586 24.1186 11.4582C24.3532 11.4577 24.5886 11.2946 24.8227 11.1325C24.9186 11.066 25.0142 10.9998 25.1095 10.9449C26.0907 10.38 27.071 9.8137 28.0477 9.24949L28.049 9.24875L29.0365 8.67836ZM22.2418 16.5125L22.2416 16.5126C22.1541 16.558 22.087 16.5929 22.0215 16.6308C21.4605 16.9545 20.8993 17.2781 20.3381 17.6017L20.3372 17.6022C18.1798 18.8462 16.0224 20.0903 13.8708 21.3443C13.5218 21.5477 13.2462 21.5553 12.8913 21.3493C10.8252 20.1494 8.75222 18.9614 6.67924 17.7734L6.67914 17.7734L6.67452 17.7707C6.12885 17.458 5.58318 17.1453 5.03763 16.8323C4.9183 16.7639 4.7985 16.6798 4.67854 16.5956C4.39602 16.3974 4.11263 16.1985 3.83246 16.2019C3.54119 16.2056 3.25193 16.4048 2.96326 16.6035C2.84038 16.6881 2.7176 16.7727 2.59483 16.842C2.36115 16.9739 2.12883 17.1083 1.8904 17.2462L1.89032 17.2462L1.88975 17.2465C1.78913 17.3047 1.68741 17.3636 1.58405 17.4231C1.60703 17.4434 1.62174 17.4568 1.63181 17.466L1.63185 17.4661C1.64566 17.4787 1.65075 17.4834 1.65657 17.4867L2.82135 18.156C6.27349 20.1396 9.72566 22.1233 13.1828 24.0982C13.2868 24.1576 13.4813 24.1462 13.5931 24.0887C13.9037 23.9293 14.2051 23.7523 14.5066 23.5752L14.5066 23.5752L14.5068 23.5751C14.6139 23.5122 14.7211 23.4493 14.8286 23.3871L15.9076 22.7643L15.9088 22.7636C17.9797 21.5683 20.0506 20.3729 22.1179 19.1713C22.234 19.1039 22.3826 18.9624 22.3859 18.8515C22.4034 18.263 22.4015 17.6738 22.3996 17.0511V17.051C22.3989 16.8481 22.3983 16.6417 22.3983 16.4306C22.3388 16.462 22.2875 16.4887 22.2418 16.5125ZM22.2409 20.2507L22.2408 20.2508L22.2407 20.2508C22.1505 20.2993 22.0787 20.3379 22.0082 20.3787C21.4447 20.7039 20.8812 21.029 20.3177 21.3541L20.3168 21.3546C18.162 22.5977 16.0073 23.8408 13.857 25.0915C13.5211 25.287 13.2384 25.3054 12.9035 25.0936C12.5424 24.8652 12.1695 24.6555 11.7967 24.4457L11.7966 24.4457L11.7964 24.4456C11.6428 24.3592 11.4891 24.2727 11.3363 24.185L10.2609 23.5675C8.20581 22.3873 6.15072 21.2072 4.09301 20.0319C3.98233 19.9687 3.80076 19.8979 3.71429 19.9449C3.16953 20.2406 2.63344 20.5523 2.09015 20.8682L2.08998 20.8683C1.92534 20.964 1.76004 21.0601 1.59364 21.1563C1.61612 21.1761 1.63341 21.1925 1.64781 21.2061C1.6719 21.2289 1.68786 21.244 1.7064 21.2547L2.20306 21.5401L2.20456 21.5409C5.86871 23.6462 9.53292 25.7515 13.2022 27.8479C13.2961 27.9016 13.4746 27.889 13.5754 27.8354C13.9229 27.6505 14.263 27.4518 14.6032 27.2532L14.6032 27.2531L14.6035 27.253C14.7235 27.1829 14.8435 27.1128 14.9638 27.0433L16.103 26.3859C18.1135 25.2258 20.1238 24.0657 22.1308 22.8998C22.2467 22.8324 22.3967 22.6933 22.4 22.5838C22.4175 21.9951 22.4157 21.4058 22.4137 20.7808V20.7806L22.4137 20.7792C22.4131 20.5763 22.4124 20.3697 22.4124 20.158C22.3475 20.1934 22.2913 20.2236 22.2409 20.2507ZM21.4964 15.3382L21.4963 15.3381C21.1996 15.1707 20.9215 15.0139 20.6521 14.8433C20.4558 14.7188 20.3122 14.7206 20.1079 14.8404C19.2505 15.3427 18.3897 15.8394 17.529 16.3361L17.5288 16.3362L17.528 16.3367C16.8296 16.7397 16.1312 17.1427 15.4345 17.5487C15.1798 17.6972 14.9465 17.7375 14.6626 17.6321C13.966 17.3734 13.2577 17.3442 12.5345 17.5498C12.3713 17.5962 12.1431 17.5802 11.9979 17.4984C10.5924 16.7065 9.19355 15.9026 7.79475 15.0988L6.87666 14.5713C6.6032 14.4143 6.53268 14.2014 6.60605 13.882C6.65512 13.668 6.62684 13.4061 6.54682 13.199C6.35528 12.7033 6.37853 12.5617 6.82873 12.3015C7.58456 11.8644 8.34077 11.428 9.09698 10.9915C9.6642 10.6641 10.2314 10.3368 10.7985 10.0091C10.9452 9.9243 11.091 9.83772 11.2505 9.7429L11.2508 9.74277C11.3298 9.69581 11.4123 9.64682 11.4999 9.59503C11.3719 9.52156 11.2481 9.4522 11.1277 9.38478C10.852 9.23037 10.5946 9.08616 10.3473 8.92609C10.1467 8.79615 10.0013 8.81769 9.80259 8.93311C7.77905 10.1086 5.75231 11.2785 3.72553 12.4484C3.0953 12.8122 2.46506 13.176 1.83492 13.54C1.78416 13.5693 1.735 13.6014 1.67928 13.6377L1.67927 13.6377L1.67918 13.6378C1.65126 13.656 1.6217 13.6753 1.58946 13.6958C1.61583 13.7136 1.63859 13.7294 1.65915 13.7436L1.65924 13.7437C1.69797 13.7706 1.72888 13.792 1.76136 13.8107L4.129 15.1705L4.12984 15.171C7.14083 16.9002 10.1518 18.6293 13.1593 20.3645C13.3509 20.4751 13.4761 20.4325 13.6385 20.3382C15.4358 19.297 17.2343 18.258 19.0328 17.219L19.0331 17.2188L20.9297 16.123C21.1328 16.0056 21.3354 15.8875 21.5534 15.7603L21.8921 15.5629C21.7561 15.4847 21.6245 15.4104 21.4964 15.3382ZM15.1139 6.33354L15.114 6.3336C15.4154 6.50313 15.6959 6.66091 15.9665 6.8343C16.1654 6.96176 16.3099 6.95408 16.5116 6.8361C17.3233 6.36102 18.1378 5.8906 18.9523 5.42019C19.6971 4.98998 20.4419 4.55979 21.1846 4.12605C21.4405 3.97665 21.6733 3.93831 21.9562 4.04376C22.6532 4.30344 23.3615 4.32897 24.0847 4.12538C24.2486 4.07925 24.4772 4.097 24.6231 4.1792C26.0119 4.96274 27.394 5.75782 28.7762 6.55291L28.7763 6.55299L28.7787 6.55435C29.1002 6.73934 29.4218 6.92432 29.7435 7.10916C30.0017 7.25761 30.0806 7.4629 30.0228 7.7671C29.9809 7.9873 29.9623 8.26691 30.0629 8.4481C30.31 8.89363 30.1791 9.17144 29.7293 9.4258C28.6406 10.0415 27.5581 10.6683 26.4755 11.2951L26.4754 11.2952C26.1226 11.4995 25.7699 11.7037 25.4169 11.9076C25.3593 11.9408 25.3043 11.9785 25.2399 12.0226C25.2067 12.0453 25.171 12.0698 25.1311 12.0962C25.2528 12.1663 25.3717 12.2333 25.4881 12.299L25.4883 12.2991L25.4883 12.2991C25.7602 12.4525 26.0187 12.5983 26.2688 12.7575C26.4579 12.8778 26.599 12.8563 26.7834 12.7476C27.4389 12.3606 28.0988 11.9813 28.7588 11.6019L28.7591 11.6018C29.0132 11.4557 29.2672 11.3097 29.5211 11.1632L32.8219 9.25769L35.0258 7.98531C34.9921 7.96244 34.9615 7.94082 34.9326 7.92047L34.9326 7.92043C34.876 7.88048 34.8262 7.84537 34.7736 7.81513C33.9013 7.31396 33.029 6.81294 32.1566 6.31191L32.154 6.31042L32.1537 6.31028C29.257 4.64663 26.3602 2.98296 23.4666 1.31396C23.2819 1.20747 23.1574 1.22683 22.9885 1.32497C21.6636 2.09436 20.3365 2.85977 19.0094 3.6252L19.0086 3.62565C18.5607 3.88401 18.1127 4.14239 17.6648 4.40091C16.9919 4.78925 16.3192 5.17801 15.6247 5.57936L14.7129 6.10631C14.851 6.18567 14.9844 6.26069 15.1139 6.33354ZM11.0711 8.20607C11.1278 8.23944 11.1792 8.26981 11.227 8.29809L11.2271 8.29817C11.3204 8.35336 11.4004 8.40063 11.4809 8.44687C12.2917 8.91233 13.1023 9.37801 13.9129 9.84368C16.8933 11.5558 19.8738 13.268 22.86 14.9698C23.2398 15.1862 23.383 15.4394 23.3796 15.8747C23.3684 17.3542 23.3754 18.8339 23.3825 20.3136V20.3141C23.3848 20.7913 23.3871 21.2686 23.3887 21.7458C23.389 21.8272 23.3939 21.9086 23.3997 22.0056C23.4026 22.0551 23.4058 22.1086 23.4088 22.1683C23.6376 22.036 23.8618 21.9058 24.0829 21.7773L24.0844 21.7764C24.6706 21.4359 25.2347 21.1082 25.804 20.7901C25.9979 20.6819 26.0576 20.5546 26.0564 20.3399C26.0442 18.2406 26.0378 16.1411 26.0434 14.0417C26.0441 13.8014 25.9532 13.6838 25.7555 13.5748C25.1608 13.2471 24.5721 12.9084 23.9834 12.5697L23.6542 12.3804L21.6094 11.2055L21.609 11.2053C19.065 9.74333 16.521 8.28138 13.9738 6.82509C13.8625 6.7615 13.6673 6.72391 13.5684 6.7783C12.9409 7.12294 12.3214 7.48198 11.6745 7.85688L11.6745 7.85689L11.6742 7.85705C11.4761 7.97189 11.2754 8.08822 11.0711 8.20607ZM0.237246 13.3809L0.23726 13.3808C0.349093 13.2906 0.460948 13.2003 0.583901 13.1292C3.3209 11.5476 6.05832 9.96665 8.79576 8.38572L8.79664 8.38521C13.4562 5.69423 18.1157 3.00324 22.7732 0.30864C23.1001 0.119479 23.3598 0.114163 23.6898 0.304749C26.1218 1.70872 28.5563 3.10814 30.9909 4.50756L30.9917 4.50807L30.9929 4.50876C32.6868 5.48239 34.3806 6.45603 36.0735 7.4312C36.1884 7.4974 36.2879 7.59015 36.3875 7.6829C36.434 7.7262 36.4804 7.7695 36.5285 7.8101V8.16602C36.4728 8.20761 36.4181 8.2509 36.3634 8.29419L36.3634 8.29423C36.2444 8.38845 36.1255 8.48264 35.996 8.55925C35.4754 8.86753 34.9511 9.16953 34.4116 9.4803L34.4113 9.48045L34.41 9.48119C34.2034 9.6002 33.9945 9.72051 33.7828 9.84295C33.9646 9.94754 34.1433 10.0494 34.3196 10.1499C34.7248 10.3808 35.1171 10.6044 35.5039 10.837C35.7458 10.9825 35.9798 11.1412 36.2137 11.2999C36.3184 11.3709 36.4231 11.4419 36.5285 11.5117V11.8676C36.4816 11.9078 36.4361 11.9502 36.3906 11.9926C36.2908 12.0856 36.1909 12.1786 36.0769 12.2481C35.7511 12.4468 35.4197 12.6361 35.0882 12.8253C34.9275 12.9171 34.7667 13.0089 34.6066 13.1018C34.4293 13.2046 34.2532 13.3093 34.0643 13.4215C33.9757 13.4742 33.8842 13.5286 33.7885 13.5852C34.0021 13.7081 34.2121 13.8285 34.4193 13.9473C34.9867 14.2726 35.5331 14.5858 36.0749 14.9071C36.1893 14.975 36.2893 15.0673 36.3893 15.1596L36.3893 15.1597C36.4352 15.2021 36.4811 15.2445 36.5285 15.2845V15.6404C36.4722 15.6827 36.4171 15.7271 36.362 15.7714C36.2438 15.8666 36.1255 15.9617 35.9956 16.0368C33.6029 17.4196 31.2098 18.8017 28.8166 20.1838C23.8537 23.0499 18.8909 25.9161 13.9317 28.7888C13.5306 29.0212 13.2249 29.0204 12.8256 28.7892C10.2397 27.2927 7.64946 25.8037 5.05925 24.3146L5.05705 24.3134C3.5498 23.4469 2.04256 22.5804 0.536158 21.7125C0.421228 21.6462 0.321343 21.554 0.221463 21.4617L0.221449 21.4617C0.174834 21.4187 0.12822 21.3756 0.0800781 21.3352V20.9793C0.135989 20.9377 0.190898 20.8944 0.245807 20.8511L0.245856 20.8511L0.245888 20.851C0.364894 20.7572 0.483906 20.6633 0.613136 20.5869C1.13625 20.2773 1.66312 19.9741 2.20611 19.6616L2.2064 19.6615C2.41141 19.5435 2.61872 19.4242 2.82899 19.3027C2.63988 19.1937 2.45388 19.0872 2.27032 18.9821L2.26904 18.9813C1.82976 18.7298 1.40447 18.4863 0.984074 18.2348C0.770528 18.107 0.565125 17.9657 0.359719 17.8243L0.359639 17.8242C0.266704 17.7603 0.173769 17.6963 0.0800781 17.6336V17.2777C0.123798 17.2395 0.166217 17.1993 0.20864 17.159L0.208675 17.159C0.301815 17.0706 0.39498 16.9821 0.501987 16.9162C0.8015 16.7313 1.10733 16.5565 1.41319 16.3817L1.41352 16.3815C1.53821 16.3103 1.6629 16.239 1.78717 16.1671C1.99001 16.0497 2.19274 15.9321 2.40584 15.8085L2.40862 15.8069L2.82766 15.5638C2.60934 15.4382 2.39522 15.3154 2.18435 15.1946L2.18431 15.1945C1.61694 14.8693 1.07307 14.5576 0.53388 14.238C0.41949 14.1701 0.31952 14.0779 0.219555 13.9858C0.173531 13.9433 0.127507 13.9009 0.0800781 13.8608V13.5049C0.133206 13.4648 0.185223 13.4228 0.237246 13.3809ZM24.615 6.87221C24.6444 6.90088 24.6826 6.93059 24.723 6.96205C24.8235 7.04015 24.9377 7.12903 24.9652 7.23953C25.0044 7.39661 24.9311 7.68325 24.8094 7.76174C24.1651 8.17727 23.4971 8.55834 22.8216 8.92224C22.5947 9.04439 22.3493 8.97264 22.2087 8.72909C22.0815 8.50833 22.0935 8.25766 22.308 8.12583C22.8311 7.80434 23.3657 7.50175 23.9003 7.19921L23.9003 7.19919L23.9006 7.19902C24.0644 7.1063 24.2283 7.01359 24.3917 6.92033C24.4157 6.90667 24.4447 6.902 24.4946 6.89395L24.4946 6.89395C24.5255 6.88897 24.5644 6.8827 24.615 6.87221ZM12.1645 14.8253C12.204 14.8564 12.2412 14.8856 12.2694 14.9135C12.3254 14.9024 12.3696 14.8959 12.4056 14.8907C12.4649 14.882 12.5018 14.8765 12.532 14.8593C12.6996 14.7631 12.8675 14.6674 13.0354 14.5716C13.6468 14.2229 14.2583 13.8741 14.8568 13.5044C15.0665 13.3749 15.0811 13.1169 14.9372 12.9004C14.7983 12.6914 14.5838 12.586 14.3545 12.7123C13.5892 13.1339 12.8264 13.5623 12.0867 14.0264C11.9642 14.1033 11.8885 14.3898 11.9256 14.5477C11.9516 14.6579 12.0655 14.7475 12.1645 14.8253Z" fill="url(#paint0_linear_0_11040)"/>
<defs>
<linearGradient id="paint0_linear_0_11040" x1="-9.41688" y1="8.01205" x2="4.15198" y2="39.5218" gradientUnits="userSpaceOnUse">
<stop stop-color="#AC6C44"/>
<stop offset="1" stop-color="#301103"/>
</linearGradient>
</defs>
</svg>
