<svg width="40" height="40" viewBox="0 0 40 40" fill="none" xmlns="http://www.w3.org/2000/svg">
<path fill-rule="evenodd" clip-rule="evenodd" d="M32.4359 2.55597H33.6486V0.0847626H32.4359V2.55597ZM39.6504 3.62285L38.9399 2.83895L37.2237 4.55136L37.948 5.33726L39.6504 3.62285ZM36.7785 8.7526C36.5525 8.71841 36.336 8.68397 36.126 8.65055C35.656 8.57578 35.2183 8.50614 34.7784 8.45591C34.3378 8.4056 34.0727 8.19934 33.9015 7.78901C33.729 7.37536 33.5332 6.97142 33.3251 6.54207L33.3251 6.54197L33.3249 6.54164C33.2333 6.35261 33.1393 6.15865 33.0438 5.95676C32.9476 6.16189 32.8541 6.35896 32.7631 6.55063L32.7612 6.55473L32.7601 6.55694L32.7588 6.55967L32.7579 6.56158L32.7572 6.56308L32.7572 6.56317C32.5454 7.00948 32.3474 7.42679 32.1598 7.84877C32.0082 8.18989 31.7889 8.3888 31.401 8.43638C30.9341 8.49364 30.4696 8.57011 29.9784 8.65097L29.9783 8.65098L29.9782 8.651C29.765 8.68609 29.5469 8.72201 29.3213 8.75754C29.4825 8.92353 29.6385 9.08558 29.7913 9.24435L29.7917 9.24476C30.1513 9.61835 30.4934 9.97381 30.8449 10.32C31.1034 10.5748 31.1886 10.8447 31.1188 11.2053C31.0253 11.6888 30.9498 12.1756 30.8703 12.688L30.8703 12.6881C30.836 12.9089 30.801 13.1345 30.7636 13.3666C30.9573 13.2595 31.1463 13.1565 31.3315 13.0555C31.758 12.823 32.1644 12.6014 32.5626 12.3661C32.8929 12.1708 33.1882 12.1652 33.5195 12.3584C33.921 12.5925 34.3292 12.8153 34.7564 13.0486C34.9415 13.1496 35.1302 13.2526 35.3235 13.3594C35.2879 13.135 35.2553 12.916 35.2233 12.701L35.2233 12.7009C35.1491 12.2017 35.0781 11.7242 34.9794 11.2525C34.8936 10.8414 35.0035 10.5507 35.2945 10.2691C35.6337 9.94129 35.9609 9.60098 36.3082 9.2397L36.3082 9.23965L36.3085 9.23938C36.4604 9.08137 36.6161 8.91935 36.7785 8.7526ZM33.0385 3.67197C33.128 3.76119 33.215 3.83739 33.2951 3.9076C33.4509 4.04408 33.5809 4.15792 33.6531 4.30085C34.0775 5.1402 34.468 5.99688 34.8584 6.8531L34.8585 6.85332L34.8934 6.92991C34.9837 7.1282 35.096 7.22314 35.3215 7.25423C35.8423 7.32587 36.3617 7.40776 36.8811 7.48964L36.8812 7.48965L36.8812 7.48965L36.8812 7.48966L36.8813 7.48966L36.8813 7.48967L36.8813 7.48968L36.8814 7.48968L36.8814 7.48969L36.8814 7.48969L36.8815 7.4897L36.8815 7.4897L36.8815 7.48971L36.8816 7.48972C37.2551 7.5486 37.6286 7.60748 38.0026 7.66256C38.307 7.70741 38.5682 7.80014 38.678 8.11563C38.7961 8.45455 38.6099 8.68864 38.3892 8.91255C38.1747 9.13007 37.9619 9.34937 37.7492 9.56867C37.3408 9.98956 36.9325 10.4104 36.5119 10.8186C36.2949 11.0293 36.2472 11.233 36.2967 11.515C36.394 12.07 36.4837 12.6264 36.5734 13.1828C36.6359 13.5706 36.6983 13.9584 36.7634 14.3458C36.8135 14.644 36.7768 14.9466 36.4927 15.0554C36.2812 15.1364 35.9674 15.1294 35.7664 15.0283C35.3112 14.7992 34.8654 14.5517 34.4195 14.304L34.4193 14.304C34.0521 14.1 33.6848 13.896 33.3122 13.7024C33.1712 13.6292 32.9272 13.6287 32.7862 13.7017C32.0227 14.098 31.2721 14.5195 30.5217 14.9408L30.5216 14.9409L30.5216 14.9409L30.5216 14.9409L30.5216 14.9409L30.5216 14.9409L30.5215 14.9409L30.5215 14.9409L30.5215 14.9409L30.5215 14.941L30.5214 14.941L30.5214 14.941L30.5214 14.941L30.5212 14.9411L30.3739 15.0238C30.1045 15.175 29.8412 15.254 29.5668 15.0542C29.3105 14.8677 29.2811 14.6101 29.331 14.3163C29.4003 13.9078 29.4662 13.4986 29.5321 13.0894L29.5321 13.0891L29.5322 13.0887L29.5322 13.0886L29.5322 13.0886L29.5322 13.0885L29.5322 13.0885L29.5322 13.0884L29.5322 13.0884L29.5323 13.0884L29.5323 13.0883L29.5323 13.0883L29.5323 13.0882L29.5323 13.0882L29.5323 13.0881L29.5323 13.0881C29.6163 12.5665 29.7003 12.0448 29.7914 11.5245C29.8401 11.2457 29.8067 11.0389 29.587 10.8255C29.1488 10.3997 28.7231 9.96087 28.2974 9.52205C28.0838 9.30182 27.8702 9.08159 27.6549 8.86298C27.45 8.65493 27.3064 8.42671 27.4091 8.12603C27.5094 7.83238 27.7394 7.7177 28.0394 7.67558C28.4621 7.61616 28.8839 7.55066 29.3058 7.48516L29.3058 7.48516L29.3058 7.48515L29.3058 7.48515L29.3059 7.48515L29.3059 7.48514L29.3059 7.48514L29.306 7.48513L29.306 7.48513L29.306 7.48512L29.306 7.48512L29.3061 7.48512L29.3061 7.48511L29.3061 7.48511L29.3062 7.4851L29.3062 7.4851L29.3062 7.48509L29.3062 7.48509L29.3063 7.48509L29.3063 7.48508L29.3063 7.48508L29.3064 7.48507L29.3064 7.48507L29.3064 7.48506L29.3064 7.48506L29.3065 7.48505L29.3065 7.48505C29.7649 7.41387 30.2233 7.3427 30.6827 7.27933C30.9559 7.24162 31.1147 7.13219 31.2302 6.87152C31.6122 6.00969 32.0082 5.15322 32.4331 4.31209C32.5058 4.16817 32.6333 4.0519 32.7864 3.91233C32.865 3.84066 32.9504 3.76283 33.0385 3.67197ZM16.0174 13.8969C17.0539 13.9102 17.907 13.0846 17.9199 12.0556C17.9331 11.0093 17.0858 10.1433 16.0422 10.1362C15.0128 10.1293 14.1574 10.9639 14.1411 11.9912C14.1241 13.0491 14.9454 13.8832 16.0174 13.8969ZM5.02475 28.9133C5.28398 28.8971 5.54154 28.8812 5.79779 28.8655C6.69886 28.8101 7.58369 28.7557 8.4675 28.6876C8.58461 28.6786 8.71663 28.5559 8.79918 28.4522C9.35853 27.7495 9.9123 27.0426 10.4661 26.3356C10.6485 26.1027 10.8309 25.8698 11.0135 25.6371C11.1556 25.456 11.2965 25.2738 11.4373 25.0915L11.4374 25.0915L11.4375 25.0914L11.4375 25.0913L11.4376 25.0912L11.4377 25.0911L11.4378 25.091L11.4378 25.0909L11.4379 25.0909L11.438 25.0908L11.438 25.0907L11.4381 25.0906L11.4382 25.0905L11.4382 25.0904L11.4383 25.0904L11.4383 25.0904L11.4383 25.0903L11.4383 25.0903L11.4384 25.0903L11.4384 25.0902L11.4384 25.0902L11.4385 25.0901L11.4385 25.0901L11.4385 25.0901L11.4385 25.09L11.4386 25.09L11.4386 25.09C11.8271 24.5874 12.2155 24.0849 12.6307 23.6054C12.7735 23.4407 13.0942 23.3147 13.2989 23.3533C13.4798 23.3873 13.6498 23.6565 13.7527 23.8584C13.8021 23.9555 13.758 24.1091 13.719 24.2449C13.7122 24.2688 13.7055 24.2921 13.6995 24.3145C13.1376 26.4163 12.5732 28.5176 12.0089 30.6189L11.4288 32.7792C11.4004 32.8847 11.3741 32.9909 11.3464 33.1025L11.3464 33.1027L11.3463 33.103L11.3462 33.1034C11.333 33.1563 11.3196 33.2105 11.3055 33.2665C11.4641 33.2787 11.6177 33.288 11.7676 33.2971C12.1029 33.3176 12.4196 33.3368 12.732 33.3843C13.0863 33.4381 13.1962 33.2962 13.28 32.9785C13.9927 30.2761 14.7095 27.5747 15.4263 24.8734L15.4264 24.8731L15.4264 24.8728L15.4265 24.8725L15.4272 24.8698L15.4274 24.8694L15.4275 24.869L15.4276 24.8685L15.4277 24.8681L15.4278 24.8677L15.4279 24.8673L15.428 24.8668L15.4281 24.8664L15.4282 24.866C16.0548 22.5048 16.6813 20.1437 17.3051 17.7819C17.4041 17.4071 17.6013 17.1777 17.9505 17.0075C19.8586 16.0775 21.7616 15.1371 23.6646 14.1966L23.6649 14.1965L23.6652 14.1963L23.6656 14.1961L23.6659 14.196L23.6662 14.1958L23.6666 14.1957L23.6669 14.1955L23.6672 14.1953L23.6676 14.1952L23.6679 14.195L23.6682 14.1948L23.6686 14.1947L23.6689 14.1945L23.669 14.1945L23.669 14.1944L23.6691 14.1944L23.6692 14.1944L23.6692 14.1943L23.6693 14.1943L23.6694 14.1943L23.6694 14.1942L23.6695 14.1942L23.6696 14.1942C24.1849 13.9395 24.7002 13.6849 25.2156 13.4304C25.3087 13.3844 25.3999 13.3348 25.4869 13.2874L25.4869 13.2874L25.4872 13.2872C25.5267 13.2657 25.5654 13.2447 25.603 13.2247C25.4321 12.7877 25.1753 12.7784 24.8039 12.9055C22.6844 13.6305 20.558 14.336 18.4295 15.0345C18.1618 15.1223 17.8675 15.1686 17.5858 15.1674C16.8812 15.1645 16.1768 15.1528 15.4723 15.141H15.4723H15.4722H15.4722H15.4722H15.4722H15.4722H15.4721H15.4721H15.4721H15.4721H15.472H15.472H15.472C14.9039 15.1316 14.3358 15.1221 13.7677 15.1173C13.5635 15.1156 13.347 15.147 13.1562 15.2174C11.8082 15.7142 10.4631 16.219 9.1181 16.7238L9.11794 16.7238L8.18655 17.0733C7.55851 17.3087 6.93077 17.5449 6.29308 17.7848L5.44298 18.1046L5.63277 18.8196C5.68318 18.8112 5.72969 18.8041 5.7735 18.7974C5.85941 18.7842 5.93498 18.7726 6.0094 18.7561C6.84656 18.5693 7.6836 18.382 8.52064 18.1947L8.52069 18.1947C9.46099 17.9843 10.4013 17.7739 11.3417 17.5643C12.0954 17.3963 12.4461 17.7383 12.2674 18.4685C12.2195 18.6646 12.1718 18.8607 12.124 19.0568L12.124 19.057C11.9114 19.9302 11.6989 20.8033 11.4683 21.6716C11.3932 21.9547 11.2694 22.2434 11.0986 22.4793C10.607 23.1579 10.1087 23.8318 9.61045 24.5057C9.05591 25.2557 8.50137 26.0056 7.95601 26.7622C7.70068 27.1164 7.39914 27.2737 6.97682 27.3116C6.47634 27.3567 5.97761 27.4213 5.46711 27.4875L5.46687 27.4875L5.46663 27.4876L5.46629 27.4876C5.24868 27.5158 5.02892 27.5443 4.80598 27.5717L5.02475 28.9133ZM13.4233 13.8383C12.5883 11.9598 12.7992 10.5807 14.0643 9.56847C15.1943 8.66432 16.7771 8.64394 17.9342 9.51879C19.153 10.4404 19.4778 11.9156 18.7915 13.5622C18.8359 13.5513 18.8771 13.542 18.916 13.5333C18.9938 13.5157 19.0625 13.5002 19.129 13.4781C20.4325 13.0442 21.7358 12.6095 23.039 12.1748L25.0578 11.5015C25.6045 11.3193 25.7514 11.3611 26.1137 11.7997C26.2882 12.0108 26.4622 12.2222 26.6363 12.4337L26.9149 12.772C27.471 13.4469 27.4017 13.7581 26.6046 14.1511C26.0452 14.427 25.4859 14.7031 24.9267 14.9793L24.9266 14.9793L24.9264 14.9794L24.9263 14.9794L24.9262 14.9795L24.9261 14.9795L24.926 14.9796L24.9259 14.9796L24.9258 14.9797L24.9256 14.9797L24.9255 14.9798L24.9254 14.9799L24.9253 14.9799L24.9252 14.98L24.9249 14.9801C22.958 15.9512 20.9912 16.9224 19.0183 17.8811C18.6569 18.0566 18.477 18.2785 18.3729 18.6742C17.3068 22.7288 16.2269 26.7797 15.147 30.8307L15.147 30.8307L15.1467 30.8316L15.1465 30.8325L15.1463 30.8334L15.1462 30.8335C14.8662 31.8841 14.5861 32.9346 14.3063 33.9853C14.1344 34.6299 13.9663 34.7488 13.3012 34.6949C13.0274 34.6727 12.7535 34.6499 12.4797 34.6272L12.474 34.6267L12.4737 34.6267L12.4734 34.6267L12.4731 34.6267L12.4728 34.6266L12.4725 34.6266L12.4722 34.6266L12.472 34.6266L12.4717 34.6265L12.4714 34.6265L12.4711 34.6265L12.4708 34.6265L12.4705 34.6265L12.4702 34.6264C11.8711 34.5767 11.272 34.5269 10.6725 34.4825C9.97309 34.4308 9.75904 34.1476 9.93843 33.4761C10.3208 32.0449 10.7041 30.6139 11.0874 29.1829L11.0878 29.1816L11.0892 29.1763L11.6461 27.097C11.6622 27.0367 11.6751 26.9755 11.639 26.8871C11.4491 27.1288 11.2585 27.3699 11.0679 27.6111C10.5851 28.2219 10.1023 28.8328 9.63174 29.4529C9.40005 29.7582 9.14262 29.9209 8.74908 29.9421C7.90915 29.9873 7.06994 30.0451 6.23071 30.1029C5.70843 30.1389 5.18614 30.1749 4.66366 30.2079C4.18431 30.2381 3.94989 30.0605 3.86292 29.59C3.71305 28.7779 3.57336 27.9636 3.4468 27.1476C3.37748 26.7003 3.64646 26.4302 4.17297 26.3687C4.35705 26.3472 4.54123 26.3263 4.7254 26.3054L4.72543 26.3054L4.72546 26.3054L4.7255 26.3054L4.72553 26.3054L4.72557 26.3054L4.72561 26.3054L4.72564 26.3054L4.72568 26.3054L4.72571 26.3054L4.72575 26.3054L4.72578 26.3054L4.72582 26.3054L4.72586 26.3054C5.34962 26.2346 5.97342 26.1638 6.59378 26.0708C6.77433 26.0437 6.98659 25.921 7.09614 25.7759C8.07627 24.4776 9.04127 23.1676 9.99767 21.8515C10.1314 21.6675 10.2244 21.4403 10.2844 21.219C10.4241 20.7035 10.5513 20.1847 10.6849 19.6405C10.7378 19.4247 10.7917 19.2049 10.8478 18.9798C10.6397 19.0246 10.4365 19.0682 10.2365 19.111L10.2364 19.111C9.82357 19.1995 9.42465 19.2849 9.02625 19.3729C8.35732 19.5206 7.68866 19.6693 7.02002 19.8181C6.49898 19.934 5.97796 20.05 5.45684 20.1654C4.91931 20.2844 4.66472 20.1341 4.52608 19.609C4.38229 19.0642 4.24302 18.5181 4.10722 17.9713C3.99526 17.5208 4.11898 17.2507 4.537 17.0935C7.30892 16.0518 10.0826 15.0149 12.8575 13.9812C12.9799 13.9355 13.109 13.9078 13.2394 13.8798C13.3006 13.8667 13.3621 13.8535 13.4233 13.8383ZM1.46243 37.8553L1.61525 39.0384C4.41543 38.8779 7.23829 36.4812 7.7669 33.5872L6.61568 33.308C5.82523 35.8766 4.13416 37.4182 1.46243 37.8553ZM0.980057 35.9717L0.839844 34.7614C2.4658 34.5018 3.52816 33.5818 4.09501 32.0189L4.20368 32.0508L5.24402 32.3557C4.84932 34.1917 2.97088 35.8376 0.980057 35.9717ZM26.8904 2.82114L26.1251 3.64673L27.7769 5.29655L28.6454 4.57241L26.8904 2.82114ZM29.2707 30.9357V30.9248H30.519V30.9357V30.9357H30.5305V32.1847H30.5197L30.5197 32.1846V32.1962H29.2701L29.27 32.1846H29.2591V30.9357H29.2707L29.2707 30.9357V30.9357ZM29.2591 30.9357H28.0318V32.1846H29.2591V32.1962H29.2701V33.4233H30.5197V32.1962H30.5305H30.5306L30.5305 32.1961V32.1847H31.7576V30.9357H30.5305V30.9248V30.9248H30.519V29.6977H29.2707V30.9248H29.2592L29.2672 30.9323L29.2591 30.9249V30.9357ZM36.8328 35.9768L36.8328 35.9659H38.0811V35.9769L38.0926 35.9769V37.2258H38.0818L38.0818 37.2258V37.2373H36.8322L36.8321 37.2258H36.8212V35.9768H36.8328L36.8328 35.9769L36.8328 35.9768ZM36.8212 37.2373V37.2258H35.5939V35.9768H36.8212V35.966L36.8294 35.9736L36.8213 35.9659H36.8328V34.7388H38.0811V35.9659H38.0926L38.0926 35.9769H39.3197V37.2258H38.0926V37.2372L38.0927 37.2373H38.0926V37.2374L38.0926 37.2373H38.0818V38.4644H36.8322V37.2373H36.8212Z" fill="url(#paint0_linear_0_11050)"/>
<defs>
<linearGradient id="paint0_linear_0_11050" x1="-9.27259" y1="10.6999" x2="11.9999" y2="49.5877" gradientUnits="userSpaceOnUse">
<stop stop-color="#AC6C44"/>
<stop offset="1" stop-color="#301103"/>
</linearGradient>
</defs>
</svg>
