<svg width="100" height="32" viewBox="0 0 100 32" fill="none" xmlns="http://www.w3.org/2000/svg">
<path fill-rule="evenodd" clip-rule="evenodd" d="M41.1041 27.9336C40.8887 27.8117 40.6441 27.7509 40.3707 27.7509L40.3705 27.7508C40.0933 27.7508 39.8479 27.8154 39.6343 27.9446C39.4208 28.0738 39.254 28.2527 39.1342 28.4813C39.1529 28.0167 39.2617 27.6655 39.4602 27.4275C39.6588 27.1896 39.9698 27.0238 40.3931 26.9301L41.6407 26.6436L41.5733 26.2783L40.247 26.5819C39.7336 26.7018 39.3562 26.9303 39.1145 27.2675C38.8728 27.6047 38.752 28.09 38.752 28.7231C38.752 29.3301 38.8868 29.806 39.1566 30.1506C39.4263 30.4952 39.8068 30.6677 40.2975 30.6677C40.5897 30.6677 40.8484 30.606 41.0731 30.4823C41.2979 30.3587 41.4731 30.1853 41.5986 29.9625C41.7241 29.7394 41.7869 29.4837 41.7869 29.1952C41.7869 28.9143 41.727 28.6643 41.607 28.445C41.4871 28.2259 41.3194 28.0554 41.1041 27.9336ZM40.8624 30.1929C40.6994 30.2883 40.5149 30.3361 40.3088 30.3361H40.3086C40.1025 30.3361 39.917 30.2884 39.7522 30.1929C39.5874 30.0973 39.459 29.9634 39.3672 29.791C39.2754 29.6187 39.2295 29.424 39.2295 29.2066C39.2295 28.9893 39.2754 28.7983 39.3672 28.6334C39.459 28.4686 39.5865 28.3402 39.7495 28.2484C39.9124 28.1566 40.0989 28.1107 40.3087 28.1107C40.5186 28.1107 40.7049 28.1566 40.8679 28.2484C41.0309 28.3402 41.1575 28.4686 41.2473 28.6334C41.3373 28.7982 41.3822 28.9893 41.3822 29.2066C41.3822 29.424 41.3363 29.6187 41.2445 29.791C41.1527 29.9634 41.0253 30.0973 40.8624 30.1929ZM44.6475 28.7233C45.0185 28.727 45.3004 28.8095 45.4933 28.9705C45.6862 29.1317 45.7827 29.3639 45.7827 29.6673C45.7827 29.982 45.6787 30.2237 45.4707 30.3923C45.2628 30.5609 44.9621 30.6433 44.5687 30.6396L43.3772 30.634V27.6779H43.7763V28.712L44.6474 28.7233H44.6475ZM45.1675 30.1703C45.0269 30.2847 44.8198 30.3399 44.5464 30.3361L43.7764 30.3249V29.0097L44.5464 29.021C44.8236 29.0247 45.0316 29.0791 45.1702 29.184C45.3088 29.2889 45.3782 29.45 45.3782 29.6673C45.3782 29.8884 45.3079 30.0561 45.1675 30.1703ZM49.818 27.6553C50.0952 27.6553 50.3453 27.719 50.5682 27.8465C50.7911 27.9739 50.9663 28.1518 51.0937 28.3804C51.2211 28.609 51.2849 28.8674 51.2849 29.1559C51.2849 29.4444 51.2212 29.703 51.0937 29.9315C50.9663 30.1601 50.7912 30.339 50.5682 30.4681C50.3453 30.5974 50.0952 30.662 49.818 30.662C49.5557 30.662 49.3179 30.6048 49.1042 30.4906C48.8906 30.3763 48.7174 30.218 48.5843 30.0156C48.4513 29.8133 48.3735 29.581 48.3511 29.3187H47.6767V30.6339H47.2776V27.6778H47.6767V28.9535H48.3567C48.3866 28.6988 48.468 28.473 48.6011 28.2763C48.7341 28.0796 48.9055 27.927 49.1153 27.8183C49.3251 27.7097 49.5593 27.6553 49.8178 27.6553H49.818ZM50.3659 30.1676C50.2029 30.265 50.0202 30.3137 49.818 30.3137C49.6157 30.3137 49.433 30.2651 49.27 30.1676C49.107 30.0702 48.9787 29.9334 48.885 29.7573C48.7913 29.5812 48.7445 29.3807 48.7445 29.1559C48.7445 28.9311 48.7914 28.7306 48.885 28.5546C48.9787 28.3784 49.107 28.2426 49.27 28.147C49.433 28.0516 49.6157 28.0038 49.818 28.0038C50.0202 28.0038 50.2029 28.0515 50.3659 28.147C50.5289 28.2426 50.6573 28.3785 50.7509 28.5546C50.8445 28.7306 50.8913 28.9311 50.8913 29.1559C50.8913 29.3808 50.8445 29.5812 50.7509 29.7573C50.6572 29.9334 50.5289 30.0702 50.3659 30.1676ZM54.8423 28.0319H53.724V30.634H53.3249V28.0319H52.2065V27.6779H54.8423V28.0319ZM56.5566 27.6779H56.1575V30.634H56.5172L58.4842 28.2849V30.634H58.8833V27.6779H58.5292L56.5566 30.027V27.6779ZM64.0423 29.3189H63.3681V30.6341H62.969V27.678H63.3681V28.9762H64.048L65.0878 27.678H65.5205L64.3572 29.1111L65.6048 30.6341H65.1327L64.0423 29.3189ZM67.3134 30.4683C67.542 30.5975 67.7986 30.6621 68.0833 30.6621C68.368 30.6621 68.6246 30.5975 68.8532 30.4683C69.0817 30.3391 69.2606 30.1602 69.3899 29.9316C69.5192 29.7031 69.5838 29.4446 69.5838 29.1561C69.5838 28.8676 69.5192 28.6092 69.3899 28.3806C69.2608 28.152 69.0818 27.9741 68.8532 27.8466C68.6248 27.7191 68.368 27.6555 68.0833 27.6555C67.7986 27.6555 67.542 27.7193 67.3134 27.8466C67.0848 27.9741 66.9049 28.152 66.7738 28.3806C66.6427 28.609 66.5771 28.8676 66.5771 29.1561C66.5771 29.4446 66.6427 29.703 66.7738 29.9316C66.9049 30.1602 67.0848 30.339 67.3134 30.4683ZM68.0833 30.3081C68.2931 30.3081 68.4814 30.2603 68.6481 30.1647C68.8149 30.0692 68.945 29.9334 69.0387 29.7573C69.1323 29.5812 69.1791 29.3808 69.1791 29.1559C69.1791 28.9311 69.1323 28.7306 69.0387 28.5546C68.945 28.3785 68.8149 28.2426 68.6481 28.147C68.4814 28.0515 68.2931 28.0038 68.0833 28.0038C67.8735 28.0038 67.6852 28.0516 67.5185 28.147C67.3517 28.2426 67.2206 28.3784 67.1251 28.5546C67.0295 28.7306 66.9817 28.9311 66.9817 29.1559C66.9817 29.3807 67.0295 29.5812 67.1251 29.7573C67.2206 29.9334 67.3517 30.0693 67.5185 30.1647C67.6852 30.2603 67.8735 30.3081 68.0833 30.3081ZM73.6585 29.8303C73.6585 29.4407 73.458 29.199 73.0571 29.1054H73.0569C73.2144 29.0492 73.337 28.9639 73.4251 28.8497C73.5132 28.7353 73.5572 28.5977 73.5572 28.4366C73.5572 28.1931 73.4618 28.0057 73.2706 27.8746C73.0795 27.7435 72.8154 27.6779 72.4783 27.6779H71.1744V30.634H72.5175C72.8959 30.634 73.1806 30.5646 73.3718 30.426C73.5629 30.2874 73.6585 30.0889 73.6585 29.8303ZM71.5622 28.993H72.4501C72.6787 28.993 72.8538 28.9499 72.9756 28.8637C73.0974 28.7775 73.1583 28.6519 73.1583 28.4871C73.1583 28.3222 73.0974 28.1986 72.9756 28.1162C72.8539 28.0337 72.6787 27.9925 72.4501 27.9925H71.5622V28.9928V28.993ZM73.0739 30.1956C72.9466 30.2781 72.7555 30.3193 72.5007 30.3193H72.5006H71.562V29.2908H72.54C72.791 29.2908 72.9746 29.3329 73.0908 29.4172C73.207 29.5015 73.2651 29.6317 73.2651 29.8078C73.2651 29.9838 73.2014 30.1131 73.0739 30.1956ZM76.5471 30.6621C76.2624 30.6621 76.0058 30.5975 75.7772 30.4683C75.5486 30.339 75.3687 30.1602 75.2376 29.9316C75.1065 29.703 75.0409 29.4446 75.0409 29.1561C75.0409 28.8676 75.1065 28.609 75.2376 28.3806C75.3687 28.152 75.5486 27.9741 75.7772 27.8466C76.0058 27.7193 76.2624 27.6555 76.5471 27.6555C76.8318 27.6555 77.0886 27.7191 77.317 27.8466C77.5456 27.9741 77.7246 28.152 77.8537 28.3806C77.983 28.6092 78.0476 28.8676 78.0476 29.1561C78.0476 29.4446 77.983 29.7031 77.8537 29.9316C77.7244 30.1602 77.5455 30.3391 77.317 30.4683C77.0884 30.5975 76.8318 30.6621 76.5471 30.6621ZM77.1119 30.1647C76.9452 30.2603 76.7569 30.3081 76.5471 30.3081C76.3373 30.3081 76.149 30.2603 75.9823 30.1647C75.8155 30.0693 75.6844 29.9334 75.5889 29.7573C75.4933 29.5812 75.4455 29.3807 75.4455 29.1559C75.4455 28.9311 75.4933 28.7306 75.5889 28.5546C75.6844 28.3784 75.8155 28.2426 75.9823 28.147C76.149 28.0516 76.3373 28.0038 76.5471 28.0038C76.7569 28.0038 76.9452 28.0515 77.1119 28.147C77.2787 28.2426 77.4088 28.3785 77.5025 28.5546C77.5961 28.7306 77.6429 28.9311 77.6429 29.1559C77.6429 29.3808 77.5961 29.5812 77.5025 29.7573C77.4088 29.9334 77.2787 30.0692 77.1119 30.1647ZM81.1612 27.6555C81.4384 27.6555 81.6894 27.7182 81.9143 27.8437C82.139 27.9693 82.3152 28.1463 82.4425 28.3749C82.57 28.6034 82.6336 28.8638 82.6336 29.1561C82.6336 29.4521 82.57 29.7144 82.4425 29.9429C82.3152 30.1715 82.14 30.3485 81.9171 30.474C81.6942 30.5995 81.4422 30.6622 81.1612 30.6622C80.9214 30.6622 80.705 30.6126 80.5121 30.5134C80.3191 30.4141 80.1608 30.269 80.0371 30.0779V31.7246H79.638V27.6782H80.0203V28.2626C80.1401 28.0678 80.2984 27.9179 80.4951 27.813C80.6918 27.7081 80.9138 27.6556 81.1611 27.6556L81.1612 27.6555ZM81.695 30.1647C81.5264 30.2603 81.3391 30.3081 81.133 30.3081C80.9232 30.3081 80.735 30.2603 80.5682 30.1647C80.4015 30.0693 80.2704 29.9334 80.1748 29.7573C80.0794 29.5812 80.0316 29.3807 80.0316 29.1559C80.0316 28.9311 80.0793 28.7317 80.1748 28.5574C80.2704 28.3832 80.4015 28.2474 80.5682 28.1499C80.735 28.0525 80.9232 28.0038 81.133 28.0038C81.3391 28.0038 81.5264 28.0525 81.695 28.1499C81.8637 28.2474 81.9957 28.3832 82.0913 28.5574C82.1868 28.7317 82.2347 28.9311 82.2347 29.1559C82.2347 29.3808 82.1868 29.5812 82.0913 29.7573C81.9957 29.9334 81.8636 30.0692 81.695 30.1647ZM85.303 29.3189H84.6288V30.6341H84.2297V27.678H84.6288V28.9762H85.3087L86.3485 27.678H86.7812L85.6179 29.1111L86.8655 30.6341H86.3934L85.303 29.3189ZM88.6302 27.6779H88.2311V30.634H88.5908L90.5578 28.2849V30.634H90.9569V27.6779H90.6028L88.6302 30.027V27.6779ZM92.8339 27.6779H93.233V28.9874H95.0932V27.6779H95.4923V30.634H95.0932V29.3301H93.233V30.634H92.8339V27.6779ZM97.7628 28.0319H99.4544V27.6779H97.3637V30.634H97.7628V28.0319Z" fill="white"/>
<path fill-rule="evenodd" clip-rule="evenodd" d="M0.854354 23.294L11.2575 17.2878C11.2542 17.2409 11.2525 17.1934 11.2525 17.1457L11.2551 17.0484L0.854484 11.0435V23.294H0.854354ZM13.5955 15.286C13.9477 15.3683 14.2627 15.5481 14.5108 15.7953C14.6342 15.9191 14.7404 16.0595 14.8268 16.2124L25.0579 10.3053L13.5955 3.68742V15.286ZM15.0696 17.0552L15.0718 17.1457C15.0718 17.191 15.0702 17.2362 15.0672 17.2807L25.4828 23.2941V11.0436L15.0698 17.0554L15.0696 17.0552ZM14.8075 18.1141C14.7255 18.2533 14.6255 18.3809 14.5125 18.4945C14.2635 18.7429 13.9477 18.9236 13.5955 19.0055V30.6502L25.0579 24.0323L14.8075 18.1141ZM12.7415 19.0085C12.3842 18.9278 12.0639 18.7463 11.8134 18.4962C11.7011 18.3835 11.6026 18.2571 11.5205 18.1196L1.27913 24.0323L12.7415 30.6502V19.0085ZM11.5004 16.2066C11.5853 16.0563 11.6903 15.9189 11.8116 15.7971C12.0635 15.5457 12.384 15.3638 12.7414 15.2831V3.68755L1.279 10.3055L11.5004 16.2066ZM13.9095 16.3982C13.7187 16.2077 13.454 16.0899 13.162 16.0899C12.87 16.0899 12.6053 16.2081 12.4145 16.3982C12.224 16.5891 12.1062 16.8537 12.1062 17.1457C12.1062 17.4377 12.2244 17.7025 12.4145 17.8932C12.6054 18.0832 12.87 18.2016 13.162 18.2016C13.454 18.2016 13.7188 18.0837 13.9095 17.8932C14.0995 17.7024 14.2178 17.4377 14.2178 17.1457C14.2178 16.8537 14.0999 16.589 13.9095 16.3982ZM13.4079 2.59578L26.0969 9.92204C26.2386 9.99167 26.3364 10.1368 26.3364 10.3055V24.0323V24.039V24.0433L26.3359 24.0459L26.3351 24.0597V24.0652L26.3346 24.0665L26.3342 24.0734V24.076L26.3333 24.0803L26.3329 24.0868L26.3325 24.0871L26.3312 24.0974L26.3304 24.1008C26.3073 24.2395 26.219 24.3557 26.0969 24.4158L13.4079 31.7421L13.4071 31.7425L13.4045 31.7442L13.4015 31.7463L13.3985 31.7479L13.3981 31.7483L13.3952 31.7505L13.3918 31.7522L13.3897 31.7535L13.3884 31.7543L13.3851 31.7565L13.3817 31.7582L13.3812 31.7586L13.3804 31.759L13.3787 31.7603L13.3753 31.7619L13.3723 31.7636L13.3718 31.7641L13.3685 31.7658L13.3651 31.7675L13.3629 31.7688L13.3612 31.7692L13.3578 31.7709L13.3545 31.7726L13.3537 31.773L13.3511 31.7743L13.3477 31.7759L13.3443 31.7776H13.3438L13.3404 31.7793L13.3366 31.7806L13.3349 31.7815L13.3332 31.7823L13.3298 31.7836L13.3259 31.7853L13.3255 31.7857L13.3222 31.7866L13.3188 31.7879L13.3158 31.7892L13.315 31.7896L13.3117 31.7909L13.3078 31.7922L13.3061 31.7925L13.3039 31.7934L13.3 31.7947L13.2966 31.796H13.2957L13.2927 31.7969L13.2888 31.7982L13.2859 31.799H13.285L13.2811 31.8003L13.2772 31.8011L13.2755 31.8016L13.2733 31.8024L13.2694 31.8033L13.2655 31.8042H13.2651L13.2617 31.8051L13.2575 31.8059L13.2545 31.8068H13.2537L13.2498 31.8077L13.2459 31.8085H13.2442L13.242 31.809L13.2378 31.8099L13.2339 31.8103H13.2335L13.2301 31.8112L13.2258 31.8116L13.2228 31.812H13.2219L13.2177 31.8125L13.2138 31.8129L13.2121 31.8133H13.2095L13.2056 31.8138L13.2013 31.8142L13.1974 31.8147H13.1931L13.1902 31.8151H13.1889H13.185L13.1807 31.8155H13.1794H13.1764H13.1725H13.1683H13.164H13.1601H13.1571H13.1558L13.1515 31.8151H13.1476H13.1463L13.1434 31.8147H13.1391L13.1352 31.8142L13.1309 31.8138L13.127 31.8133H13.1244L13.1227 31.8129L13.1189 31.8125L13.1146 31.812H13.1137L13.1107 31.8116L13.1064 31.8112L13.103 31.8103H13.1026L13.0988 31.8099L13.0945 31.809L13.0923 31.8085H13.0906L13.0867 31.8077L13.0828 31.8068H13.0819L13.0789 31.8059L13.0746 31.8051L13.0713 31.8042H13.0709L13.067 31.8033L13.0631 31.8024L13.061 31.8016L13.0593 31.8011L13.0554 31.8003L13.0516 31.799H13.0506L13.0477 31.7982L13.0438 31.7969L13.0408 31.796H13.0404L13.0365 31.7947L13.0326 31.7934L13.0304 31.7925L13.0287 31.7922L13.0248 31.7909L13.0215 31.7896L13.0206 31.7892L13.0176 31.7879L13.0142 31.7866L13.0108 31.7857L13.0105 31.7853L13.0066 31.7836L13.0032 31.7823L13.0015 31.7815L12.9998 31.7806L12.9959 31.7793L12.9926 31.7776H12.9922L12.9888 31.7759L12.9854 31.7743L12.9828 31.773L12.9819 31.7726L12.9786 31.7709L12.9752 31.7692L12.9735 31.7688L12.9713 31.7675L12.9679 31.7658L12.9646 31.7641L12.9642 31.7636L12.9612 31.7619L12.9578 31.7603L12.9561 31.759L12.9552 31.7586L12.9548 31.7582L12.9515 31.7565L12.9481 31.7543L12.9468 31.7535L12.9446 31.7522L12.9412 31.7505L12.9382 31.7483L12.9378 31.7479L12.9349 31.7463L12.9319 31.7442L12.9293 31.7425L12.9285 31.7421L0.239489 24.4158C0.0977664 24.3462 0 24.2011 0 24.0324V10.3056V10.2987V10.2944L0.000388991 10.2918L0.00129664 10.2781V10.2725L0.00168563 10.2712L0.00220428 10.2644V10.2618L0.00311193 10.2575L0.00350092 10.251L0.00388991 10.2506L0.00518655 10.2404L0.00609419 10.237C0.0291743 10.0983 0.117475 9.9822 0.239618 9.92191L12.9286 2.59565L12.9294 2.59526L12.932 2.59358L12.935 2.59137L12.938 2.58969L12.9384 2.5893L12.9413 2.58709L12.9447 2.58489L12.9469 2.58411L12.9482 2.5832L12.9516 2.581L12.955 2.5788H12.9553L12.9579 2.57711L12.9613 2.57491L12.9643 2.57361L12.9647 2.57322L12.9681 2.57153L12.9714 2.56933L12.9736 2.56855L12.9753 2.56764L12.9787 2.56596L12.9821 2.56427H12.983L12.9856 2.56259L12.9889 2.5609L12.9915 2.55999L12.9924 2.55961H12.9928L12.9962 2.55792L13.0001 2.55623L13.0018 2.55585L13.0035 2.55494L13.0068 2.55325L13.009 2.55234L13.0107 2.55183L13.0111 2.55144L13.0145 2.55014L13.0178 2.54884L13.0208 2.54794L13.0217 2.54755L13.0251 2.54625L13.029 2.54495L13.0307 2.54443L13.0329 2.54366L13.0368 2.54236L13.0407 2.54106H13.0411L13.044 2.53977L13.0479 2.53899L13.0509 2.53808L13.0518 2.53756L13.0557 2.53678L13.0596 2.53549H13.0613L13.0634 2.53458L13.0672 2.53367L13.0711 2.53277H13.0715L13.0749 2.53199L13.0792 2.53108L13.0822 2.53017H13.0831L13.087 2.52939L13.0908 2.52849H13.0925L13.0947 2.52797L13.099 2.52719L13.1029 2.52667H13.1033L13.1067 2.52589L13.1109 2.52537L13.1139 2.52499H13.1148L13.1191 2.5246L13.1208 2.52408L13.1247 2.52369H13.1273L13.1312 2.52317L13.1354 2.52278L13.1393 2.52239H13.1436L13.1466 2.52187H13.1479H13.1518L13.1561 2.52148H13.1574H13.1603H13.1642H13.1685H13.1728H13.1767H13.1797H13.181L13.1852 2.52187H13.1891H13.1904L13.1934 2.52239H13.1977L13.2016 2.52278L13.2059 2.52317L13.2097 2.52369H13.2123L13.2162 2.52408L13.2179 2.5246L13.2222 2.52499H13.2231L13.2261 2.52537L13.2304 2.52589L13.2337 2.52667H13.2341L13.238 2.52719L13.2423 2.52797L13.2445 2.52849H13.2462L13.2501 2.52939L13.254 2.53017H13.2547L13.2577 2.53108L13.262 2.53199L13.2654 2.53277H13.2658L13.2697 2.53367L13.2735 2.53458L13.2757 2.53549H13.2774L13.2813 2.53678L13.2852 2.53756L13.2861 2.53808L13.2891 2.53899L13.293 2.53977L13.296 2.54106H13.2969L13.3003 2.54236L13.3041 2.54366L13.3063 2.54443L13.308 2.54495L13.3119 2.54625L13.3153 2.54755L13.3161 2.54794L13.3191 2.54884L13.3224 2.55014L13.3258 2.55144L13.3262 2.55183L13.3284 2.55234L13.3301 2.55325L13.3334 2.55494L13.3351 2.55585L13.3368 2.55623L13.3407 2.55792L13.3441 2.55961H13.3446L13.3454 2.55999L13.348 2.5609L13.3513 2.56259L13.3539 2.56427H13.3547L13.3581 2.56596L13.3615 2.56764L13.3631 2.56855L13.3653 2.56933L13.3687 2.57153L13.3721 2.57322L13.3726 2.57361L13.3756 2.57491L13.379 2.57711L13.3816 2.5788H13.3821L13.3854 2.581L13.3888 2.5832L13.3901 2.58411L13.3922 2.58489L13.3956 2.58709L13.3985 2.5893L13.3989 2.58969L13.4019 2.59137L13.4049 2.59358L13.4075 2.59526L13.4083 2.59565L13.4079 2.59578Z" fill="url(#paint0_linear_0_403)"/>
<path fill-rule="evenodd" clip-rule="evenodd" d="M73.0136 6.63839C74.5412 6.63839 75.9343 6.982 77.1924 7.66818C77.8222 8.0114 78.3857 8.42217 78.8814 8.89947C79.3784 9.37767 79.8083 9.92238 80.1695 10.5321C80.5302 11.1414 80.8017 11.7928 80.9828 12.4853C81.1638 13.1756 81.2543 13.9044 81.2543 14.6687C81.2543 15.433 81.1638 16.1626 80.9828 16.8555C80.8021 17.5492 80.5306 18.205 80.1695 18.8199C79.8084 19.435 79.3784 19.9842 78.8818 20.4644C78.3866 20.9434 77.8226 21.3559 77.1924 21.6996C76.5641 22.0424 75.8997 22.3003 75.2029 22.4715C74.5053 22.6432 73.7747 22.7294 73.0135 22.7294C72.1314 22.7294 71.299 22.6175 70.5167 22.3951C69.7353 22.1731 69.0036 21.8376 68.3236 21.3905C67.6443 20.9439 67.0619 20.4184 66.5791 19.8143C66.3096 19.4774 66.071 19.1163 65.8631 18.7307V22.6397H64.7727V0H65.8631V10.6197C66.0722 10.2376 66.3126 9.87895 66.5841 9.54428C67.0691 8.94615 67.6558 8.42269 68.3405 7.97613C69.0253 7.52996 69.7584 7.19478 70.5367 6.9724C71.3158 6.75003 72.142 6.63852 73.0134 6.63852L73.0136 6.63839ZM56.9279 2.82719C57.0527 2.8775 57.1896 2.90356 57.3348 2.90356V2.90382C57.471 2.90382 57.6017 2.87737 57.7246 2.82654C57.8428 2.7774 57.9568 2.70219 58.0631 2.60274C58.1699 2.50277 58.2509 2.39476 58.3047 2.2804C58.3615 2.15955 58.3905 2.03235 58.3905 1.90048C58.3905 1.75954 58.362 1.62676 58.3056 1.50293C58.2497 1.38209 58.1669 1.2733 58.0576 1.17761C57.845 0.991019 57.6034 0.897143 57.3348 0.897143C57.1914 0.897143 57.056 0.921001 56.9314 0.967939C56.8059 1.01566 56.6923 1.08749 56.5903 1.18305C56.3828 1.37729 56.2786 1.61678 56.2786 1.90035C56.2786 2.03131 56.3055 2.15683 56.3588 2.27599C56.4104 2.39165 56.4864 2.50056 56.5851 2.59833C56.6866 2.69908 56.8011 2.77597 56.9279 2.82719ZM53.3536 7.05254L45.6905 22.6395H44.773C42.6546 18.3156 40.5279 13.9949 38.4013 9.67448L36.9512 6.72799H38.1875L45.232 21.211L52.2765 6.72799H53.5129L53.3536 7.05241V7.05254ZM57.0155 6.72812H57.0156H57.8801V22.6397H56.7897V6.72812H57.0155ZM74.9395 21.4848C74.3317 21.6341 73.689 21.7093 73.0136 21.7093H73.0134C72.3379 21.7093 71.6955 21.6341 71.0875 21.4848C70.4791 21.3353 69.9003 21.1099 69.3537 20.8106C68.8077 20.5114 68.3201 20.1531 67.8936 19.7369C67.468 19.3211 67.0995 18.8442 66.79 18.3092C66.4818 17.7751 66.25 17.2038 66.0954 16.598C65.9409 15.9921 65.8632 15.3483 65.8632 14.6686C65.8632 13.9888 65.9409 13.345 66.0954 12.7392C66.2498 12.133 66.4822 11.5617 66.7904 11.0276C67.0982 10.4941 67.4666 10.0192 67.8936 9.60471C68.3198 9.19147 68.8064 8.83658 69.3521 8.54289C69.9003 8.24778 70.4792 8.02579 71.0867 7.87849C71.6943 7.73159 72.3373 7.65781 73.0135 7.65781C73.6898 7.65781 74.3328 7.73159 74.9403 7.87849C75.5478 8.02592 76.1272 8.24791 76.6749 8.54289C77.2211 8.83671 77.7077 9.19147 78.1334 9.60471C78.5608 10.0192 78.9293 10.4939 79.2371 11.0276C79.5453 11.5617 79.7775 12.1329 79.9321 12.7392C80.0863 13.3451 80.1639 13.9893 80.1639 14.6686C80.1639 15.3479 80.0863 15.9922 79.9321 16.598C79.7775 17.2043 79.5453 17.776 79.2371 18.3101C78.9287 18.8442 78.5604 19.3201 78.133 19.7373C77.7062 20.154 77.219 20.5127 76.6734 20.8106C76.1259 21.1103 75.547 21.3358 74.9395 21.4848ZM99.7736 14.8946H85.3133C85.347 16.1583 85.6659 17.2961 86.2678 18.3062C86.5872 18.8416 86.968 19.3194 87.4077 19.7356C87.8461 20.151 88.3478 20.5097 88.9105 20.8089C89.4714 21.1086 90.0696 21.3337 90.704 21.4835C91.3394 21.6337 92.0109 21.7093 92.7167 21.7093C93.2675 21.7093 93.8007 21.6594 94.3152 21.5603C94.8304 21.4613 95.3291 21.3118 95.8086 21.1142C96.2851 20.9173 96.7211 20.6749 97.1146 20.3883C97.5061 20.1036 97.8558 19.7736 98.1627 19.4L98.3146 19.2151L99.0972 19.9477L98.9525 20.1107C98.578 20.5334 98.1601 20.907 97.6998 21.2301C97.24 21.5528 96.7357 21.8273 96.1867 22.0537C95.6402 22.2783 95.0767 22.4483 94.499 22.5604C93.921 22.6723 93.3253 22.7291 92.7165 22.7291C91.104 22.7291 89.6579 22.3859 88.3793 21.7003C87.7385 21.357 87.1651 20.9442 86.6612 20.4651C86.157 19.9852 85.7207 19.4366 85.354 18.8213C84.9873 18.2057 84.7106 17.5495 84.527 16.8561C84.3438 16.1632 84.2516 15.4336 84.2516 14.6685C84.2516 13.9051 84.3366 13.1772 84.5065 12.4876C84.676 11.7981 84.9313 11.1474 85.2703 10.5374C85.6106 9.92692 86.0158 9.38117 86.4846 8.90388C86.953 8.42658 87.4875 8.01451 88.086 7.67038C89.2819 6.98265 90.6234 6.63813 92.1095 6.63813C92.84 6.63813 93.5402 6.72267 94.2083 6.89214C94.8769 7.06122 95.5134 7.31524 96.1154 7.65379C96.7169 7.99156 97.257 8.39624 97.7322 8.86368C98.2069 9.33202 98.6181 9.86403 98.9631 10.4587C99.3085 11.0547 99.5685 11.6929 99.7406 12.371C99.913 13.0468 99.9992 13.7637 99.9992 14.5188V14.8941H99.7734L99.7736 14.8946ZM90.336 7.86721C90.8958 7.72809 91.488 7.65807 92.1096 7.65807L92.1095 7.65768C92.7316 7.65768 93.3237 7.7277 93.8839 7.86734C94.444 8.00699 94.9772 8.21692 95.4806 8.49621C95.9847 8.77551 96.4411 9.10848 96.8476 9.49397C97.2549 9.87998 97.6139 10.3201 97.9227 10.8115C98.2309 11.3021 98.4704 11.8234 98.6398 12.372C98.7875 12.8497 98.8831 13.3513 98.9259 13.8748H85.3249C85.3672 13.3506 85.4616 12.8489 85.6067 12.3716C85.7737 11.8226 86.0102 11.3014 86.3134 10.8099C86.6161 10.3194 86.9713 9.87972 87.3752 9.49462C87.7796 9.10913 88.2347 8.77577 88.7385 8.49647C89.2418 8.2177 89.7751 8.00764 90.336 7.86721Z" fill="white"/>
<defs>
<linearGradient id="paint0_linear_0_403" x1="28.2798" y1="14.6878" x2="9.58471" y2="-1.68013" gradientUnits="userSpaceOnUse">
<stop stop-color="#C88C61"/>
<stop offset="1" stop-color="#EBBE9C"/>
</linearGradient>
</defs>
</svg>
