<svg width="90" height="61" viewBox="0 0 90 61" fill="none" xmlns="http://www.w3.org/2000/svg">
<path fill-rule="evenodd" clip-rule="evenodd" d="M28.4 52.6998C23.4 57.6998 18.35 60.1998 13.25 60.1998C8.15 60.1998 4.75 58.7998 3.05 55.9998C1.35 53.1998 0.5 50.2498 0.5 47.1498C0.5 44.0498 1.9 39.1998 4.7 32.5998C7.5 25.9998 13 19.1998 21.2 12.1998C30 4.5998 38.5 0.799805 46.7 0.799805C47.5 0.799805 47.9 1.1998 47.9 1.9998C47.5 2.3998 47.1 2.6998 46.7 2.8998C38.1 3.6998 30.2 7.8498 23 15.3498C15.8 22.8498 11.6 30.9998 10.4 39.7998C15 33.9998 20.9 31.0998 28.1 31.0998C29.9 31.0998 31.55 31.7998 33.05 33.1998C34.55 34.5998 35.3 36.0998 35.3 37.6998C35.3 43.0998 33 48.0998 28.4 52.6998ZM69.2 53.5998C64.8 57.9998 60.05 60.1998 54.95 60.1998C49.85 60.1998 46.45 58.7998 44.75 55.9998C43.05 53.1998 42.2 50.2498 42.2 47.1498C42.2 44.0498 43.6 39.1998 46.4 32.5998C49.2 25.9998 54.6 19.1998 62.6 12.1998C71.4 4.5998 79.9 0.799805 88.1 0.799805C88.9 0.799805 89.4 1.1998 89.6 1.9998C89.2 2.3998 88.8 2.6998 88.4 2.8998C79.6 3.6998 71.6 7.8998 64.4 15.4998C57.2 22.8998 53 30.9998 51.8 39.7998C57.6 33.9998 63.2 31.0998 68.6 31.0998C71 31.0998 72.95 31.7998 74.45 33.1998C75.95 34.5998 76.7 36.1498 76.7 37.8498C76.7 39.5498 76.4 41.6498 75.8 44.1498C75.2 46.6498 73 49.7998 69.2 53.5998Z" fill="url(#paint0_linear_0_215)"/>
<defs>
<linearGradient id="paint0_linear_0_215" x1="-8.41946" y1="27.6269" x2="22.5069" y2="79.6688" gradientUnits="userSpaceOnUse">
<stop stop-color="#F8E6E2"/>
<stop offset="1" stop-color="#B0776B"/>
</linearGradient>
</defs>
</svg>
