<svg width="48" height="54" viewBox="0 0 48 54" fill="none" xmlns="http://www.w3.org/2000/svg">
<path fill-rule="evenodd" clip-rule="evenodd" d="M12.7843 1.06853C12.9809 0.574432 12.6768 0.28194 12.3495 0H3.90813C3.89324 0.00737837 3.87859 0.0157397 3.86394 0.0240992L3.86393 0.0241021C3.83222 0.0422013 3.80052 0.060291 3.76646 0.0683748C1.30426 0.656454 0.0024665 2.29562 0.00105961 4.81859C-0.000487969 7.73662 -0.000628658 10.6548 0.00260718 13.5731L0.00265312 13.6432C0.00274516 13.9361 0.00283824 14.2322 0.0497379 14.5189C0.433959 16.8689 2.24856 18.3817 4.70991 18.3837C10.8389 18.3885 16.9678 18.3874 23.0967 18.3864C25.0543 18.3861 27.0119 18.3858 28.9694 18.3856L29.033 18.3858C29.1527 18.3863 29.2729 18.3868 29.3905 18.3713C29.7919 18.318 30.029 18.0742 30.0685 17.6818C30.1109 17.261 29.9066 16.9613 29.4935 16.8568C29.2901 16.8052 29.0708 16.8053 28.8571 16.8054L28.8143 16.8054C25.4593 16.8044 22.1043 16.8044 18.7493 16.8043C14.0706 16.8042 9.39179 16.8041 4.71301 16.8015C2.79007 16.8004 1.58676 15.5901 1.58451 13.6734C1.58085 10.685 1.58085 7.69652 1.58451 4.70801C1.58676 2.80463 2.81244 1.58613 4.72441 1.58345C7.06251 1.58036 9.40062 1.57937 11.7386 1.5857C12.1825 1.58697 12.5913 1.55391 12.7843 1.06853ZM44.1122 0.0931572L44.1121 0.09314C44.0057 0.0626907 43.8992 0.0322404 43.7934 0H14.9874C14.5884 0.233543 14.3236 0.552907 14.4813 1.03631C14.6393 1.52071 15.049 1.61159 15.5048 1.58402C15.6008 1.57823 15.6973 1.57978 15.7938 1.58133L15.7938 1.58133C15.8381 1.58204 15.8824 1.58275 15.9266 1.58275L22.8477 1.58253C29.5765 1.58221 36.3053 1.58189 43.0341 1.5843C44.8719 1.585 46.1132 2.82573 46.1165 4.66018C46.1218 7.70131 46.1239 10.7426 46.1155 13.7838C46.1107 15.5373 44.8901 16.7724 43.141 16.7997C42.4059 16.811 41.6705 16.8084 40.9351 16.8057H40.9348C40.6154 16.8046 40.2961 16.8034 39.9768 16.8034C39.2935 16.8035 38.6101 16.8033 37.9268 16.8031H37.9247C36.1652 16.8026 34.4057 16.802 32.6462 16.8064C32.0338 16.808 31.6681 17.1218 31.6697 17.6052C31.671 18.0529 32.0182 18.3811 32.548 18.3816C33.4476 18.3823 34.3472 18.3846 35.2468 18.387C37.9686 18.3943 40.6905 18.4015 43.4116 18.3619C45.7626 18.3275 47.6683 16.3539 47.6899 13.9956C47.7195 10.7965 47.7133 7.59677 47.6916 4.39737C47.6792 2.57461 46.5028 0.949509 44.7951 0.30839C44.5719 0.224644 44.3421 0.158902 44.1122 0.0931572ZM18.5749 33.9136L18.5752 35.8108C18.5756 37.4822 18.5759 39.1535 18.5736 40.8249C18.5728 41.4557 18.2926 41.7975 17.7928 41.8032C17.2919 41.8089 16.9966 41.4625 16.9937 40.8439C16.9911 40.3003 16.9916 39.7567 16.9922 39.2132C16.9927 38.7016 16.9932 38.19 16.9911 37.6784C16.9875 36.8117 16.5167 36.2669 15.7761 36.2586C15.0319 36.2503 14.5448 36.7877 14.5409 37.6504C14.5336 39.2331 14.5319 40.816 14.5417 42.3986C14.5425 42.5196 14.5423 42.641 14.5421 42.7624V42.7625V42.7626V42.7627V42.7628V42.7629C14.5411 43.2935 14.5402 43.8266 14.6201 44.3458C15.4299 49.6142 19.9024 52.9832 25.197 52.3396C29.3836 51.8307 32.9696 48.0134 33.1272 43.8076C33.1891 42.1523 33.1766 40.4937 33.164 38.8355V38.8353V38.8351V38.8349V38.8347V38.8345C33.1604 38.347 33.1567 37.8595 33.1549 37.3721C33.1522 36.6317 32.6246 36.1107 31.9452 36.1069C31.2566 36.103 30.7314 36.6546 30.7115 37.4133C30.7075 37.5686 30.7091 37.7242 30.7107 37.8798C30.7131 38.1115 30.7156 38.3431 30.6992 38.5735C30.6672 39.021 30.3079 39.3505 29.8953 39.3156C29.4562 39.2786 29.1883 39.0282 29.134 38.5809C29.1216 38.4792 29.1235 38.3756 29.1254 38.2722C29.1261 38.2345 29.1268 38.1968 29.1268 38.1593C29.1266 37.7617 29.1273 37.3642 29.1281 36.9667C29.1298 36.0628 29.1315 35.1589 29.1219 34.2552C29.114 33.5147 28.6043 32.9923 27.9222 32.9785C27.215 32.9641 26.6985 33.4856 26.6778 34.2566C26.668 34.6221 26.6699 34.9879 26.6718 35.3537C26.6727 35.5156 26.6735 35.6775 26.6733 35.8393C26.673 36.0993 26.6741 36.3592 26.6752 36.6193C26.6777 37.2386 26.6802 37.8581 26.6645 38.4771C26.6514 38.9971 26.2867 39.3395 25.8403 39.3185C25.4028 39.2979 25.1176 38.9739 25.0935 38.4629C25.0882 38.3485 25.0891 38.2338 25.09 38.1192V38.1191C25.0904 38.0754 25.0907 38.0317 25.0907 37.988C25.0906 37.471 25.0912 36.954 25.0917 36.4369C25.0929 35.213 25.0942 33.989 25.0874 32.7651C25.0826 31.9141 24.5754 31.3509 23.8513 31.3502C23.127 31.3494 22.6218 31.913 22.6139 32.7636C22.6066 33.5509 22.6081 34.3382 22.6096 35.1256C22.6103 35.4989 22.611 35.8722 22.6108 36.2455C22.6107 36.4534 22.6114 36.6614 22.6121 36.8694C22.614 37.4177 22.6158 37.966 22.6026 38.5139C22.5914 38.986 22.2826 39.2974 21.8622 39.3184C21.4535 39.3389 21.105 39.0336 21.0418 38.5837C21.0248 38.4625 21.0263 38.3385 21.0278 38.2148C21.0282 38.1797 21.0286 38.1446 21.0286 38.1096C21.0282 36.3241 21.0282 34.5387 21.0281 32.7532V32.7249L21.0281 30.5652C21.0281 30.2371 21.0307 29.909 21.0334 29.5808C21.0404 28.7126 21.0474 27.8445 21.0053 26.9787C20.9877 26.6173 20.7847 26.1995 20.5342 25.9309C20.2015 25.5741 19.7106 25.5573 19.262 25.7908C18.7784 26.0422 18.5722 26.4607 18.5733 27.0022C18.5767 28.7303 18.576 30.4584 18.5754 32.1864L18.5749 33.9136ZM22.6109 29.9565C24.8714 29.6289 25.6023 29.9513 26.5666 31.6873C27.5909 31.2699 28.6088 31.2443 29.5462 31.931C30.4842 32.6181 30.7883 33.5921 30.7145 34.6062C30.9153 34.6062 31.1149 34.5981 31.3128 34.59H31.3129H31.3129H31.313H31.3131H31.3131C31.7464 34.5724 32.1713 34.5552 32.5817 34.624C33.7067 34.8128 34.6915 35.8358 34.7013 36.9486C34.7061 37.4852 34.7152 38.0229 34.7244 38.5609V38.5609V38.5609V38.561V38.561V38.5611C34.7606 40.6804 34.7968 42.8055 34.5618 44.8967C34.039 49.5511 29.8788 53.4241 25.2203 53.9292C19.3768 54.5626 14.3013 50.8889 13.1536 45.1668C13.013 44.4663 12.9752 43.737 12.9648 43.0199C12.9416 41.4487 12.9482 39.877 12.9548 38.3054L12.9573 37.6943C12.9657 35.4701 14.6575 34.226 16.7991 34.8597C16.8307 34.8689 16.8633 34.8744 16.9071 34.8818L16.9073 34.8819C16.9315 34.8859 16.9593 34.8906 16.9921 34.8968L16.9923 32.3601C16.9924 31.8088 16.9911 31.2576 16.9897 30.7063C16.9867 29.412 16.9836 28.1176 16.9992 26.8234C17.0166 25.3823 18.12 24.2242 19.5597 24.0776C20.9114 23.9398 22.2554 24.8681 22.5215 26.2366C22.6188 26.7372 22.6137 27.2582 22.6086 27.7784C22.6066 27.9826 22.6046 28.1867 22.6088 28.3894C22.6163 28.7478 22.6145 29.1065 22.6126 29.4681C22.6118 29.6302 22.6109 29.793 22.6109 29.9565ZM6.67691 8.12472L6.36634 8.12464V6.4299C6.5059 6.4299 6.64355 6.42806 6.7798 6.42623L6.77987 6.42623H6.77989C7.08547 6.42213 7.38402 6.41812 7.68136 6.43525C8.15056 6.46212 8.45951 6.80582 8.46626 7.2549C8.47302 7.7037 8.17405 8.04712 7.71273 8.11423C7.6414 8.12472 7.56843 8.12449 7.49582 8.12426L7.45077 8.12422C7.19851 8.12493 6.94618 8.12483 6.67717 8.12472H6.67711H6.67704H6.67697H6.67691ZM6.92599 11.9497H6.92597H6.92594H6.92592H6.9259C6.74445 11.9471 6.56094 11.9443 6.37464 11.9443V9.73553C6.56328 9.73553 6.75237 9.7309 6.94144 9.72628H6.94145H6.94146H6.94147H6.94149C7.37566 9.71567 7.80969 9.70506 8.23779 9.75044C8.7852 9.80854 9.13116 10.3347 9.10682 10.8934C9.08248 11.4525 8.69362 11.8999 8.12523 11.9363C7.73029 11.9616 7.33332 11.9558 6.92599 11.9497ZM4.7596 8.17837C4.75992 8.51166 4.76024 8.84496 4.76024 9.17826C4.76028 9.52226 4.75976 9.86627 4.75924 10.2103V10.2103V10.2103V10.2103V10.2104V10.2105C4.75804 11.008 4.75683 11.8056 4.76263 12.603C4.76727 13.2549 5.0547 13.5551 5.68752 13.559C6.49507 13.5644 7.30389 13.5666 8.11032 13.531C9.25848 13.4802 10.0784 12.8936 10.4998 11.8402C10.912 10.8097 10.7339 9.82754 9.97304 9.00535C9.7357 8.74873 9.68477 8.58314 9.83474 8.24957C10.5566 6.64304 9.43659 4.89597 7.67306 4.84687C7.12241 4.83154 6.57112 4.83577 6.02003 4.84L5.77629 4.84181C5.03078 4.84701 4.7646 5.11235 4.76136 5.85885C4.75812 6.63197 4.75886 7.40516 4.7596 8.17837ZM27.0957 9.18688C27.0919 10.7381 28.3194 11.971 29.8657 11.9686C31.3925 11.9663 32.6138 10.757 32.6286 9.23275C32.6436 7.6794 31.4271 6.43585 29.885 6.42811C28.3309 6.42024 27.0995 7.63832 27.0957 9.18688ZM34.2113 9.20559C34.2067 11.6207 32.2639 13.5581 29.8533 13.5513C27.4398 13.5447 25.5101 11.6049 25.5129 9.18815C25.5159 6.77308 27.4533 4.84241 29.8709 4.84537C32.2854 4.84832 34.2158 6.78757 34.2113 9.20559ZM20.8733 9.17216C20.891 10.6939 19.6334 11.9622 18.0998 11.9693C16.5656 11.9764 15.3084 10.7258 15.3095 9.19369C15.3103 7.68058 16.5395 6.44111 18.0519 6.42817C19.5999 6.41495 20.8553 7.63598 20.8733 9.17216ZM13.7284 9.06777C13.6668 11.497 15.5753 13.494 18.0127 13.5508C20.4007 13.6064 22.3918 11.6891 22.4545 9.27346C22.5152 6.94154 20.5936 4.90915 18.2714 4.84866C15.8109 4.78464 13.7896 6.662 13.7284 9.06777ZM38.8374 7.44387L39.5249 6.81424C40.0739 6.31136 40.5873 5.84105 41.1014 5.37153C41.1289 5.34641 41.1561 5.32048 41.1833 5.29449C41.2713 5.21044 41.3599 5.12587 41.4625 5.06665C41.8465 4.84479 42.2234 4.87729 42.4976 5.23464C42.7842 5.60831 42.7332 6.00181 42.3912 6.32315C41.8279 6.8524 41.2583 7.37521 40.6888 7.898L40.6884 7.89842C40.4549 8.11274 40.2214 8.32705 39.9884 8.54181C39.8643 8.65616 39.7403 8.77074 39.5839 8.9154L39.4058 9.08008C39.5003 9.16499 39.594 9.24781 39.6866 9.3297L39.6866 9.32973L39.6866 9.32976C39.8862 9.50618 40.0808 9.67828 40.2684 9.85767C41.0433 10.5994 41.8168 11.3426 42.5813 12.0949C43.01 12.5167 43.0477 12.9417 42.7166 13.2985C42.3825 13.6588 41.9054 13.6331 41.4658 13.2128C40.8678 12.6415 40.2735 12.0665 39.6433 11.4567L39.6419 11.4553C39.3808 11.2027 39.1136 10.9442 38.8374 10.6775C38.8374 10.9125 38.838 11.1338 38.8386 11.3457C38.8399 11.8049 38.841 12.2201 38.8356 12.6351C38.828 13.2079 38.5212 13.5519 38.0411 13.5474C37.5664 13.543 37.2586 13.1942 37.2573 12.6198C37.252 10.3338 37.2517 8.04771 37.2576 5.76152C37.2592 5.1868 37.57 4.84549 38.0515 4.84704C38.5335 4.84845 38.8281 5.18779 38.836 5.76771C38.8407 6.11196 38.8397 6.45634 38.8385 6.84689C38.838 7.03365 38.8374 7.23097 38.8374 7.44387ZM19.6764 20.2853C16.491 20.3997 13.9021 22.926 13.822 25.9982C13.8009 26.8069 14.2421 27.2463 14.8557 27.0215C15.3142 26.8535 15.3854 26.4695 15.406 26.0423C15.5124 23.8513 17.1741 22.141 19.4328 21.8856C21.463 21.656 23.5107 23.0705 24.0515 25.1018C24.1247 25.3769 24.1575 25.6627 24.1904 25.9487C24.2077 26.0995 24.225 26.2505 24.2483 26.3999C24.3153 26.8283 24.592 27.0621 25.0042 27.0669C25.4453 27.072 25.7403 26.8211 25.7855 26.3712C25.8119 26.1066 25.7826 25.8339 25.7539 25.5664L25.7502 25.5321C25.4322 22.558 22.6744 20.1778 19.6764 20.2853Z" fill="url(#paint0_linear_0_95)"/>
<defs>
<linearGradient id="paint0_linear_0_95" x1="-12.4313" y1="14.7153" x2="18.865" y2="65.4498" gradientUnits="userSpaceOnUse">
<stop stop-color="#AC6C44"/>
<stop offset="1" stop-color="#301103"/>
</linearGradient>
</defs>
</svg>
