<svg width="48" height="54" viewBox="0 0 48 54" fill="none" xmlns="http://www.w3.org/2000/svg">
<path fill-rule="evenodd" clip-rule="evenodd" d="M30.6578 14.7041L30.6579 14.7039C31.809 13.045 32.941 11.4137 33.9727 9.72106C35.3556 7.45241 34.6554 4.4424 32.5823 2.79785C30.4769 1.12744 27.5005 1.18775 25.507 2.94112C23.4567 4.74482 22.9424 7.68819 24.4031 9.95994C25.4426 11.5767 26.537 13.1582 27.6498 14.7663L27.6498 14.7663L27.6498 14.7664C28.1416 15.477 28.637 16.1929 29.1328 16.9193C29.6399 16.171 30.1502 15.4355 30.6568 14.7054L30.6574 14.7046L30.6578 14.7041ZM8.02437 28.7441C8.52116 28.0085 9.02613 27.2826 9.52947 26.559C10.6906 24.8897 11.8431 23.233 12.8661 21.4999C14.0392 19.5121 13.752 17.4105 12.3284 15.5842C10.9305 13.7906 9.02471 13.1198 6.80498 13.5925C2.99287 14.4044 1.22741 18.766 3.3819 22.0316C4.38722 23.5552 5.42737 25.0559 6.4675 26.5566L6.46752 26.5567L6.46754 26.5567L6.46755 26.5567L6.46757 26.5567L6.46758 26.5568L6.4676 26.5568L6.46761 26.5568L6.46762 26.5568C6.90653 27.1901 7.34543 27.8233 7.7817 28.4582C7.81892 28.5126 7.86318 28.5621 7.9205 28.6261L7.92052 28.6261L7.92053 28.6261C7.95112 28.6603 7.98543 28.6986 8.02437 28.7441ZM29.9976 0C30.1679 0.0469083 30.3399 0.0895399 30.5118 0.13217C30.8824 0.224085 31.253 0.315994 31.6075 0.45075C35.9152 2.08869 37.588 7.17713 35.0497 11.0361C33.7935 12.9457 32.4905 14.8246 31.1875 16.7034L31.1874 16.7035C30.7487 17.336 30.3101 17.9685 29.8732 18.6022C29.4104 19.2737 28.8341 19.2564 28.3583 18.5699C28.0454 18.1184 27.7352 17.665 27.425 17.2116L27.425 17.2115C26.8724 16.4038 26.3199 15.5961 25.7518 14.7994C25.6101 14.6006 25.3299 14.4106 25.0938 14.3825C21.4664 13.9502 17.9933 14.5199 14.6783 16.0538C14.6491 16.0673 14.6246 16.0913 14.5949 16.1203C14.5793 16.1357 14.5622 16.1524 14.5422 16.1698C14.9741 17.329 15.2089 18.5155 15.0553 19.768C14.9109 20.944 14.5248 22.0198 13.8606 22.993C12.1673 25.4734 10.4672 27.9491 8.76362 30.4225C8.27969 31.1249 7.69917 31.1237 7.21538 30.4267C6.66484 29.6337 6.11849 28.8378 5.5721 28.0418L5.57199 28.0416L5.57188 28.0415L5.57177 28.0413L5.57166 28.0411C5.33638 27.6984 5.1011 27.3556 4.86547 27.0131L4.68677 27.0083C4.60046 27.4115 4.50383 27.8135 4.4072 28.2155C4.19721 29.0891 3.98721 29.9627 3.88312 30.8486C3.21965 36.5002 4.66512 41.5723 8.44559 45.8467C12.6727 50.6261 18.0473 52.8105 24.4247 52.3134C33.0545 51.6408 40.2866 45.0419 41.582 36.5249C42.7693 28.7188 40.0522 22.4302 33.7469 17.6854C33.5678 17.5506 33.3798 17.4012 33.2625 17.2164C33.058 16.8938 33.138 16.5627 33.4027 16.3059C33.7074 16.01 34.0765 15.9894 34.4123 16.2344C34.5247 16.3165 34.6376 16.3982 34.7506 16.4799L34.7509 16.4801C35.3074 16.8827 35.8654 17.2864 36.3724 17.745C41.3853 22.2793 43.8232 27.9247 43.3919 34.6847C42.7899 44.1219 35.9796 51.7764 26.6912 53.617C15.5036 55.8339 4.38013 48.1837 2.4624 36.9661C1.80428 33.1166 2.14958 29.3741 3.58126 25.7397C3.70161 25.434 3.65916 25.2286 3.47905 24.9771C2.98823 24.292 2.50641 23.5993 2.04976 22.8911C-0.0262781 19.672 0.720144 15.5017 3.76418 13.2565C6.81651 11.0054 11.0039 11.5245 13.4785 14.4607C13.5239 14.5146 13.5695 14.5682 13.6267 14.6354L13.627 14.6358L13.7196 14.7447C17.026 13.1558 20.5303 12.4724 24.309 12.6955C24.1619 12.4764 24.02 12.2686 23.8827 12.0676L23.8826 12.0675C23.5974 11.6499 23.3323 11.2619 23.0836 10.8637C20.7216 7.08307 22.4253 2.02922 26.5935 0.473667C26.9724 0.332249 27.3679 0.235467 27.7634 0.138685C27.9463 0.0939279 28.1292 0.0491711 28.3105 0H29.9976ZM16.5019 45.6777C17.0112 44.915 17.5285 44.1649 18.0431 43.4188L18.0431 43.4187C19.2314 41.6959 20.405 39.9942 21.431 38.2077C22.546 36.2665 22.1822 34.1986 20.7888 32.4395C19.4209 30.7125 17.5679 30.0433 15.4005 30.4606C11.5324 31.205 9.68975 35.6088 11.8646 38.9176C12.8144 40.3627 13.8002 41.7841 14.7859 43.2055C15.2201 43.8316 15.6543 44.4577 16.0854 45.0858C16.1616 45.1968 16.2395 45.3067 16.3351 45.4417L16.3353 45.442L16.3357 45.4426L16.4162 45.5562L16.5019 45.6777ZM16.4423 28.7449C19.2338 28.8488 21.365 30.0418 22.6911 32.4489C24.0164 34.8553 23.9599 37.3388 22.4745 39.6519C21.2255 41.5966 19.9033 43.4946 18.5812 45.3923L18.581 45.3926L18.5808 45.3929L18.5806 45.3932L18.5804 45.3935L18.5802 45.3938L18.58 45.3941L18.5797 45.3944C18.1158 46.0604 17.6518 46.7264 17.1911 47.3943C16.7676 48.0083 16.1719 47.9967 15.7404 47.3706C15.2767 46.6978 14.81 46.027 14.3433 45.3561L14.3431 45.3559C13.0351 43.4758 11.727 41.5956 10.4855 39.6726C8.9938 37.362 8.92336 34.8857 10.2405 32.4727C11.5697 30.0374 13.7209 28.8525 16.4423 28.7449ZM41.4532 6.32733H41.4532H41.4532H41.4533H41.4533H41.4533H41.4534C41.8137 6.32704 42.174 6.32676 42.5343 6.32676C42.903 6.32676 43.2716 6.32701 43.6403 6.32726C44.5356 6.32787 45.4309 6.32848 46.3263 6.3255C46.9504 6.32353 47.2967 6.03966 47.3021 5.54364C47.3075 5.04551 46.9596 4.74759 46.3428 4.74661C43.8323 4.74309 41.322 4.74351 38.8115 4.74647C38.1977 4.74717 37.8294 5.04593 37.8241 5.52719C37.8187 6.01126 38.1885 6.32282 38.7949 6.32521C39.681 6.32871 40.5671 6.32802 41.4532 6.32733ZM29.9292 35.0867C29.5518 35.0867 29.1744 35.0877 28.797 35.0886C27.8932 35.0908 26.9894 35.093 26.0859 35.0825C25.375 35.0742 24.9404 34.4611 25.2839 33.9354C25.4155 33.7342 25.7247 33.5329 25.955 33.5305C28.5871 33.5017 31.2196 33.5052 33.8517 33.5159C34.355 33.518 34.6557 33.8499 34.6481 34.305C34.6404 34.77 34.3198 35.0769 33.7724 35.0825C32.8657 35.0917 31.959 35.0899 31.0523 35.0882H31.0522H31.0522H31.0522H31.0522C30.6778 35.0874 30.3035 35.0867 29.9292 35.0867ZM39.5693 9.49174L39.5696 9.49174C39.7212 9.49072 39.8727 9.48971 40.0242 9.48975C40.1802 9.48975 40.3362 9.49056 40.4921 9.49137C40.8451 9.49319 41.198 9.49501 41.5506 9.4875C42.0829 9.47626 42.4256 9.16779 42.4354 8.71465C42.4455 8.26109 42.1016 7.91902 41.5823 7.91269C40.5648 7.90046 39.5467 7.89962 38.5292 7.91368C38.0365 7.92043 37.7069 8.24745 37.698 8.68316C37.6889 9.13798 38.0306 9.47204 38.5503 9.48666C38.8898 9.49629 39.2295 9.49401 39.5693 9.49174ZM27.3853 38.2497C27.2348 38.2497 27.0843 38.251 26.9339 38.2522C26.5933 38.2551 26.2527 38.2579 25.9125 38.2462C25.3785 38.2279 25.0451 37.9095 25.0449 37.4542C25.0449 36.9987 25.3778 36.6819 25.9148 36.6752C26.914 36.6624 27.9138 36.6624 28.9128 36.6753C29.4468 36.6822 29.7836 37.0036 29.7816 37.4561C29.7798 37.9082 29.4419 38.2291 28.9106 38.2464C28.5566 38.2578 28.2023 38.255 27.8481 38.2522C27.6938 38.251 27.5395 38.2498 27.3853 38.2497ZM7.95846 21.3436C6.63405 21.3263 5.61009 20.2704 5.62598 18.9383C5.6413 17.6431 6.68719 16.6156 7.98939 16.6169C9.30227 16.618 10.376 17.6935 10.364 18.9955C10.3521 20.3025 9.26796 21.3606 7.95846 21.3436ZM4.04666 18.8514C3.9983 21.0887 5.69121 22.8727 7.91178 22.925C10.0803 22.9762 11.8877 21.2421 11.9448 19.0557C12.0011 16.896 10.253 15.0858 8.06348 15.0368C5.90393 14.9884 4.09278 16.7083 4.04666 18.8514ZM31.487 7.15393C31.5011 5.82952 30.4597 4.75762 29.1487 4.74665C27.8421 4.73596 26.7554 5.80449 26.7484 7.10683C26.7416 8.38456 27.7962 9.46391 29.0755 9.48838C30.3901 9.51354 31.4731 8.46526 31.487 7.15393ZM33.0693 7.1088C33.0728 9.29576 31.3135 11.0671 29.1344 11.0704C26.966 11.0737 25.1727 9.2907 25.1665 7.12539C25.1603 4.96331 26.951 3.16846 29.1178 3.16453C31.3006 3.16073 33.0657 4.92282 33.0693 7.1088ZM16.4913 33.5137C17.8168 33.521 18.8464 34.5723 18.8336 35.9055C18.8211 37.1939 17.7665 38.244 16.4792 38.2493C15.186 38.2547 14.0921 37.1618 14.0952 35.8672C14.0985 34.5632 15.1743 33.5066 16.4913 33.5137ZM20.4151 35.8502C20.4074 33.6606 18.6493 31.9232 16.4496 31.9318C14.2731 31.9405 12.4964 33.7295 12.5134 35.8953C12.5305 38.0602 14.3406 39.8497 16.4944 39.831C18.6729 39.8121 20.4229 38.0353 20.4151 35.8502Z" fill="url(#paint0_linear_0_121)"/>
<defs>
<linearGradient id="paint0_linear_0_121" x1="-11.2196" y1="14.7153" x2="20.4529" y2="64.677" gradientUnits="userSpaceOnUse">
<stop stop-color="#AC6C44"/>
<stop offset="1" stop-color="#301103"/>
</linearGradient>
</defs>
</svg>
