<svg width="47" height="54" viewBox="0 0 47 54" fill="none" xmlns="http://www.w3.org/2000/svg">
<path fill-rule="evenodd" clip-rule="evenodd" d="M28.0562 10.3497C27.3873 10.3401 27.0516 9.8516 27.2236 9.1928C27.6019 7.74386 27.9891 6.29741 28.3763 4.85089L28.3764 4.85069L28.6696 3.75477L28.7245 3.54919L28.7247 3.54848C28.9685 2.63502 29.2124 1.72149 29.4646 0.810128C29.6332 0.200877 30.0419 -0.0955827 30.514 0.027384C31.0287 0.161517 31.2413 0.607463 31.0707 1.2484C30.6843 2.70111 30.2956 4.15317 29.907 5.60522L29.9064 5.60741C29.552 6.93163 29.1975 8.25585 28.8448 9.58054C28.7243 10.0329 28.4876 10.3362 28.0562 10.3497ZM38.9426 5.14116L38.9425 5.14128C38.8668 5.30177 38.8041 5.43487 38.7128 5.54419C36.6776 7.98357 34.6373 10.4188 32.5885 12.8467C32.2091 13.2963 31.7044 13.3547 31.3384 13.0438C30.9637 12.7254 30.9508 12.2479 31.3056 11.7766C31.3478 11.7206 31.3932 11.667 31.4386 11.6135L31.4728 11.573L32.2609 10.6345L32.2673 10.627L32.2702 10.6235C33.7314 8.88344 35.1925 7.14339 36.6549 5.40434C36.7375 5.30604 36.8174 5.20402 36.8974 5.10192C37.1125 4.8275 37.328 4.55248 37.5965 4.3476C37.8169 4.17941 38.2331 4.11549 38.497 4.20175C38.66 4.25505 38.781 4.43712 38.9051 4.62384C38.9607 4.70748 39.0169 4.79205 39.0778 4.86641C39.0252 4.96583 38.9821 5.05724 38.9426 5.14116ZM19.3106 39.4593L19.2479 39.5141L19.2451 39.5166L19.244 39.5175C19.088 39.6537 18.9461 39.7775 18.8372 39.8723L20.8285 41.8782L21.2135 41.5707L21.3173 41.4878L19.3106 39.4593ZM26.1457 50.7816C26.615 49.8512 26.4223 48.8757 25.6347 48.0772C24.6065 47.0347 23.5684 46.0018 22.5304 44.9689L22.5302 44.9686L22.5299 44.9684L22.5294 44.9679C22.2007 44.6408 21.8721 44.3138 21.5437 43.9865C21.4858 43.9287 21.4114 43.8876 21.4174 43.8921L20.6905 44.4384C21.0242 44.77 21.3542 45.0972 21.6813 45.4216L21.6852 45.4254L21.6853 45.4256L21.6855 45.4257L21.6871 45.4273C22.4504 46.1842 23.1982 46.9257 23.9418 47.6716C24.0628 47.7929 24.1859 47.9126 24.3092 48.0325L24.3093 48.0326C25.097 48.7985 25.8891 49.5686 26.1457 50.7816ZM17.3464 41.0104L14.2415 44.6218L16.1262 46.5094L19.4822 43.139L18.2751 41.9361L17.3464 41.0104ZM23.7458 17.7294C22.936 17.7015 22.6609 18.0653 22.8852 18.7946C23.5434 20.9345 24.9878 22.3635 27.0555 23.1504C27.3916 23.2784 27.9157 23.2869 28.193 23.1057C28.5911 22.846 28.402 22.3262 28.2609 21.9381L28.2597 21.9348C27.6086 20.1457 26.3597 18.8879 24.6786 18.0464C24.4333 17.9236 24.164 17.8487 23.9549 17.7906L23.9548 17.7906C23.8747 17.7683 23.8035 17.7485 23.7458 17.7294ZM19.1169 48.4988L19.1183 48.5002L19.1194 48.5014L19.1211 48.503L19.1212 48.5031C20.1524 49.5394 21.182 50.574 22.217 51.603C22.6548 52.0383 23.1944 52.2858 23.8183 52.3088C24.3385 52.3281 24.5991 52.0474 24.5657 51.5317C24.5201 50.827 24.1855 50.2717 23.6945 49.7846C22.8966 48.9931 22.1022 48.1981 21.3078 47.4032L21.3061 47.4015C20.8095 46.9045 20.3129 46.4076 19.8155 45.9115C19.7476 45.8438 19.6712 45.7848 19.614 45.7405C19.5922 45.7237 19.5732 45.709 19.5585 45.6968L17.9329 47.3096C18.3235 47.7015 18.7135 48.0934 19.1032 48.4851L19.1155 48.4974L19.1169 48.4988ZM18.9394 22.0219C20.4009 23.9823 22.1371 25.7221 24.067 27.1526L26.4515 24.7674C24.0392 23.7906 22.3122 22.0516 21.3339 19.6292L18.9394 22.0219ZM19.0505 19.4348L19.0512 19.4341L19.0513 19.434C19.9169 18.5731 20.7613 17.7333 21.5899 16.8782C22.31 16.1351 23.1663 15.8782 24.133 16.1365C27.0829 16.9246 28.9865 18.8545 29.925 21.7158C30.2808 22.8003 30.0276 23.8149 29.1304 24.6388C28.6223 25.1055 28.1383 25.5982 27.6542 26.091L27.6541 26.091C27.3376 26.4132 27.0211 26.7354 26.6977 27.0504C26.4429 27.2988 26.1721 27.5307 25.8871 27.7747C25.753 27.8895 25.6159 28.0069 25.4757 28.13C27.3582 29.291 29.1805 30.1464 31.2316 30.3454C33.9166 30.606 35.597 29.4123 35.4895 26.5185C35.439 25.1624 35.0395 23.8897 34.4651 22.6786C32.2695 18.0496 28.8438 14.5744 24.3827 12.1131C22.8538 11.2694 21.22 10.6857 19.4385 10.6198C17.1511 10.5352 15.7682 11.8247 15.7499 14.0945C15.7308 16.4726 16.7201 18.5111 17.9235 20.558C18.3034 20.1778 18.6789 19.8043 19.0505 19.4348ZM29.2913 31.8073C22.035 29.0387 17.0276 24.0509 14.2965 16.7727C14.2738 16.8271 14.2502 16.8829 14.2261 16.9398C14.1717 17.0682 14.1151 17.2018 14.062 17.3369C12.3568 21.6752 10.0184 25.6301 6.87831 29.087C6.35308 29.6652 5.8034 30.2213 5.25378 30.7774C4.64209 31.3963 4.03047 32.0151 3.45269 32.6642C1.13405 35.2688 1.0852 39.3232 3.28743 41.9073C5.64822 44.6778 9.5438 45.321 12.5549 43.3277C13.3977 42.7697 14.1292 42.0309 14.8521 41.3008L14.8522 41.3007L14.8524 41.3005L14.8525 41.3004C14.9719 41.1798 15.0911 41.0594 15.2106 40.9401C18.2811 37.8732 21.7186 35.3216 25.6368 33.4411C26.4749 33.0387 27.3275 32.667 28.1668 32.301C28.5452 32.136 28.9209 31.9722 29.2913 31.8073ZM23.3522 54.0001C22.0585 53.7211 21.107 52.9249 20.2211 51.9942C19.5516 51.291 18.8612 50.6076 18.1709 49.9241L18.1706 49.9239L18.1703 49.9236C17.7991 49.5562 17.4279 49.1887 17.06 48.8182L17.0528 48.811C16.8534 48.6101 16.6952 48.4507 16.35 48.5978C15.9691 48.76 15.6475 48.5231 15.3729 48.2461C15.0701 47.9406 14.7654 47.6369 14.4607 47.3333L14.4602 47.3329L14.4598 47.3324C13.8933 46.768 13.3268 46.2036 12.7729 45.627C12.5371 45.3818 12.347 45.3652 12.0465 45.4851C6.64466 47.6413 0.793483 44.2356 0.0755023 38.465C-0.289908 35.5277 0.680286 32.9967 2.78524 30.9131C4.6349 29.0818 6.43515 27.21 7.96756 25.0944C9.88492 22.4469 11.3742 19.5737 12.5799 16.5437C12.8537 15.8555 13.1365 15.1707 13.4193 14.486L13.4194 14.4859L13.4194 14.4858C13.7527 13.6788 14.0861 12.8717 14.4048 12.0588C15.1976 10.0365 16.7525 9.1044 18.8313 8.97334C21.3084 8.8173 23.5412 9.66857 25.633 10.8723C30.0354 13.4054 33.4492 16.9201 35.7646 21.4541C36.7332 23.3507 37.3727 25.3574 37.1684 27.5307C36.9926 29.404 36.107 30.811 34.3253 31.5645C33.4878 31.9186 32.6485 32.2684 31.8092 32.6182L31.8091 32.6183L31.8089 32.6183L31.8078 32.6188C30.17 33.3014 28.5322 33.984 26.9085 34.6986C24.7649 35.6419 22.7784 36.8714 20.8867 38.2518C20.8525 38.2769 20.8216 38.3066 20.7797 38.3469L20.7796 38.3469L20.7796 38.347C20.7563 38.3694 20.7297 38.395 20.6973 38.4248C20.9068 38.6324 21.1147 38.8382 21.3213 39.0428L21.3234 39.0448L21.3256 39.047C21.7981 39.5147 22.2641 39.9761 22.7286 40.4393C23.5887 41.2967 23.5906 41.5135 22.7592 42.3841C22.7223 42.4227 22.6881 42.4638 22.6403 42.5213L22.64 42.5216L22.64 42.5216C22.6117 42.5556 22.5787 42.5953 22.5375 42.6436C22.6723 42.7737 22.8067 42.902 22.9405 43.0296L22.9406 43.0296C23.228 43.3038 23.512 43.5749 23.7885 43.8534C24.1101 44.1778 24.4372 44.4977 24.7642 44.8176L24.7643 44.8176L24.7643 44.8177L24.7644 44.8177C25.5567 45.5927 26.3492 46.3679 27.0654 47.2079C29.0829 49.5745 27.9564 53.0378 24.9601 53.8657C24.8559 53.8945 24.7523 53.9264 24.6488 53.9583L24.6485 53.9584L24.6483 53.9585L24.5641 53.9844L24.5124 54.0001H23.3522ZM34.7373 16.6075C34.8105 16.6631 34.8818 16.7173 34.9403 16.7723C35.0619 16.7287 35.1679 16.693 35.263 16.6609L35.2636 16.6607L35.2638 16.6606L35.2639 16.6606L35.264 16.6606C35.4413 16.6008 35.5806 16.5539 35.7131 16.4923C38.3368 15.2742 40.9585 14.0517 43.5795 12.8277C43.7375 12.7539 43.8984 12.675 44.035 12.5688C44.3696 12.3091 44.4524 11.9541 44.2783 11.5827C44.0949 11.1909 43.7619 11.0179 43.3236 11.1361C43.1558 11.1813 42.9927 11.2511 42.8345 11.3248C40.2447 12.5327 37.6556 13.7421 35.068 14.9545C35.0243 14.9749 34.9769 14.9944 34.9287 15.0142C34.768 15.0802 34.5994 15.1496 34.5363 15.2692C34.3958 15.5365 34.2542 15.8972 34.3285 16.1571C34.3795 16.3354 34.5639 16.4756 34.7373 16.6075ZM40.5399 21.395C40.891 21.3951 41.242 21.3952 41.593 21.3952C41.9504 21.3952 42.3078 21.3954 42.6651 21.3956C43.4846 21.3961 44.3041 21.3966 45.1238 21.3945C45.8879 21.3924 46.2718 21.0993 46.2645 20.5349C46.2574 19.9941 45.8833 19.7166 45.1489 19.7147C44.5012 19.7129 43.8536 19.7133 43.2059 19.7137C42.9226 19.7139 42.6392 19.7141 42.3558 19.7141C41.9278 19.7141 41.4997 19.7136 41.0716 19.7131C40.0242 19.7119 38.9767 19.7106 37.9293 19.7174C37.2641 19.7219 36.8353 20.1975 36.9908 20.7439C37.1352 21.251 37.5294 21.3959 38.0096 21.3954C38.8531 21.3947 39.6965 21.3949 40.5399 21.395Z" fill="url(#paint0_linear_0_149)"/>
<defs>
<linearGradient id="paint0_linear_0_149" x1="-12.0547" y1="14.7153" x2="19.6646" y2="64.5776" gradientUnits="userSpaceOnUse">
<stop stop-color="#AC6C44"/>
<stop offset="1" stop-color="#301103"/>
</linearGradient>
</defs>
</svg>
