<svg width="34" height="43" viewBox="0 0 34 43" fill="none" xmlns="http://www.w3.org/2000/svg">
<path fill-rule="evenodd" clip-rule="evenodd" d="M27.0355 4.00021V4.00023V4.00026V4.00028V4.0003V4.00033V4.00035C27.035 4.2339 27.0345 4.46743 27.0345 4.70095C27.0346 4.92517 27.035 5.1494 27.0355 5.37363V5.37416C27.0366 5.90404 27.0377 6.43392 27.0331 6.9638C27.027 7.66511 26.6263 8.10384 26.0176 8.09265C25.4283 8.08178 25.0449 7.64966 25.0423 6.96581C25.0366 5.44325 25.0366 3.9208 25.0423 2.39823C25.0449 1.70744 25.4632 1.25035 26.0576 1.26266C26.6369 1.27487 27.0275 1.72144 27.0331 2.39622C27.0376 2.93065 27.0365 3.46519 27.0355 3.99968V4.00021ZM17.7965 3.99981L17.7965 4.00256C17.7961 4.23461 17.7956 4.46666 17.7956 4.69871C17.7956 4.92302 17.7961 5.14734 17.7966 5.37167C17.7977 5.90166 17.7988 6.43166 17.7941 6.96156C17.7881 7.66444 17.3892 8.10261 16.7804 8.09265C16.1905 8.08302 15.8057 7.651 15.8032 6.96816C15.7974 5.44549 15.7977 3.92292 15.803 2.40036C15.8055 1.7089 16.2216 1.25158 16.8161 1.26266C17.3958 1.27353 17.7882 1.71965 17.794 2.39386C17.7988 2.92911 17.7977 3.46446 17.7965 3.99981ZM6.56155 5.38471C6.56198 5.15563 6.5624 4.92655 6.5624 4.69747C6.5624 4.46453 6.56195 4.2316 6.56149 3.99868L6.56149 3.99797V3.99794V3.99791V3.99788V3.99785V3.99782V3.99779C6.56045 3.46268 6.55941 2.92763 6.56386 2.39263C6.56957 1.71942 6.96272 1.27274 7.54254 1.26266C8.13748 1.25247 8.55236 1.70856 8.55494 2.40148C8.56065 3.92416 8.56098 5.44672 8.55471 6.96928C8.55191 7.65201 8.16503 8.0838 7.57546 8.09265C6.96686 8.10172 6.56923 7.66299 6.56374 6.96032C6.55961 6.43512 6.56058 5.90991 6.56155 5.38471ZM26.7416 0.127238L26.7416 0.127225C26.6458 0.0859865 26.55 0.0447477 26.4566 0H25.6168C25.5234 0.0449129 25.4276 0.0863403 25.3318 0.127767C25.1209 0.218959 24.91 0.310148 24.7249 0.438506C24.0816 0.884514 23.7899 1.53387 23.7827 2.30854C23.7773 2.88915 23.7786 3.46987 23.7798 4.05807V4.05824V4.05841V4.05858V4.05875V4.05892V4.05909V4.06015V4.06121V4.06228V4.06335V4.06442V4.06549C23.7804 4.32111 23.7809 4.57816 23.7809 4.83722H19.0556V2.8121C19.0556 1.15852 18.7039 0.620358 17.2184 0H16.3786C16.2851 0.044922 16.1892 0.0863516 16.0933 0.12778L16.0933 0.127793C15.8825 0.218856 15.6717 0.309917 15.4866 0.438058C14.8431 0.883842 14.5508 1.53275 14.5436 2.30753C14.5383 2.88707 14.5396 3.46672 14.5408 4.05395L14.5408 4.05486C14.5414 4.31389 14.5419 4.57438 14.5419 4.837H9.81637V2.81311C9.81626 1.15964 9.46599 0.623045 7.98026 0H7.14043C5.65504 0.616774 5.30254 1.15595 5.30254 2.81177V4.86051C4.98707 4.86051 4.67593 4.86014 4.36776 4.85977H4.36728H4.36679H4.36631H4.36582H4.36534H4.36486H4.36472H4.36458H4.36444H4.3643H4.36417H4.36403C3.67622 4.85893 3.00326 4.85812 2.33031 4.86152C0.943683 4.86846 0.0101227 5.79654 0.00284418 7.17521C-0.00167801 8.04861 0.000120046 8.9221 0.00191794 9.79552L0.00239626 10.0301C0.00351604 10.5661 0.219298 10.845 0.627121 10.8474C1.03651 10.8499 1.25957 10.5695 1.26092 10.039C1.26182 9.66833 1.2613 9.29762 1.26079 8.9269V8.92686C1.25996 8.33201 1.25913 7.73715 1.26416 7.14229C1.26875 6.5908 1.59204 6.15554 2.08127 6.14098C2.83022 6.11872 3.57996 6.12308 4.34512 6.12754C4.66128 6.12938 4.98008 6.13124 5.30254 6.13124C5.30254 6.22916 5.30232 6.32389 5.30211 6.41644L5.30211 6.4168V6.41688V6.41695V6.41703V6.4171V6.41717V6.41724C5.30166 6.61526 5.30123 6.80333 5.30298 6.99134C5.31541 8.35311 6.2707 9.35509 7.55654 9.35676C8.84261 9.35822 9.79979 8.35904 9.81569 6.99638C9.81802 6.79834 9.8174 6.60025 9.81679 6.40802V6.4079V6.40779V6.40767C9.81652 6.32199 9.81625 6.23747 9.81625 6.15464H14.5415C14.5415 6.2514 14.5413 6.34458 14.5411 6.43532C14.5407 6.6255 14.5403 6.80501 14.5418 6.98451C14.5537 8.34919 15.5034 9.35117 16.7888 9.35676C18.0746 9.36225 19.0385 8.36206 19.0549 7.00321C19.0574 6.80553 19.0567 6.60779 19.056 6.41348V6.41307C19.0557 6.3253 19.0554 6.23823 19.0554 6.15218H23.7808C23.7808 6.25182 23.7805 6.34819 23.7802 6.44233V6.44247V6.44259V6.44272V6.44285V6.44297C23.7795 6.64179 23.7789 6.8307 23.7814 7.01956C23.7992 8.3549 24.7502 9.34624 26.0213 9.35665C27.3061 9.36718 28.2769 8.36565 28.2938 7.00993C28.2963 6.81411 28.2957 6.61828 28.295 6.41428C28.2947 6.31837 28.2944 6.22064 28.2944 6.12027L29.1496 6.1202C29.792 6.12013 30.414 6.12007 31.036 6.12038C32.0398 6.12083 32.3354 6.41566 32.3354 7.41798L32.3355 15.9367C32.3355 21.5917 32.3356 27.2467 32.336 32.9018C32.336 32.9395 32.3351 32.9776 32.3341 33.0158V33.0158C32.3311 33.1329 32.3281 33.2507 32.353 33.3617C32.4211 33.6653 32.6148 33.8535 32.9393 33.8641C33.2825 33.8756 33.4925 33.692 33.5763 33.3714C33.6003 33.2793 33.598 33.1796 33.5958 33.0809C33.5952 33.0523 33.5945 33.0238 33.5945 32.9956C33.5952 24.417 33.5954 15.8385 33.594 7.25998V7.25068V7.25065V7.25062V7.25059V7.25056V7.25052V7.25049C33.5939 7.07214 33.5938 6.89083 33.5626 6.71655C33.3659 5.61547 32.4841 4.87317 31.3514 4.86287C30.6565 4.85651 29.9617 4.85799 29.2514 4.8595H29.2511H29.2508H29.2505H29.2502H29.2499H29.2496C28.9346 4.86017 28.6165 4.86085 28.2941 4.86085C28.2941 4.59184 28.2946 4.32702 28.2952 4.06513L28.2952 4.06306V4.06277V4.06248V4.06219V4.06191V4.06163V4.06135C28.2964 3.46707 28.2976 2.8878 28.2923 2.30865C28.2851 1.53354 27.9923 0.88429 27.3494 0.437722C27.1642 0.309138 26.9529 0.218189 26.7416 0.127238ZM12.7061 42.9996L16.7913 42.9995L20.7731 42.9998H20.7892C24.2704 43.0001 27.7517 43.0005 31.2328 42.9984C32.6594 42.9975 33.5909 42.0589 33.5945 40.6275C33.5978 39.2141 33.5963 37.8007 33.5946 36.3873C33.5939 35.8594 33.3683 35.5658 32.9701 35.5624C32.57 35.559 32.3369 35.8539 32.3361 36.3772C32.3348 37.3039 32.335 38.2307 32.3352 39.1575L32.3354 40.4074C32.3353 41.4369 32.0371 41.7396 31.0221 41.7396C21.5343 41.7397 12.0467 41.7397 2.5589 41.7396C1.56901 41.7396 1.26163 41.43 1.26163 40.4334L1.26157 29.655L1.26141 13.4817C1.26141 12.8452 1.051 12.5344 0.625374 12.5391C0.202434 12.5438 0.00188117 12.85 0.00188117 13.4936L0.00183567 16.8731C0.00172545 24.7586 0.00161522 32.6441 0.00210512 40.5295C0.00210512 42.099 0.90364 42.9989 2.47581 42.9993C5.88584 42.9997 9.29599 42.9996 12.7061 42.9996ZM20.5358 25.9788L21.584 25.9788H21.5969C23.3427 25.9789 25.0885 25.9789 26.8344 25.9782C26.8615 25.9781 26.8887 25.9783 26.9158 25.9785H26.9159H26.9159H26.9159H26.9159H26.9159C27.0431 25.9794 27.171 25.9802 27.2951 25.9605C27.6604 25.9025 27.8685 25.678 27.889 25.3094C27.9096 24.9409 27.7276 24.6918 27.3717 24.5949C27.2261 24.5552 27.0673 24.5529 26.9146 24.5528C22.6736 24.5507 18.4324 24.5507 14.1913 24.5529C14.0387 24.553 13.8806 24.5578 13.7345 24.5962C13.3739 24.6914 13.1926 24.957 13.2157 25.3128C13.2387 25.6665 13.4461 25.9097 13.8182 25.9613C13.9478 25.9792 14.0803 25.9787 14.2121 25.9783L14.2791 25.9782C16.0133 25.9789 17.7475 25.9789 19.4817 25.9788H19.4945L20.5358 25.9788ZM20.5284 27.2381C19.8672 27.238 19.206 27.239 18.5447 27.24C17.0245 27.2423 15.5042 27.2446 13.9841 27.2336C12.5946 27.2235 11.676 26.0404 12.0187 24.7462C12.255 23.8539 13.0344 23.2963 14.0785 23.293C15.3725 23.2889 16.6665 23.2898 17.9604 23.2907C18.4983 23.291 19.0362 23.2914 19.5741 23.2914C20.267 23.2914 20.9599 23.2911 21.6528 23.2908L21.6678 23.2908C23.459 23.2902 25.2502 23.2895 27.0415 23.2933C28.0024 23.2952 28.7216 23.7618 29.0291 24.5566C29.5337 25.8606 28.6031 27.2159 27.1567 27.232C25.7599 27.2475 24.3629 27.2444 22.966 27.2412H22.9659H22.9659H22.9659H22.9658H22.9658C22.3631 27.2398 21.7604 27.2385 21.1577 27.2386C20.948 27.2386 20.7382 27.2386 20.5284 27.2381ZM19.1884 32.8934L20.5597 32.8935L21.6705 32.8935C23.3999 32.8934 25.1292 32.8934 26.8585 32.8944C26.8825 32.8944 26.9067 32.8943 26.9309 32.8941H26.931H26.9311H26.9312H26.9313C27.0613 32.8934 27.1925 32.8926 27.3188 32.9156C27.6632 32.9782 27.8625 33.1963 27.8884 33.5448C27.9158 33.9124 27.743 34.1694 27.3888 34.272C27.2313 34.3177 27.0571 34.3192 26.8906 34.3193C22.6635 34.3218 18.4364 34.3216 14.2092 34.3196C14.0564 34.3195 13.8991 34.316 13.7517 34.2809C13.3888 34.194 13.2155 33.9348 13.2108 33.5769C13.2063 33.2301 13.4789 32.942 13.842 32.9098C14.0685 32.8899 14.297 32.8915 14.5253 32.8932H14.5253H14.5255H14.5256C14.5914 32.8936 14.6572 32.8941 14.723 32.894C16.2114 32.8933 17.6999 32.8933 19.1884 32.8934ZM18.6245 35.5819C19.2686 35.5814 19.9126 35.5809 20.5566 35.5809L21.9794 35.5811C23.6166 35.5813 25.2539 35.5815 26.8911 35.5792C27.0999 35.5788 27.3114 35.5697 27.5173 35.5369C28.6926 35.3498 29.4247 34.1598 29.0707 33.0231C28.7934 32.1324 28.0691 31.636 27.0132 31.6352C23.0745 31.6323 19.1356 31.6335 15.1968 31.6346L14.0924 31.635C13.9389 31.635 13.7842 31.6398 13.6319 31.6581C12.5737 31.7858 11.7904 32.8452 11.9738 33.8957C12.1549 34.933 12.9329 35.5742 14.0541 35.5785C15.5776 35.5841 17.1011 35.583 18.6245 35.5819ZM20.535 17.647L21.4331 17.647C23.2448 17.647 25.0564 17.647 26.868 17.6465C26.9008 17.6465 26.9338 17.6471 26.9668 17.6476C27.0742 17.6493 27.182 17.6511 27.2867 17.6344C27.6287 17.5802 27.843 17.3774 27.8854 17.0304C27.9297 16.666 27.772 16.3964 27.4229 16.2801C27.256 16.2245 27.0664 16.2216 26.8871 16.2216C22.6651 16.2186 18.443 16.2186 14.2211 16.2216C14.0419 16.2217 13.8535 16.2273 13.6852 16.2805C13.3512 16.3863 13.1867 16.6516 13.2159 16.9897C13.2464 17.3442 13.4583 17.5798 13.8253 17.6347C13.9312 17.6505 14.0398 17.6489 14.1481 17.6474H14.1481H14.1482C14.1802 17.647 14.2121 17.6465 14.244 17.6465C16.0436 17.647 17.8433 17.647 19.6429 17.647L20.535 17.647ZM18.5581 18.9067H18.5581C17.002 18.9097 15.4459 18.9126 13.8899 18.8989C12.5793 18.8874 11.6806 17.6611 12.0209 16.4042C12.2578 15.5289 13.0447 14.9619 14.0465 14.9607C16.1186 14.9584 18.1908 14.9588 20.263 14.9592H20.2652C21.0592 14.9593 21.8532 14.9595 22.6471 14.9595C23.0869 14.9595 23.5266 14.9587 23.9663 14.9579C25.037 14.9559 26.1077 14.954 27.1783 14.9636C28.1533 14.9725 28.9507 15.64 29.1285 16.555C29.3027 17.4507 28.8441 18.3749 27.9977 18.7205C27.6851 18.8482 27.321 18.8964 26.9798 18.8989C25.3606 18.9105 23.7415 18.9091 22.1223 18.9077C21.5877 18.9072 21.0532 18.9067 20.5187 18.9067V18.9043C19.8652 18.9043 19.2116 18.9055 18.5581 18.9067H18.5581H18.5581ZM7.74053 15.9192L6.92056 16.9052C6.84688 16.7871 6.77535 16.6716 6.70502 16.5581L6.70498 16.558C6.54681 16.3027 6.39477 16.0572 6.23828 15.8146C5.99114 15.4313 5.64245 15.3212 5.32062 15.5143C4.99801 15.7078 4.93183 16.0752 5.16632 16.4663C5.45395 16.9458 5.74881 17.4209 6.04363 17.896L6.04375 17.8962L6.17524 18.1082C6.5788 18.759 6.99021 18.7893 7.48168 18.2001C8.56 16.9075 9.63601 15.6128 10.712 14.3183L11.048 13.914C11.0657 13.8927 11.0838 13.8715 11.1019 13.8503L11.1019 13.8503C11.175 13.7646 11.2486 13.6783 11.3015 13.5813C11.4618 13.2868 11.4224 13.0053 11.1631 12.7898C10.9043 12.5747 10.6196 12.5857 10.3588 12.7952C10.2768 12.8611 10.2093 12.9457 10.1422 13.0299C10.1216 13.0557 10.101 13.0815 10.08 13.1067C9.30434 14.0386 8.52909 14.9709 7.74356 15.9155L7.74133 15.9182L7.74053 15.9192ZM6.91925 25.2215L9.67413 21.9071C9.73439 21.8346 9.7939 21.7615 9.8534 21.6883C9.98795 21.5228 10.1225 21.3573 10.2658 21.1999C10.531 20.9085 10.8917 20.8749 11.1622 21.0981C11.4361 21.3241 11.4853 21.6866 11.2322 21.9942C9.94478 23.5588 8.65099 25.1182 7.3469 26.669C7.02171 27.0559 6.5673 27.0216 6.29374 26.6007C5.8904 25.9804 5.50508 25.3481 5.12884 24.7109C4.92728 24.3697 5.01865 24.0128 5.31685 23.831C5.61336 23.6505 5.97516 23.7318 6.19095 24.0548C6.36258 24.3114 6.52353 24.5751 6.69143 24.8502L6.69147 24.8503L6.69168 24.8507C6.76568 24.9719 6.84104 25.0954 6.91925 25.2215ZM7.75112 32.5913C7.47604 32.9224 7.19882 33.256 6.91865 33.5931C6.8451 33.4742 6.77469 33.3602 6.70632 33.2494C6.56444 33.0195 6.4313 32.8037 6.29694 32.5887C5.99886 32.1119 5.65677 31.9802 5.3074 32.205C4.97404 32.4197 4.94078 32.7821 5.21737 33.2358C5.46809 33.6468 5.7207 34.0567 5.97334 34.4666C6.02851 34.5561 6.08368 34.6456 6.13883 34.7352C6.59245 35.4713 6.96971 35.5023 7.52288 34.8386C8.70467 33.4208 9.88275 32 11.0608 30.5792L11.1131 30.5161C11.1181 30.5101 11.1231 30.5041 11.1281 30.4981C11.2034 30.4075 11.2811 30.3141 11.3287 30.2091C11.4605 29.9187 11.3947 29.6563 11.1472 29.4599C10.8974 29.2616 10.6243 29.2605 10.3804 29.4676C10.2591 29.5706 10.1561 29.6964 10.0539 29.8212C10.0318 29.8482 10.0097 29.8752 9.98751 29.9019C9.24673 30.7913 8.50698 31.6816 7.75112 32.5913Z" fill="url(#paint0_linear_0_162)"/>
<defs>
<linearGradient id="paint0_linear_0_162" x1="-8.75403" y1="11.7178" x2="17.4163" y2="49.2354" gradientUnits="userSpaceOnUse">
<stop stop-color="#AC6C44"/>
<stop offset="1" stop-color="#301103"/>
</linearGradient>
</defs>
</svg>
