<svg width="59" height="50" viewBox="0 0 59 50" fill="none" xmlns="http://www.w3.org/2000/svg">
<path fill-rule="evenodd" clip-rule="evenodd" d="M9.05108 26.3029L9.0511 29.1205C9.05114 34.2951 9.05118 39.4696 9.05002 44.6442C9.05002 44.6758 9.05019 44.7076 9.05039 44.7394L9.05056 44.7649C9.0519 44.9675 9.05326 45.1714 9.02069 45.3691C8.94061 45.8555 8.62881 46.1277 8.12828 46.1497C7.62912 46.1719 7.29133 45.9303 7.16247 45.455C7.1099 45.2606 7.10519 45.0497 7.10488 44.8463L7.09569 37.8426L7.09569 37.8415C7.0824 27.8743 7.06911 17.907 7.06689 7.93979C7.06598 3.60674 10.4208 0.208923 14.8329 0.0111656C17.585 -0.112172 19.8947 0.783403 21.7098 2.84166C21.8457 2.99572 21.9862 3.15738 22.0732 3.33918C22.2838 3.77944 22.1917 4.18107 21.8125 4.49485C21.4475 4.79686 20.9217 4.77866 20.564 4.45011C20.4308 4.3278 20.314 4.18829 20.1971 4.0488C20.1447 3.98623 20.0923 3.92366 20.0384 3.86266C17.4203 0.898686 11.4568 1.13716 9.56407 5.47812C9.20273 6.30703 9.03482 7.27807 9.02783 8.18528C8.99319 12.745 8.99726 17.305 9.00134 21.8651V21.8651C9.00266 23.3444 9.00398 24.8236 9.00398 26.3029H9.05108ZM58.3496 46.358C58.318 46.4516 58.2884 46.5459 58.2588 46.6403C58.1943 46.846 58.1298 47.0516 58.0446 47.2488C57.3473 48.8646 56.1204 49.8483 54.3253 49.9446C52.9644 50.0175 51.598 50.0026 50.2327 49.9877H50.2322H50.2317H50.2311C49.8872 49.984 49.5432 49.9802 49.1995 49.9779C48.4659 49.973 48.1381 49.6015 48.134 48.8197C48.1273 47.5884 48.1285 46.3571 48.1297 45.1258C48.1302 44.6236 48.1307 44.1214 48.1307 43.6192V42.9536H47.3405L44.2384 42.9537C38.7966 42.9537 33.3547 42.9538 27.9127 42.9517L27.8455 42.9517C27.6022 42.9521 27.3538 42.9524 27.1204 42.8999C26.6305 42.7897 26.3836 42.4479 26.3976 41.9631C26.4108 41.5042 26.6612 41.1878 27.1283 41.0875C27.3479 41.0403 27.5805 41.0397 27.8072 41.0397C34.758 41.0374 41.7087 41.0374 48.6594 41.0382C49.8111 41.0384 50.0708 41.2866 50.0759 42.4169C50.0813 43.5763 50.0807 44.7358 50.0801 45.8952C50.0799 46.3946 50.0797 46.894 50.0799 47.3935V48.0154C50.5426 48.0154 51.0005 48.0233 51.4546 48.0312L51.4551 48.0312H51.4552H51.4553H51.4553C52.5055 48.0493 53.5354 48.0672 54.557 47.9858C55.5913 47.9035 56.3886 46.8558 56.3971 45.7904C56.4199 42.9762 56.4268 40.1612 56.3938 37.3471C56.3789 36.0831 55.3379 35.1257 54.0351 35.075C53.542 35.0557 53.0474 35.0618 52.5538 35.0715C51.1741 35.0988 50.1907 36.013 50.0919 37.3611C50.0806 37.5155 50.0798 37.6708 50.0791 37.8261C50.0782 38.0067 50.0773 38.1872 50.0598 38.3661C50.0083 38.8938 49.6345 39.2276 49.127 39.2347C48.6383 39.2417 48.2323 38.947 48.1688 38.4538C47.8082 35.6511 49.3757 33.7891 51.5265 33.2908C51.9273 33.1979 52.0449 33.065 52.0405 32.6729C52.0295 31.6495 52.0308 30.6259 52.0321 29.6023C52.0332 28.7992 52.0342 27.9962 52.0293 27.1932C52.0161 25.0499 50.6833 23.7525 48.5023 23.7506C45.8358 23.7482 43.1693 23.7487 40.5028 23.7492C39.4091 23.7494 38.3154 23.7496 37.2217 23.7496H36.5864V24.3837L36.5864 27.5896L36.5864 34.0015C36.5864 34.0436 36.5869 34.0857 36.5873 34.1278L36.5873 34.1289C36.5885 34.2356 36.5896 34.3424 36.5835 34.4487C36.5505 35.0377 36.1775 35.4125 35.6258 35.4169C35.0731 35.4213 34.6729 35.0498 34.6521 34.4662C34.6365 34.0297 34.6396 33.5925 34.6427 33.1554C34.644 32.9772 34.6452 32.7991 34.6452 32.621C34.645 30.6042 34.645 28.5872 34.645 26.5703V26.4814L34.6451 24.4011V23.7496H34.0309L30.6996 23.7493C27.9738 23.749 25.2481 23.7486 22.5223 23.7503C20.2801 23.7518 18.965 25.0535 18.956 27.2718C18.9552 27.4743 18.9562 27.6769 18.9572 27.8794C18.9594 28.3294 18.9616 28.7793 18.9442 29.2286C18.9221 29.8005 18.5547 30.1504 18.0218 30.1655C17.4914 30.1804 17.0388 29.8441 17.0363 29.2923C17.0352 29.0737 17.0318 28.8541 17.0283 28.6341L17.0283 28.6339C17.0134 27.6946 16.9984 26.7479 17.1748 25.8412C17.6495 23.4021 19.7723 21.8472 22.4201 21.8442C26.8694 21.8391 31.3187 21.84 35.768 21.841C37.5478 21.8414 39.3275 21.8418 41.1073 21.8418C41.8686 21.8418 42.63 21.8415 43.3914 21.8411H43.3914H43.3914H43.3915C45.0799 21.8404 46.7684 21.8397 48.4569 21.8425C51.7904 21.8482 53.9702 23.994 53.98 27.2794C53.9836 28.4723 53.9827 29.6653 53.9818 30.8582V30.8613C53.9814 31.4007 53.981 31.9402 53.981 32.4797V33.1096C54.1096 33.1328 54.2355 33.1523 54.359 33.1715C54.6216 33.2122 54.8733 33.2513 55.1162 33.3201C56.6302 33.749 57.6412 34.7038 58.1437 36.1732C58.188 36.3031 58.2359 36.4319 58.2838 36.5607L58.2839 36.5609L58.284 36.5611L58.284 36.5613L58.2843 36.5619L58.2845 36.5626C58.3063 36.6212 58.3281 36.6799 58.3496 36.7386V46.358ZM0 48.7069C0.311958 48.217 0.764471 48.0616 1.34493 48.0652C3.15292 48.0766 4.96097 48.0759 6.76905 48.0752C7.75277 48.0749 8.73649 48.0745 9.72022 48.0761C9.94587 48.0764 10.1834 48.0819 10.3947 48.1481C10.8439 48.289 11.0743 48.6233 11.0478 49.084C11.0217 49.5423 10.764 49.8483 10.2979 49.9466C10.1194 49.9841 9.93067 49.9842 9.74614 49.9843L9.73146 49.9843C8.8755 49.985 8.01954 49.9844 7.16359 49.9839C5.22774 49.9827 3.29192 49.9814 1.35617 49.9944C0.780426 49.9983 0.32229 49.8596 0 49.3781V48.7069ZM26.6316 49.9872L26.6555 49.9872C27.906 49.9866 29.1565 49.986 30.407 49.986L31.6007 49.986H31.6375C35.6142 49.9862 39.5909 49.9863 43.5676 49.9852L43.6645 49.9854C43.8603 49.986 44.0571 49.9866 44.2499 49.9612C44.7423 49.8965 45.0851 49.5204 45.099 49.0579C45.1123 48.6057 44.7834 48.1994 44.2974 48.1125C44.0804 48.0738 43.8545 48.0741 43.6314 48.0744L43.5605 48.0745C37.0586 48.0732 30.5569 48.0731 24.0551 48.073H23.9897L17.9798 48.0728C17.9181 48.0728 17.8564 48.0731 17.7946 48.0734H17.7946H17.7946C17.5904 48.0744 17.386 48.0753 17.1823 48.0658C15.847 48.0032 14.8446 47.0436 14.8333 45.7328C14.8095 42.9557 14.8075 40.1782 14.8348 37.4012C14.8477 36.1012 15.876 35.1281 17.2004 35.0742C17.4873 35.0625 17.7747 35.065 18.062 35.0674H18.0623C18.1738 35.0684 18.2853 35.0694 18.3967 35.0695C20.1848 35.072 21.1528 36.009 21.1583 37.7528C21.1606 38.4784 21.16 39.204 21.1595 39.9296C21.1587 40.8442 21.158 41.7588 21.163 42.6734C21.1667 43.3586 21.5256 43.7651 22.0992 43.7806C22.6851 43.7963 23.0975 43.3611 23.1018 42.6673C23.1035 42.3888 23.1056 42.1102 23.1076 41.8316C23.1182 40.3767 23.1289 38.9214 23.0965 37.4673C23.0462 35.211 21.5235 33.5184 19.2797 33.2111C18.7964 33.1447 18.3013 33.1527 17.808 33.1606C17.6728 33.1628 17.5378 33.1649 17.4031 33.1656C14.7627 33.178 12.892 35.0159 12.8839 37.6133C12.8757 40.2601 12.8742 42.9068 12.89 45.5536C12.8927 45.9953 12.9464 46.451 13.0664 46.8758C13.6104 48.8008 15.2802 49.9779 17.4742 49.983C20.5266 49.9901 23.5791 49.9886 26.6316 49.9872ZM27.4544 14.2745H17.7822C17.6184 12.2953 18.2758 10.6979 19.9526 9.62455C21.6237 8.55493 23.4031 8.51914 25.1162 9.53149C26.9015 10.5863 27.5845 12.2251 27.4544 14.2745ZM20.9595 16.2326C21.5002 16.2324 22.0408 16.2321 22.5815 16.2321C23.1229 16.2321 23.6642 16.2323 24.2056 16.2324C25.4854 16.2327 26.7652 16.2331 28.0449 16.2315C29.1138 16.2302 29.4093 15.9437 29.4111 14.9169C29.4113 14.8231 29.4116 14.7294 29.4119 14.6356C29.413 14.2452 29.4142 13.8548 29.4079 13.4646C29.3583 10.3683 27.1586 7.76957 23.9944 7.06549C21.057 6.41167 17.9055 7.92751 16.5204 10.613C15.8038 12.0024 15.7844 13.476 15.8108 14.9704C15.8278 15.9301 16.1235 16.2288 17.1182 16.2311C18.3987 16.2338 19.6791 16.2332 20.9595 16.2326Z" fill="url(#paint0_linear_0_180)"/>
<defs>
<linearGradient id="paint0_linear_0_180" x1="-15.2035" y1="13.6253" x2="9.66065" y2="66.865" gradientUnits="userSpaceOnUse">
<stop stop-color="#AC6C44"/>
<stop offset="1" stop-color="#301103"/>
</linearGradient>
</defs>
</svg>
