<svg width="43" height="43" viewBox="0 0 43 43" fill="none" xmlns="http://www.w3.org/2000/svg">
<path fill-rule="evenodd" clip-rule="evenodd" d="M8.13596 6.10358H8.13599H8.13602H8.13605H8.13608C8.33113 6.10491 8.52777 6.10625 8.72665 6.10625C8.4523 7.44832 7.38424 8.5035 6.13635 8.68513C6.13635 8.49054 6.13459 8.29626 6.13284 8.10224C6.12867 7.64029 6.12452 7.17982 6.14407 6.72023C6.15964 6.35417 6.40622 6.12405 6.77429 6.11207C7.22484 6.09737 7.67593 6.10044 8.13592 6.10358H8.13596ZM19.8506 33.7086L19.8505 33.7085L19.8504 33.7085L19.8491 33.7073C19.8 33.6638 19.7514 33.6208 19.7028 33.5791C19.7296 33.5196 19.752 33.4684 19.7721 33.4228L19.7723 33.4222L19.7724 33.4219C19.8092 33.338 19.8378 33.273 19.8695 33.2095C20.163 32.621 20.4574 32.033 20.7434 31.462L20.7447 31.4593L21.0467 30.856L23.0359 32.8444C22.8715 32.9265 22.7043 33.0102 22.535 33.0949C21.8862 33.4197 21.2053 33.7605 20.5198 34.0919C20.4502 34.1256 20.3115 34.0838 20.2386 34.0307C20.1018 33.9312 19.9746 33.8185 19.8506 33.7086ZM39.5692 16.7245C39.4104 16.8797 39.2517 17.0348 39.0947 17.1913L36.6837 14.7806C36.8559 14.616 37.0272 14.4438 37.2005 14.2697C37.6011 13.8672 38.0122 13.4541 38.4684 13.099C39.1344 12.5805 40.109 12.7764 40.6601 13.4253C41.213 14.0767 41.2188 15.0123 40.6328 15.6484C40.2911 16.0192 39.9299 16.3721 39.5692 16.7245ZM37.8181 18.3321C35.095 21.0556 32.3509 23.8 29.5906 26.5608L28.9981 25.9927L37.4008 17.5888L37.987 18.1632L37.8181 18.3321ZM27.3947 24.267L35.7592 15.9029L36.3518 16.4557L28.436 24.3673L27.9137 24.8893L27.3947 24.267ZM28.5221 27.6106L24.2397 31.8965L21.9756 29.6313L26.2561 25.3482L28.5221 27.6106ZM5.63211 2.076C7.12378 2.13815 8.4299 3.25067 8.72475 4.75914L8.16012 4.75889H8.15998H8.15984H8.1597H8.15957C7.76 4.75863 7.3693 4.75837 6.97866 4.75936C5.61341 4.76283 4.78823 5.58924 4.78812 6.96031C4.78735 14.8147 4.78743 22.6692 4.78751 30.5237L4.78756 37.7762V38.3316H2.10006V37.9338L2.09988 29.6692C2.09963 21.6343 2.09937 13.5993 2.10129 5.56427C2.10185 3.51158 3.6466 1.99336 5.63211 2.076ZM8.80705 8.79039C10.6174 6.54968 10.6222 4.3447 8.80492 2.07164H9.22283C11.2792 2.07164 13.3356 2.07146 15.392 2.07128L15.3962 2.07128C21.0083 2.0708 26.6204 2.07032 32.2325 2.07343C34.2229 2.07455 35.7266 3.57932 35.6913 5.51052C35.6598 7.23545 34.2578 8.68938 32.5342 8.78367C32.4364 8.78904 32.3384 8.79005 32.2405 8.79005L16.8664 8.7903L9.14668 8.79039H8.80705ZM18.4721 33.0008C18.1239 33.6977 18.1262 33.7276 18.6065 34.3759C18.102 34.8669 17.6117 35.3439 17.1307 35.8117L18.0863 36.7009L19.5382 35.2122C20.0055 35.8833 20.474 35.6404 20.9541 35.3916L21.0064 35.3646L21.0451 35.3447C21.5008 35.112 21.9589 34.8839 22.417 34.6559L22.4176 34.6556C23.0227 34.3544 23.6277 34.0531 24.2273 33.7412C24.519 33.5895 24.8009 33.3897 25.0342 33.1584C26.5816 31.6236 28.1223 30.0821 29.663 28.5406C30.2001 28.0032 30.7373 27.4658 31.2747 26.9287C31.3432 26.8602 31.4145 26.7946 31.4976 26.718L31.4977 26.718L31.498 26.7177C31.5415 26.6776 31.5884 26.6345 31.6398 26.5863V41.0118H6.15494V10.1678H31.6389C31.6412 10.2012 31.6442 10.2357 31.6473 10.2709L31.6473 10.2709C31.6542 10.3504 31.6614 10.4339 31.6614 10.5173L31.6623 11.5932C31.664 13.586 31.6657 15.5788 31.6523 17.5716C31.6509 17.7663 31.5515 18.0063 31.4162 18.1468C30.9807 18.5996 30.5362 19.0437 30.0917 19.4878L30.0916 19.488C29.7144 19.8649 29.3371 20.2419 28.9653 20.6241C28.7718 20.8231 28.5741 20.8893 28.3042 20.889C22.9923 20.8837 17.6803 20.8839 12.3684 20.8841L9.36683 20.8841H8.84479V22.2193H27.3617C27.2289 22.3512 27.1028 22.4781 26.981 22.6007L26.981 22.6007L26.981 22.6007L26.9809 22.6008L26.9809 22.6008C26.6549 22.9289 26.3596 23.2262 26.0486 23.5062C25.9713 23.5758 25.8184 23.5728 25.683 23.5701L25.6377 23.5694L25.61 23.5692C20.831 23.5717 16.052 23.5717 11.2731 23.5716L9.35989 23.5716H8.84232V24.8976H24.647C24.5897 24.9605 24.5411 25.0151 24.4977 25.0637C24.4168 25.1544 24.3541 25.2247 24.2876 25.2913C23.9338 25.6457 23.5794 25.9996 23.2251 26.3535L23.2247 26.3538C22.3809 27.1965 21.537 28.0393 20.7005 28.8892C20.4889 29.1041 20.3027 29.3603 20.1645 29.6283C19.7406 30.4501 19.3289 31.2783 18.9173 32.1065C18.7691 32.4047 18.6209 32.7029 18.4721 33.0008ZM33.0202 16.541V10.0886C33.0901 10.0725 33.1564 10.0578 33.2202 10.0436L33.2202 10.0436C33.3493 10.015 33.4678 9.98872 33.585 9.95777C35.5167 9.44748 36.9676 7.62457 37.0322 5.62933C37.1191 2.94899 35.0494 0.740205 32.3657 0.735166C24.0251 0.71947 15.6847 0.726257 7.34425 0.733044L5.41128 0.734606C5.06549 0.734942 4.71175 0.784437 4.37514 0.86607C2.18505 1.39685 0.758436 3.24663 0.757764 5.56225C0.75544 13.7692 0.755762 21.976 0.756084 30.1829L0.756309 38.7716L0.756078 38.8207C0.7558 38.8603 0.755522 38.8999 0.756869 38.9394C0.773666 39.4361 1.01554 39.6896 1.5115 39.694C2.12148 39.6993 2.73155 39.6986 3.34166 39.6978C3.68324 39.6973 4.02482 39.6969 4.36641 39.6975C4.45627 39.6976 4.54609 39.7029 4.6417 39.7086L4.64199 39.7086C4.68889 39.7114 4.73718 39.7142 4.78756 39.7166L4.78746 40.2428V40.2431V40.2433V40.2435V40.2438C4.78734 40.6491 4.78723 41.0405 4.78778 41.4321C4.78868 42.1799 4.98834 42.3838 5.72561 42.3839C14.5005 42.3843 23.2753 42.3843 32.0501 42.3839C32.812 42.3839 33.0061 42.1853 33.0062 41.4075L33.0064 39.0998C33.0067 34.593 33.0071 30.0861 33.0008 25.5792C33.0005 25.3064 33.0784 25.1144 33.2726 24.9212C34.8807 23.3227 36.484 21.7192 38.0873 20.1158C38.661 19.542 39.2347 18.9683 39.8086 18.3947C39.8709 18.3325 39.9364 18.2735 40.017 18.2009L40.017 18.2008L40.0172 18.2007L40.0173 18.2006L40.0173 18.2006C40.0599 18.1623 40.1066 18.1201 40.1593 18.0718C40.1511 18.1337 40.1455 18.186 40.1405 18.2318C40.1317 18.3139 40.1251 18.3752 40.1098 18.4343C39.7944 19.6551 39.3028 20.8102 38.4603 21.7459C37.6574 22.6377 36.8125 23.4915 35.9676 24.3454L35.9669 24.346L35.9666 24.3464L35.9663 24.3467L35.966 24.347C35.6008 24.7161 35.2356 25.0851 34.8738 25.4573C34.802 25.531 34.7317 25.6061 34.6689 25.6731L34.668 25.6742L34.6669 25.6753L34.6627 25.6797C34.6378 25.7063 34.6142 25.7316 34.5922 25.7549L35.2999 26.5016L35.4981 26.7107C35.533 26.6788 35.5667 26.6487 35.5994 26.6195C35.6658 26.5602 35.7277 26.5049 35.7864 26.4463C36.2569 25.9766 36.7269 25.5064 37.1968 25.0363C37.6668 24.5662 38.1368 24.0961 38.6073 23.6264C40.4981 21.7389 41.525 19.4598 41.725 16.7979C41.7417 16.575 41.8225 16.3376 41.9371 16.1446C42.4058 15.3556 42.5453 14.5297 42.2778 13.6476C41.6081 11.4377 38.8863 10.749 37.2074 12.3808C36.3248 13.2386 35.4571 14.1117 34.5895 14.9849L34.5891 14.9853L34.5888 14.9857L34.5884 14.986L34.588 14.9864C34.1836 15.3934 33.7792 15.8004 33.3733 16.2059C33.3069 16.2723 33.2382 16.3365 33.1565 16.4129C33.1149 16.4518 33.07 16.4939 33.0202 16.541ZM28.9413 14.1368H8.83854V12.8428H28.9413V14.1368ZM8.83966 16.8254H28.9424V15.5293H8.83966V16.8254ZM28.9417 19.5122H8.8541V18.2042H28.9417V19.5122ZM8.8541 38.3247H28.9417V37.0167H8.8541V38.3247ZM16.1848 35.6455H8.85097V34.3488H16.1848V35.6455Z" fill="url(#paint0_linear_0_201)"/>
<defs>
<linearGradient id="paint0_linear_0_201" x1="-10.0982" y1="12.0778" x2="12.6068" y2="53.7355" gradientUnits="userSpaceOnUse">
<stop stop-color="#AC6C44"/>
<stop offset="1" stop-color="#301103"/>
</linearGradient>
</defs>
</svg>
